<?xml version="1.0" encoding="UTF-8"?> <svg xmlns="http://www.w3.org/2000/svg" viewBox="0 0 200 200"><defs><style>.cls-1,.cls-2{fill:#fff;}.cls-1{opacity:0;}</style></defs><g id="Layer_2" data-name="Layer 2"><g id="Layer_1-2" data-name="Layer 1"><g id="Layer_2-2" data-name="Layer 2"><g id="svg4"><rect class="cls-1" width="200" height="200"></rect></g></g><g id="Layer_2-3" data-name="Layer 2"><g id="svg8"><g id="layer1"><path id="path19" class="cls-2" d="M181.86,81.61c-.59-.78-1.17-1.36-4.08-1.56-.77,0-3.11-.19-7.19-.19-10.68,0-18.06,3.31-21.76,9.71,1-6.4-5.28-9.71-18.84-9.71-15.93,0-26,6.41-30.12,19.43-1.55,4.85-1.55,8.75-.38,11.85H95.6c-2.92.19-6.8.39-9.33.39-5.82,0-9.5-1-10.87-2.91-1.17-1.75-1.17-5.06.38-9.91,2.54-8,8.55-11.46,18.26-11.46a93.81,93.81,0,0,1,9.92.59h0c.58,0,1-.78,1-1.36l-.2-.58-.38-2.72c-.2-1.77-1.56-2.74-3.89-3.13-2.14-.19-3.89-.19-6.21-.19H94c-12.66,0-21.56,4.28-26.39,12.44,1.72-8.36-4.1-12.44-17.51-12.44A152.17,152.17,0,0,0,34,80.44c-2.56.39-4.08,1.36-4.68,3.12l-1.16,3.49c-.19.58.2,1,1,1h0c.6,0,2.92-.39,6.81-.58,5.28-.39,8.93-.59,11.46-.59,7.39,0,10.69,2,9.5,5.64A2.12,2.12,0,0,1,55.17,94c-7,1.17-12.67,1.94-16.7,2.53C26.83,98.12,20,101.62,18.28,107.45c-2.52,8,3.67,11.85,18.65,11.85a104,104,0,0,0,18.81-1.36c2.91-.58,4.46-1.16,5-3.1l2.72-9c-.2,9,5.83,13.41,18.66,13.41a111.83,111.83,0,0,0,13.2-.58c2.53-.39,3.89-1,4.47-2.91l.59-2.73c2.71,4.28,8.74,6.41,17.87,6.41,9.71,0,15.35-.19,16.89-.77a3.58,3.58,0,0,0,2.53-2.11.69.69,0,0,1,.19-.58l1.17-3.7c.19-.58-.2-1-1-1l-6.22.39c-4.09.2-7.39.39-9.71.39a30.83,30.83,0,0,1-9.13-1c-2.53-1-3.7-2.72-3.5-5.63L129.21,103c8.74-1.16,14.78-3.88,17.68-8.16l-6.8,22.73a.86.86,0,0,0,.19,1,1.87,1.87,0,0,0,1.36.39h8.16a2.1,2.1,0,0,0,2.11-1.36l7.21-25c1-3.3,3.89-4.86,9.34-4.86,4.85,0,8.35,0,10.68.2h.19a2.09,2.09,0,0,0,1.75-1.17l1.16-3.49a2.08,2.08,0,0,0-.38-1.55ZM50.92,111.53a76.15,76.15,0,0,1-10.88.58c-8.35,0-11.86-1.75-10.89-5,.79-2.34,2.93-3.89,6.42-4.28l18.85-2.53Zm86.84-20.2q-1.17,3.78-11.08,5.27L111,98.72l.39-1.37c1.36-4.22,3.16-7,5.43-8.54s6.22-2.33,11.67-2.33c7.19.19,10.29,1.74,9.32,4.86Z"></path></g></g></g></g></g></svg> 