<?xml version="1.0" encoding="UTF-8"?> <svg xmlns="http://www.w3.org/2000/svg" version="1.1" viewBox="0 0 200 200" xml:space="preserve"> <style type="text/css"> .st0{fill:#FFFFFF;} </style> <path class="st0" d="m85.3 160.2h-2.9c-0.9-0.3-1.9-0.5-2.8-0.9-3.2-1.2-5.7-3.5-8-6-5.7-6.5-10.4-13.7-13.7-21.7-3.7-9.1-6-18.6-5.9-28.5 0.1-7.1 1.5-14 5-20.2 4.4-7.7 10.9-12.8 19.6-14.8 3.5-0.8 7-1.1 10.5-0.1s6.9 2.2 10.3 3.5c2.9 1.1 5.8 1.8 8.9 0.5 2-0.9 4.1-1.6 6.2-2.3 3.4-1.3 6.9-2.4 10.5-2.5 7.1-0.2 13.6 1.5 19.4 5.8 2.4 1.8 4.4 3.9 6 6.4-0.2 0.2-0.4 0.3-0.6 0.4-2.5 1.7-4.7 3.7-6.6 6.1-5.1 6.2-6.8 13.3-5.6 21.2 0.8 5.5 3.2 10.2 7.1 14.2 2.4 2.4 5.1 4.4 8.1 5.9 0.6 0.3 0.9 0.6 0.6 1.3-0.5 1.3-0.9 2.6-1.4 3.8-2.2 5.4-5.1 10.4-8.5 15.2-2.4 3.4-4.9 6.7-8.2 9.3-3 2.4-6.4 3.5-10.3 3.3-3-0.2-5.7-1.1-8.3-2.4-5.8-2.7-11.7-3.2-17.8-1.3-1.5 0.5-3 1.2-4.5 1.7-2.3 0.7-4.7 1.4-7.1 2.1z"></path> <path class="st0" d="m126.2 37.5c0 1.9 0.2 3.9-0.1 5.8-1.1 7.1-4.4 12.9-10 17.4-4.1 3.3-8.8 5.3-14.3 5-0.3-2.1-0.2-4.2 0.2-6.3 1.6-7.4 5.6-13.3 11.9-17.5 3.3-2.2 6.8-3.7 10.8-4.2 0.2 0 0.4-0.1 0.5-0.2h1z"></path> </svg> 