<?xml version="1.0" encoding="UTF-8"?> <svg xmlns="http://www.w3.org/2000/svg" viewBox="0 0 200 200"><defs><style>.cls-1,.cls-2{fill:#fff;}.cls-1{fill-opacity:0;}</style></defs><g id="Layer_2" data-name="Layer 2"><g id="Layer_1-2" data-name="Layer 1"><g id="Layer_1-2-2" data-name="Layer 1-2"><g id="svg4"><rect class="cls-1" width="200" height="200"></rect></g></g><path class="cls-2" d="M183.92,86.41a3.77,3.77,0,0,1,3.72-3.79,3.81,3.81,0,0,1,2.63,1.09,3.78,3.78,0,0,1,0,5.33,3.68,3.68,0,0,1-2.63,1.13,3.75,3.75,0,0,1-3.72-3.76m-.31,0a4.09,4.09,0,0,0,4.07,4.1,3.82,3.82,0,0,0,2.83-1.2,4.2,4.2,0,0,0,1.2-2.9,4,4,0,0,0-1.2-2.9,3.92,3.92,0,0,0-2.83-1.2,4.08,4.08,0,0,0-4.07,4.1m2.53,2.42h.58V86.92H188a1.13,1.13,0,0,1,.51.07.74.74,0,0,1,.31.58l.07.75v.34c0,.07,0,.1.07.14h.71v-.1c-.1,0-.13-.14-.17-.28a1.14,1.14,0,0,1,0-.37l0-.58a1,1,0,0,0-.13-.55,1.39,1.39,0,0,0-.41-.27,1,1,0,0,0,.44-.41,1.25,1.25,0,0,0,.14-.65,1.12,1.12,0,0,0-.58-1.06,1.86,1.86,0,0,0-.79-.14h-1.94l0,4.44Zm.55-2.42V84.87h1.36a1,1,0,0,1,.48.1.68.68,0,0,1,.31.65c0,.31-.07.52-.24.62a1,1,0,0,1-.61.17ZM24.89,92,8.29,118.13H19.63l16-24.93Zm68.33-.58V81.8H61a10.45,10.45,0,0,0-7.75,3.89c-1.54,1.61-2.39,5-2.39,5V81.87H33.63a4.08,4.08,0,0,0-3.45,1.84c-.95,1.26-4.88,7.75-4.88,7.75Zm87.76,0V81.8H146.46a10.51,10.51,0,0,0-7.75,3.89c-1.54,1.61-2.39,5-2.39,5v.78Zm-76.42-9.63H94.89v9.63h9.67Zm31.66,0h-9.63v9.63h9.63Zm0,13.12-9.5-.58v11.16s0,3.21-3.14,3.21H107.33a3.07,3.07,0,0,1-2.77-3.17V92.86L95,92.18v17.11a10.46,10.46,0,0,0,8.94,8.84s.76,0,.89.07h22s9.42-.75,9.42-9.83L136.22,95ZM41,118.13H86.12a10.59,10.59,0,0,0,8.67-8.74,14.47,14.47,0,0,0,.17-3.86c-.24-1.43-3-7.78-8.84-8.33-3.52-.34-34.83-2.83-34.83-2.83a9.75,9.75,0,0,0,3,5.63,12.5,12.5,0,0,0,5.63,2.7l24.15,2c.75,0,2.15.24,2.11,2.09a1.89,1.89,0,0,1-2,1.84H50.4V94.3L41,93.61S41,118.13,41,118.13Zm95.31.07h34.56c8.68-.51,9.91-8.74,9.91-8.74a16.09,16.09,0,0,0,.06-3.93c-.23-1.94-3-7.82-8.91-8.4-3.48-.34-35-2.18-35-2.18a9.21,9.21,0,0,0,3.14,5.12,11.05,11.05,0,0,0,5.43,2.59l24.38,2c.75,0,2.29.11,2.29,2a2,2,0,0,1-.61,1.43,3.92,3.92,0,0,1-1.61.45H136.39Z"></path></g></g></svg> 