<svg xmlns="http://www.w3.org/2000/svg" viewBox="0 0 48 48"><defs><style>.cls-1{fill:#ff6c2c;}</style></defs><g id="Base_Icons" data-name="Base Icons"><path d="M15,27V21a1.50164,1.50164,0,0,0-1.5-1.5h-6A1.50164,1.50164,0,0,0,6,21v6a1.50164,1.50164,0,0,0,1.5,1.5h6A1.50164,1.50164,0,0,0,15,27ZM7,27V21a.50065.50065,0,0,1,.5-.5h6a.50065.50065,0,0,1,.5.5v6a.50065.50065,0,0,1-.5.5h-6A.50065.50065,0,0,1,7,27Z"/><path d="M24,6a4.5,4.5,0,1,0,4.5,4.5A4.50491,4.50491,0,0,0,24,6Zm0,8a3.5,3.5,0,1,1,3.5-3.5A3.50424,3.50424,0,0,1,24,14Z"/><path d="M32.5,11h3.998a.50274.50274,0,0,1,.502.502v3.68311L35.87354,13.918a.49978.49978,0,1,0-.74708.66406l2,2.25.01075.00806a.49452.49452,0,0,0,.09881.074.51234.51234,0,0,0,.06147.04151.51859.51859,0,0,0,.1043.02465A.49525.49525,0,0,0,37.48535,17H37.5a.5048.5048,0,0,0,.35413-.147l1.99939-1.99951a.5.5,0,1,0-.707-.707L38,15.293V11.502A1.50373,1.50373,0,0,0,36.49805,10H32.5a.5.5,0,0,0,0,1Z"/><path d="M25.293,33H22.707A1.20813,1.20813,0,0,0,21.5,34.207V40.793A1.20813,1.20813,0,0,0,22.707,42H25.293A1.20813,1.20813,0,0,0,26.5,40.793V34.207A1.20813,1.20813,0,0,0,25.293,33Zm.207,7.793a.20713.20713,0,0,1-.207.207H22.707a.20713.20713,0,0,1-.207-.207V34.207A.20713.20713,0,0,1,22.707,34H25.293a.20713.20713,0,0,1,.207.207Z"/><path d="M37.5,19.75a1.70111,1.70111,0,0,0-1.50146.8916l-2.772,4.98145a1.76772,1.76772,0,0,0,.021,1.77246A1.70527,1.70527,0,0,0,34.728,28.25H40.272a1.70527,1.70527,0,0,0,1.48047-.85449,1.76772,1.76772,0,0,0,.021-1.77246l-2.772-4.98145A1.70111,1.70111,0,0,0,37.5,19.75Zm3.39062,7.13867A.70679.70679,0,0,1,40.272,27.25H34.728a.70679.70679,0,0,1-.61865-.36133.77836.77836,0,0,1-.00879-.77929l2.772-4.98145a.72642.72642,0,0,1,1.25488,0l2.772,4.98145A.77836.77836,0,0,1,40.89062,26.88867Z"/><path d="M15.5,37H11.502a.50274.50274,0,0,1-.502-.502V32.81494L12.12646,34.082a.49978.49978,0,1,0,.74708-.66406l-2-2.25-.01075-.00806a.49452.49452,0,0,0-.09881-.074.51234.51234,0,0,0-.06147-.04151.51859.51859,0,0,0-.1043-.02465A.49525.49525,0,0,0,10.51465,31l-.00763.00146L10.5,31a.48635.48635,0,0,0-.15442.03125c-.01.00317-.02118.0022-.031.0061a.49755.49755,0,0,0-.16871.10962L8.14648,33.14648a.5.5,0,0,0,.707.707L10,32.707v3.791A1.50373,1.50373,0,0,0,11.502,38H15.5a.5.5,0,0,0,0-1Z"/><path d="M16.97913,10.39648a.50581.50581,0,0,0-.01722-.08544.49726.49726,0,0,0-.109-.165L14.85352,8.14648a.5.5,0,0,0-.707.707L15.293,10H11.502A1.50373,1.50373,0,0,0,10,11.502V15.5a.5.5,0,0,0,1,0V11.502A.50274.50274,0,0,1,11.502,11h3.6828L13.918,12.126a.50013.50013,0,0,0,.66406.748l2.25-2,.00873-.01172a.501.501,0,0,0,.07428-.0996.26.26,0,0,0,.066-.16846A.49092.49092,0,0,0,17,10.51465l-.0014-.00781L17,10.5A.479.479,0,0,0,16.97913,10.39648Z"/></g><g id="Sub_Icons" data-name="Sub Icons"><path class="cls-1" d="M36,30a5.98056,5.98056,0,0,0-4.22943,1.749l-.01325.00879-.00891.01343a5.99654,5.99654,0,0,0,8.481,8.47974l.01325-.00879.00891-.01343A5.99652,5.99652,0,0,0,36,30Zm5,6a4.95085,4.95085,0,0,1-1.1463,3.14624l-7.00043-6.99951A4.95045,4.95045,0,0,1,36,31,5.00588,5.00588,0,0,1,41,36ZM31,36a4.95085,4.95085,0,0,1,1.1463-3.14624l7.00043,6.99951A4.95045,4.95045,0,0,1,36,41,5.00588,5.00588,0,0,1,31,36Z"/></g></svg>