<?xml version="1.0" encoding="UTF-8"?> <svg xmlns="http://www.w3.org/2000/svg" version="1.1" viewBox="0 0 200 200" xml:space="preserve"> <style type="text/css"> .st0{fill:#FFFFFF;} </style> <path class="st0" d="m174.1 115.4c1.3-2.2 2.6-4.4 3.9-6.7 0.2-0.3 0.2-0.5 0.1-0.9-0.8-4.8-1.6-9.7-2.4-14.5 0-0.1 0-0.1-0.1-0.3-0.3 1.3-0.6 2.5-0.8 3.7-0.6 0-1.1-0.1-1.6 0-1.5 0.2-2.5 1.1-2.9 2.8-0.6 2.8-1.2 5.6-1.8 8.3-0.1 0.4-0.2 0.9-0.3 1.3h-3.9c0.2-0.8 0.3-1.5 0.5-2.3 0.6-2.5 1.1-5.1 1.7-7.6 0.6-2.4 1.8-4.4 4.2-5.6 1.1-0.5 2.3-0.8 3.5-0.8h5.6c0.5 3.5 0.9 6.9 1.4 10.6 0.1-0.2 0.2-0.4 0.3-0.5 1.9-3.2 3.7-6.5 5.6-9.7 0.2-0.3 0.3-0.4 0.7-0.4h3.8c-0.1 0.2-0.2 0.3-0.3 0.5-4.2 7.2-8.4 14.3-12.7 21.5-0.1 0.2-0.2 0.3-0.2 0.5-1.4 0.1-2.8 0.1-4.3 0.1z"></path> <path class="st0" d="m9.1 96.5c0.2-1 0.5-2.1 0.7-3.1 0.1-0.6 0.3-1.2 0.4-1.8l0.1-0.1c1.6 0 3.2 0 4.8 0.1s2.5 1.3 2.2 2.7c-0.2 0.9-0.7 1.5-1.5 1.9s-1.8 0.5-2.8 0.5h-3.9v-0.2z"></path> <path class="st0" d="m16.4 83.6c0.2 0.1 0.4 0.1 0.6 0.2 0.9 0.2 1.6 0.7 1.8 1.6 0.2 1-0.1 1.9-0.9 2.6-0.7 0.6-1.5 0.8-2.3 0.8-1.6 0.1-3.3 0-4.9 0 0 0-0.1 0-0.1-0.1 0.4-1.7 0.7-3.4 1.1-5.2 1.6 0.1 3.1 0.1 4.7 0.1z"></path> <path class="st0" d="m27.2 83.6c0.2 0 0.3 0.1 0.5 0.1 0.9 0.2 1.7 0.7 1.8 1.7 0.2 1-0.2 1.9-1 2.5-0.7 0.5-1.4 0.7-2.2 0.8-1.6 0.1-3.3 0-4.9 0h-0.1c0.3-1.6 0.7-3.2 1-4.7 0-0.1 0-0.3 0.1-0.4h4.8z"></path> <path class="st0" d="m47 88.3h9c0.7 0 1.5 0.3 2.2 0.5 1.8 0.7 2.9 1.9 3.1 3.8s-0.5 3.5-2 4.7c-0.6 0.5-1.4 0.8-2.1 1.2h0.1c2.5 1.1 3.2 3.8 2.4 6.2-0.8 2.1-2.4 3.3-4.5 4-0.9 0.3-1.8 0.4-2.7 0.5-1.5 0-3 0.1-4.5-0.1-3.1-0.5-4.8-3.1-4.1-6.2 1-4.8 2.1-9.6 3.1-14.4v-0.2zm0.5 17c1.6 0 3.2 0.1 4.8 0 0.7 0 1.4-0.3 2-0.6s1.1-0.9 1.2-1.6c0.3-1.3-0.3-2.5-1.8-2.7-1.7-0.2-3.4-0.2-5.2-0.3-0.3 1.8-0.6 3.5-1 5.2zm1.9-9c1.6 0 3.1 0.1 4.7 0 0.7 0 1.4-0.3 2-0.6 0.7-0.4 1.1-1.1 0.9-1.9-0.1-0.9-0.8-1.5-2-1.6-1.5-0.1-3 0-4.5 0-0.1 0-0.3 0.1-0.3 0.2-0.2 1.3-0.5 2.6-0.8 3.9z"></path> <path class="st0" d="m123.2 88.3h8.2c0.7 0 1.5 0.2 2.2 0.3 1.7 0.5 3.1 1.4 3.7 3.2 0.7 2.1-0.2 4.5-2.2 5.7-0.5 0.3-1.1 0.6-1.7 0.9l0.1 0.1c2.5 1.1 3.2 3.9 2.3 6.1-0.8 2.1-2.4 3.3-4.5 4-0.9 0.3-1.8 0.4-2.7 0.5-1.4 0.1-2.9 0.1-4.3-0.1-3.1-0.4-4.9-3-4.3-6.1 1-4.8 2.1-9.6 3.1-14.4 0 0 0-0.1 0.1-0.2zm0.4 17c1.6 0 3.2 0.1 4.8 0 0.7 0 1.4-0.3 2-0.5 1-0.5 1.5-1.5 1.4-2.5-0.1-0.9-0.8-1.7-2-1.8-1.7-0.2-3.4-0.2-5.1-0.3-0.3 1.7-0.7 3.4-1.1 5.1zm2-9h4.6c0.9 0 1.8-0.3 2.4-1 1-1 0.6-2.5-0.7-3-0.3-0.1-0.6-0.2-0.9-0.2h-3.2c-0.4 0-1-0.1-1.2 0.1-0.3 0.2-0.2 0.7-0.3 1.1-0.3 1-0.5 2-0.7 3z"></path> <path class="st0" d="m142.1 102.6c0 1.7 1.5 3.2 3.3 3.3 1.4 0.1 2.7-0.3 3.6-1.5 0.1-0.1 0.2-0.1 0.3-0.1h4.3c-0.1 0.2-0.1 0.3-0.2 0.4-1.2 2.7-3.4 4.2-6.3 4.7-1.3 0.2-2.5 0.1-3.8-0.2-2.8-0.8-4.4-2.7-5-5.4-0.9-4.1 0.9-8.2 4.6-10 2.5-1.3 5.1-1.3 7.7-0.1 3 1.3 4.1 4.3 3.9 7 0 0.5-0.2 1-0.2 1.5 0 0.3-0.2 0.4-0.5 0.4h-11.1-0.6zm0.5-3.2h7.7c0.1-1-0.5-2-1.5-2.5-1.7-0.9-3.9-0.5-5.2 1-0.4 0.4-0.7 0.9-1 1.5z"></path> <path class="st0" d="m84 109.2h-4c0-0.5-0.1-1-0.1-1.5l-0.3 0.3c-2.2 1.8-4.6 2.1-7.1 1-1.7-0.8-2.7-2.2-2.7-4.1 0-2 1-3.3 2.7-4.2 1.5-0.8 3.2-1.1 4.9-1.4 1-0.2 2-0.3 3.1-0.5 0.3-0.1 0.6-0.2 0.9-0.3 0.6-0.4 0.7-1.1 0.1-1.5-0.4-0.3-1-0.4-1.5-0.5-1.6-0.1-3 0.3-4 1.5-0.1 0.1-0.2 0.1-0.3 0.2h-4.3c0.1-0.2 0.2-0.4 0.2-0.5 1.3-2.6 3.5-4.1 6.4-4.5 1.3-0.2 2.6-0.2 3.9 0.1 3 0.6 4.4 2.7 3.8 5.7-0.5 2.3-1 4.5-1.4 6.8-0.2 1-0.2 2.1 0 3.1-0.4 0-0.4 0.1-0.3 0.3zm-3.2-7.5c-1.3 0.2-2.6 0.4-3.9 0.6-0.8 0.2-1.5 0.4-2.3 0.7-0.6 0.2-1 0.7-1 1.5 0.1 0.7 0.5 1.2 1.2 1.3 0.6 0.1 1.3 0.2 1.9 0.1 2.3-0.3 3.9-2 4.1-4.2z"></path> <path class="st0" d="m103.1 109.1c1.5-7 3-13.9 4.5-20.9h4c-0.8 3.6-1.6 7.3-2.4 11 0.3-0.3 0.5-0.5 0.7-0.6l6-5.4c0.2-0.2 0.5-0.3 0.8-0.3h5.1c-2.8 2.3-5.5 4.6-8.2 6.9 1.6 3.1 3.2 6.2 4.8 9.4h-0.5-3.5c-0.3 0-0.5-0.1-0.7-0.4-1-2-1.9-4.1-2.9-6.1-0.1-0.2-0.2-0.3-0.3-0.5-0.8 0.6-1.6 1.3-2.4 1.9-0.1 0.1-0.1 0.4-0.2 0.5l-0.9 4.2c0 0.1-0.2 0.3-0.3 0.3h-3.6c0.1 0.1 0.1 0 0 0z"></path> <path class="st0" d="m102.4 103.5c-0.3 1.3-0.8 2.4-1.7 3.3-1.9 2.2-4.4 2.9-7.2 2.7-2.1-0.1-3.9-0.9-5.3-2.6-1-1.3-1.4-2.8-1.5-4.5-0.2-3.9 2-7.6 5.7-9 2.7-1 5.3-0.8 7.8 0.6 1.7 1 2.7 2.5 3 4.5 0.1 0.7 0.1 0.7-0.7 0.7h-3.2c-0.1 0-0.4-0.1-0.4-0.2-0.8-2.5-4.3-3-6.2-1.3-0.9 0.8-1.5 1.8-1.7 3-0.1 0.7-0.1 1.4 0 2.1 0.3 1.5 1.3 2.4 2.8 2.7 1.6 0.3 3-0.3 3.8-1.7 0.2-0.3 0.4-0.4 0.8-0.4h3.4c0.3 0.1 0.4 0.1 0.6 0.1z"></path> <path class="st0" d="m65.2 88.3h3.9c-0.2 0.7-0.3 1.4-0.4 2.1-1 4.5-1.9 9-2.9 13.5 0 0.2-0.1 0.4-0.1 0.6 0 0.9 0.4 1.4 1.3 1.5 0.5 0.1 1.1 0 1.7 0-0.2 1.1-0.4 2.1-0.7 3.1 0 0.1-0.2 0.2-0.3 0.3-1.3 0.2-2.6 0.2-3.8-0.4-1.6-0.8-2.5-2.4-2.2-4.4 0.3-1.8 0.7-3.6 1.1-5.4 0.7-3.5 1.5-7 2.3-10.6 0 0 0-0.2 0.1-0.3z"></path> <path class="st0" d="m166.8 93c-0.3 1.3-0.5 2.5-0.8 3.6h-1.3c-1.8 0-3 0.8-3.6 2.5-0.4 1.1-0.6 2.3-0.9 3.5-0.5 2.1-0.9 4.2-1.4 6.2 0 0.2-0.1 0.3-0.4 0.3h-3.4-0.2c0.2-1 0.4-1.9 0.6-2.9 0.5-2.3 0.9-4.6 1.5-6.8 0.5-1.9 1.3-3.7 2.9-4.9 1.7-1.4 3.7-1.8 5.8-1.6 0.5 0.1 0.8 0.1 1.2 0.1z"></path> <path class="st0" d="m31.1 93.4c0.2-1.2 0.5-2.3 0.7-3.5l0.3-1.5c0-0.1 0.2-0.2 0.3-0.2 1.6 0 3.1 0 4.7 0.1 1.2 0.1 2.1 0.8 2.2 1.8 0.1 1.1-0.2 2.1-1.2 2.6-0.6 0.3-1.3 0.6-1.9 0.6-1.7 0.1-3.3 0.1-5 0.1 0 0.1-0.1 0.1-0.1 0z"></path> <path class="st0" d="m19.9 96.6c0.1-0.6 0.3-1.2 0.4-1.8 0.2-1 0.4-2.1 0.7-3.1 0-0.1 0.2-0.3 0.3-0.3 1.5 0 3 0 4.6 0.1 0.2 0 0.3 0 0.5 0.1 0.9 0.2 1.6 0.7 1.8 1.6 0.2 1-0.1 1.9-0.9 2.5-0.6 0.5-1.3 0.8-2 0.8-1.9 0.1-3.6 0.1-5.4 0.1z"></path> <path class="st0" d="m18.3 104.8c0.3-1.4 0.6-2.8 0.9-4.1 0.2-1 0.2-1 1.3-1 1.3 0 2.6 0 3.9 0.1 1.2 0.1 2 0.8 2.2 1.8 0.2 1.2-0.3 2.3-1.4 2.8-0.5 0.2-1 0.4-1.5 0.5-1.8-0.1-3.6-0.1-5.4-0.1z"></path> <path class="st0" d="m29.5 101.6c0.2-1.1 0.5-2.3 0.7-3.4l0.3-1.5c0-0.1 0.2-0.3 0.3-0.3 1.6 0 3.2 0 4.7 0.1 1.2 0.1 2 0.8 2.2 1.8s-0.3 2.2-1.2 2.7c-0.6 0.3-1.3 0.6-2 0.6-1.6 0.1-3.3 0.1-4.9 0.1 0.1 0 0 0-0.1-0.1z"></path> </svg> 