<?xml version="1.0" encoding="UTF-8"?> <svg xmlns="http://www.w3.org/2000/svg" version="1.1" viewBox="0 0 200 200" xml:space="preserve"> <style type="text/css"> .st0{fill:#FFFFFF;} </style> <path class="st0" d="m35 99.8v-23.4c0-4.8 1.3-9.2 5-12.5 2.9-2.6 6.4-3.9 10.2-4.4 5.5-0.8 10.9-0.7 16.2 1.1 6.8 2.4 10.7 7.7 10.8 14.9 0.1 5.4 0 10.8 0.1 16.3 0 1-0.3 1.3-1.3 1.3h-14.2c-1 0-1.3-0.3-1.3-1.3v-15c0-1.8-0.9-3.1-2.5-3.8-1.4-0.6-3.3-0.3-4.2 0.9-0.5 0.7-0.9 1.5-1.1 2.4-0.2 1-0.1 2-0.1 3.1v41.8 1.7c0.2 2.3 1.8 3.8 4 3.7s3.8-1.7 3.9-4v-14.3c0-2 0-2 2-2h13.4c1.1 0 1.4 0.3 1.4 1.4-0.1 4 0 7.9-0.1 11.9-0.1 3-1.2 5.5-3.5 7.4-5.3 4.3-10.5 8.5-15.8 12.8-0.3 0.2-0.7 0.5-1 0.5-3.4 0-6.7 0.3-10-0.7-7-2.1-11.6-8.2-11.7-15.5v-0.4c-0.2-8.2-0.2-16-0.2-23.9z"></path> <path class="st0" d="m157.7 108.1v30.1c0 1.9 0 1.7-1.9 1.9-2.2 0.2-3.9-0.5-5.6-2-3.3-3-6.7-5.8-10.2-8.6-0.8-0.7-1.1-1.4-1.1-2.4v-49.1c0-1.8 0-1.8-1.7-1.8h-8.4c-1 0-1.4-0.3-1.3-1.3v-13.2c0-0.9 0.2-1.2 1.2-1.2h39.5c0.8 0 1.1 0.3 1.1 1.1v13.3c0 1-0.4 1.3-1.3 1.3h-8.8c-1.1 0-1.5 0.3-1.5 1.5v30.4z"></path> <path class="st0" d="m132.2 122.9c-8.9-7.4-17.5-14.6-26.2-21.9l-24.9 20.1c-0.1-0.1-0.2-0.1-0.3-0.2 0.5-2.4 1-4.8 1.6-7.2 3.8-17.1 7.6-34.2 11.4-51.4 0.4-1.9 0.4-1.9 2.4-1.9h19.8c1.1 0 1.6 0.3 1.9 1.4 4.7 19.9 9.3 39.7 14 59.6 0.2 0.4 0.2 0.8 0.3 1.5zm-21.9-26.1c-1.4-7.3-2.8-14.4-4.2-21.5h-0.3c-1.4 7.1-2.8 14.2-4.2 21.4 3.1 0.1 5.8 0.1 8.7 0.1z"></path> <path class="st0" d="m146.1 139.9h-81.5c0.4-0.4 0.6-0.7 0.9-0.9 13.2-10.7 26.5-21.4 39.7-32.1 0.7-0.6 1.1-0.6 1.8 0 12.8 10.7 25.6 21.4 38.3 32.1 0.2 0.2 0.4 0.5 0.8 0.9z"></path> </svg> 