<?xml version="1.0" encoding="UTF-8"?> <svg xmlns="http://www.w3.org/2000/svg" id="_ëîé_1" data-name="‘ëîé_1" viewBox="0 0 2001 2001"><defs><style>.cls-1{fill:none;stroke:#fff;stroke-miterlimit:10;}.cls-2{fill:#242833;fill-rule:evenodd;}</style></defs><rect class="cls-1" x="0.5" y="0.5" width="2000" height="2000"></rect><path d="M1021.94,1065.1H978.06a29.36,29.36,0,0,1-29.12-25.86l-4.68-36.76a184.43,184.43,0,0,1-26.92-11.14l-29.27,22.74a29.22,29.22,0,0,1-38.89-2.47l-30.85-30.85A29.14,29.14,0,0,1,815.94,942l22.74-29.29a180.55,180.55,0,0,1-11.14-26.92l-36.84-4.69a29.41,29.41,0,0,1-25.8-29.15V808.06a29.36,29.36,0,0,1,25.86-29.12l36.76-4.68a184.43,184.43,0,0,1,11.14-26.92l-22.72-29.27a29.21,29.21,0,0,1,2.49-38.91l30.85-30.85a29.16,29.16,0,0,1,38.77-2.39l29.27,22.76a184.21,184.21,0,0,1,26.94-11.14l4.68-36.84a29.35,29.35,0,0,1,29.12-25.8h43.88a29.36,29.36,0,0,1,29.12,25.86l4.68,36.76a184.21,184.21,0,0,1,26.94,11.14L1112,645.92a29.2,29.2,0,0,1,38.89,2.49l30.85,30.85a29.14,29.14,0,0,1,2.39,38.77l-22.74,29.29a181.62,181.62,0,0,1,11.14,26.92l36.84,4.68a29.39,29.39,0,0,1,25.78,29.14v43.88a29.36,29.36,0,0,1-25.86,29.12l-36.76,4.68a184.43,184.43,0,0,1-11.14,26.92l22.74,29.27a29.18,29.18,0,0,1-2.49,38.89l-30.85,30.85a29.12,29.12,0,0,1-38.77,2.39l-29.29-22.74a180.55,180.55,0,0,1-26.92,11.14l-4.68,36.84a29.39,29.39,0,0,1-29.14,25.8Zm-105.6-95.22a9.93,9.93,0,0,1,4.78,1.24,165.09,165.09,0,0,0,34.76,14.42,9.77,9.77,0,0,1,7,8.17l5.49,43.1a9.9,9.9,0,0,0,9.68,8.7h43.88a9.87,9.87,0,0,0,9.66-8.6l5.51-43.18a9.77,9.77,0,0,1,7-8.17,165.09,165.09,0,0,0,34.76-14.42,9.77,9.77,0,0,1,10.77.82l34.29,26.64a9.63,9.63,0,0,0,12.83-.66l31-31.05a9.69,9.69,0,0,0,.77-12.93l-26.65-34.29a9.77,9.77,0,0,1-.82-10.77,165.09,165.09,0,0,0,14.42-34.76,9.77,9.77,0,0,1,8.17-7l43.1-5.49a9.94,9.94,0,0,0,8.7-9.7V808.06a9.87,9.87,0,0,0-8.6-9.66l-43.18-5.51a9.77,9.77,0,0,1-8.17-7,165.09,165.09,0,0,0-14.42-34.76,9.73,9.73,0,0,1,.82-10.77l26.64-34.29a9.6,9.6,0,0,0-.64-12.81l-31-31a9.65,9.65,0,0,0-12.93-.77l-34.29,26.65a9.81,9.81,0,0,1-10.79.82,164.39,164.39,0,0,0-34.76-14.42,9.78,9.78,0,0,1-7-8.17l-5.49-43.1a9.94,9.94,0,0,0-9.7-8.72H978.06a9.87,9.87,0,0,0-9.66,8.6l-5.51,43.18a9.82,9.82,0,0,1-7,8.19,164.34,164.34,0,0,0-34.76,14.4,9.8,9.8,0,0,1-10.79-.8L876,661.41a9.61,9.61,0,0,0-12.81.65l-31.05,31.07a9.69,9.69,0,0,0-.77,12.93l26.65,34.29a9.77,9.77,0,0,1,.82,10.77,164,164,0,0,0-14.42,34.76,9.77,9.77,0,0,1-8.17,7l-43.1,5.49a9.9,9.9,0,0,0-8.7,9.68v43.88a9.87,9.87,0,0,0,8.6,9.66l43.18,5.51a9.77,9.77,0,0,1,8.17,7,165.09,165.09,0,0,0,14.42,34.76,9.73,9.73,0,0,1-.82,10.77L831.4,953.94a9.6,9.6,0,0,0,.64,12.81l31.05,31a9.69,9.69,0,0,0,12.93.77l34.29-26.65a10.1,10.1,0,0,1,6-2Z" transform="translate(0.5 0.5)"></path><path d="M1000,928a98,98,0,1,1,98-98A98.08,98.08,0,0,1,1000,928Zm0-176.33A78.37,78.37,0,1,0,1078.37,830,78.45,78.45,0,0,0,1000,751.63Z" transform="translate(0.5 0.5)"></path><path class="cls-2" d="M1033,1473.73a33,33,0,1,0-33,33A33,33,0,0,0,1033,1473.73Z" transform="translate(0.5 0.5)"></path><path class="cls-2" d="M1932,188.81H68a68.21,68.21,0,0,0-68,68V1479.91A68.23,68.23,0,0,0,68,1548H842.73l-25.4,222.22H510.28v41h979.44v-41h-307L1157.28,1548H1932a68.25,68.25,0,0,0,68-68.07V256.85A68.24,68.24,0,0,0,1932,188.81ZM1000,234a12,12,0,1,1-12.06,12.06A12,12,0,0,1,1000,234Zm51.33,1335.35c0,28.76-23,47.12-51.33,47.12s-51.31-18.36-51.31-47.12l-1.2-21.39h105Zm-88.8-95.64a37.46,37.46,0,1,1,37.5,37.46A37.46,37.46,0,0,1,962.53,1473.73Zm965.73-61.84H71.9V289.41H1928.26Z" transform="translate(0.5 0.5)"></path></svg> 