<?xml version="1.0" encoding="UTF-8"?> <svg xmlns="http://www.w3.org/2000/svg" viewBox="0 0 200.17 200.75"><defs><style>.cls-1,.cls-2,.cls-3{fill:#fff;}.cls-1{opacity:0;}.cls-2{fill-opacity:0;}</style></defs><g id="Layer_2" data-name="Layer 2"><g id="Layer_1-2" data-name="Layer 1"><g id="svg4"><rect class="cls-1" x="0.17" y="0.75" width="200" height="200"></rect></g><g id="Layer_1-2-2" data-name="Layer 1-2"><g id="svg4-2" data-name="svg4"><rect class="cls-2" width="200" height="200"></rect></g></g><g id="layer1"><g id="g3460"><path id="path3462" class="cls-3" d="M100.17,47.39a53,53,0,1,0,37.48,15.54,52.83,52.83,0,0,0-37.48-15.54m0-6.42a59.44,59.44,0,1,1-59.44,59.45A59.45,59.45,0,0,1,100.17,41"></path></g><g id="g3464"><path id="path3466" class="cls-3" d="M72.06,99.93c0-3.46-2.3-5.43-5.55-5.43h-2v10.87h1.94c3,0,5.61-1.64,5.61-5.44m35.42,3.91L92.81,115.4,79.4,104.84a13,13,0,0,1-12,7.88H55.93V87.15H67.41a12.88,12.88,0,0,1,12,7.9L92.81,84.51l5,3.91L85.49,98.08l2.36,1.85,12.29-9.66,5,3.9-12.29,9.67,2.36,1.86L107.48,96V87.15h8.92v18.11h8.9v7.49H107.48Zm29.12,1.42h8.89v7.49H127.67V87.15h8.93Z"></path></g></g></g></g></svg> 