<?xml version="1.0" encoding="UTF-8"?> <svg xmlns="http://www.w3.org/2000/svg" viewBox="0 0 200 200"><defs><style>.cls-1,.cls-2{fill:#fff;}.cls-1{opacity:0;}.cls-2{fill-rule:evenodd;}</style></defs><g id="Layer_2" data-name="Layer 2"><g id="Layer_1-2" data-name="Layer 1"><g id="Layer_2-2" data-name="Layer 2"><g id="svg4"><rect class="cls-1" width="200" height="200"></rect></g></g><g id="Layer_2-3" data-name="Layer 2"><g id="Layer_1-2-2" data-name="Layer 1-2"><path class="cls-2" d="M24.59,93.51h5.78c1.88,0,3.82.08,5.71.23a8.69,8.69,0,0,1,1.26.18,5.82,5.82,0,0,1,3.13,2,4.87,4.87,0,0,1,1.07,2.17,7.71,7.71,0,0,1,.22,1.44,18.83,18.83,0,0,1-.6,5l-.12.43c-.06.34-.16.64-.23,1s-.26.91-.38,1.39c-.08.28-.15.54-.23.8a73.14,73.14,0,0,1-3.85,10.49,10.2,10.2,0,0,1-2.69,3.49,8.42,8.42,0,0,1-2.75,1.58,8.76,8.76,0,0,1-2.54.41H14.76l9.83-30.54Zm-1.15,25.2c1.41,0,3.22.31,4.52-.41a4.12,4.12,0,0,0,1.53-1.4,10.21,10.21,0,0,0,.74-1.33c.64-1.46,1.09-2.94,1.6-4.45.69-2,1.38-4,2-6.07a19.94,19.94,0,0,0,.68-2.52,7.11,7.11,0,0,0,.1-.79,2.87,2.87,0,0,0-.1-1,2.35,2.35,0,0,0-.29-.67,2.26,2.26,0,0,0-.54-.65,1.31,1.31,0,0,0-.36-.21,8.54,8.54,0,0,0-3.53-.26l-6.36,19.77Zm20.27-5.93,14-18.5H46.83Zm-.14,15.48L66,98.7H58.83L36.41,128.26Zm52.5-25.89a1.1,1.1,0,0,0,0-.54,1.29,1.29,0,0,0-.17-.33,1.38,1.38,0,0,0-.33-.2,1.74,1.74,0,0,0-1.15,0,2.09,2.09,0,0,0-1.14,1.12c-.43.92-.78,1.91-1.14,2.87H86c.11-.46.33-1.11.47-1.56a18.5,18.5,0,0,1,.65-1.9,6.91,6.91,0,0,1,1.25-2.08,6.56,6.56,0,0,1,1.93-1.46,6.76,6.76,0,0,1,2.58-.7h2.65a22.26,22.26,0,0,1,3.26.25,3.84,3.84,0,0,1,2.14,1A4,4,0,0,1,102,101a8.19,8.19,0,0,1-.59,3.83l-6.2,19.2H90.07a26.73,26.73,0,0,0-2.89.47,10.19,10.19,0,0,1-3.44,0,3.1,3.1,0,0,1-.6-.15l-.45-.19a3.64,3.64,0,0,1-2-2.08c-.06-.19-.1-.37-.17-.55a3.1,3.1,0,0,1-.09-.9,4.32,4.32,0,0,1,0-.88q.09-.65.24-1.29c.44-1.75,1-3.35,1.61-5,.19-.56.42-1.08.66-1.62a7.8,7.8,0,0,1,.65-1.16,6.44,6.44,0,0,1,2.81-2.19,7.93,7.93,0,0,1,3.12-.58h4.72l1.76-5.5Zm-3,9.41a11.9,11.9,0,0,0-1.68-.14,2.19,2.19,0,0,0-1.13.26,3.8,3.8,0,0,0-1.51,1.44,10.61,10.61,0,0,0-.84,1.85c-.35,1-.67,1.94-.95,2.92a8.54,8.54,0,0,0-.29,1.29,1.84,1.84,0,0,0,.07.93,1,1,0,0,0,.58.54,1.74,1.74,0,0,0,.56.1,3.3,3.3,0,0,0,1.08-.1,2.5,2.5,0,0,0,1.44-1.27,6.7,6.7,0,0,0,.6-1.37ZM82.56,99.94a3.78,3.78,0,0,0-1.52-2,5.74,5.74,0,0,0-1.14-.56c-.19-.07-.39-.12-.58-.17a8.67,8.67,0,0,0-4.76.32,27.68,27.68,0,0,1-3.58.93,22,22,0,0,1-3.34.12L59.45,124h6.24l6.55-20.26c.07-.24.2-.47.29-.71a3.46,3.46,0,0,1,.32-.52,2.35,2.35,0,0,1,1.35-.87,1.74,1.74,0,0,1,.68-.07,1.35,1.35,0,0,1,.88.55,1.4,1.4,0,0,1,.22,1l-6.72,20.86H75.5l6.85-21.25a4.86,4.86,0,0,0,.36-2.3c0-.19-.09-.37-.15-.56Zm53.63-3.34c2.24,0,4.6.3,6.35,1.88a2.38,2.38,0,0,1,.6.7c.14.28.34.51.47.79a4.83,4.83,0,0,1,.22.64,5.56,5.56,0,0,1,.2,1.08,5.82,5.82,0,0,1-.14,1.55,4.07,4.07,0,0,1-.19.92c0,.06,0,.16,0,.23a67.13,67.13,0,0,1-1.94,7,59.43,59.43,0,0,1-2.82,7.42,10.32,10.32,0,0,1-.71,1.14c-.22.3-.44.53-.68.81a7,7,0,0,1-1.45,1.32c-.25.17-.46.33-.71.48a10.42,10.42,0,0,1-2.83,1.11,10,10,0,0,1-2,.31,11.18,11.18,0,0,1-4.1-.47,9.34,9.34,0,0,1-1.24-.48,3.76,3.76,0,0,1-.87-.55,4.78,4.78,0,0,1-.69-.66,4,4,0,0,1-.4-.58,4.75,4.75,0,0,1-.67-2.37,7.18,7.18,0,0,1,.15-1.78c.21-1,.42-1.88.65-2.86.35-1.38.68-2.66,1.1-4,.61-2,1.23-3.82,2-5.72.27-.68.56-1.33.88-2,.17-.35.34-.69.53-1l.09-.15a2.8,2.8,0,0,0,.2-.32,4.39,4.39,0,0,1,.66-.91,7.49,7.49,0,0,1,1-1,9.34,9.34,0,0,1,3-1.86l.44-.13A13.11,13.11,0,0,1,135,96.7a6.18,6.18,0,0,1,1.21-.1Zm1.86,5h0a1.6,1.6,0,0,0-1.33-1.08,2.41,2.41,0,0,0-1,0,2.7,2.7,0,0,0-.55.24,2.53,2.53,0,0,0-.55.37,2.94,2.94,0,0,0-.6.71,5.66,5.66,0,0,0-.57,1.09l-4.38,13.61a5.57,5.57,0,0,0-.32,2.53,1.21,1.21,0,0,0,.67.78,2.07,2.07,0,0,0,1.47.12,2.66,2.66,0,0,0,1.52-1,7.21,7.21,0,0,0,.71-1.27q.34-.78.63-1.59l4.19-13a3.34,3.34,0,0,0,.11-1.46Zm-37.54,22.24h12.14c4.18,0,8.92-3.6,8.92-10,0-3.1-1.1-4.47-2.57-5.2,2.87-.54,6.17-4.19,6.17-8.49,0-2.87-1.63-6.43-6.64-6.43h-9.22Zm13.54-25.13h2.53c1,0,2.24.7,1.8,3.1a5.37,5.37,0,0,1-4.62,4.36h-1.93L114,98.68Zm-3.63,12.23H113c1,0,2.61.74,2.17,4-.21,1.57-1.65,3.9-3.49,3.9h-3.55ZM155.81,96.6c2.23,0,4.6.3,6.35,1.88a2.57,2.57,0,0,1,.61.7c.15.28.33.51.45.79s.16.42.23.64a4.89,4.89,0,0,1,.19,1.08,6.26,6.26,0,0,1-.14,1.55,3.59,3.59,0,0,1-.19.92c0,.06,0,.16,0,.23a67.13,67.13,0,0,1-1.94,7,58.24,58.24,0,0,1-2.81,7.42c-.22.39-.45.77-.71,1.14s-.44.53-.68.81a7.25,7.25,0,0,1-1.44,1.32c-.26.17-.47.33-.72.48a10.3,10.3,0,0,1-2.83,1.11,10,10,0,0,1-2,.31,11.18,11.18,0,0,1-4.1-.47,9.34,9.34,0,0,1-1.24-.48,3.76,3.76,0,0,1-.87-.55,4.31,4.31,0,0,1-.69-.66,4.6,4.6,0,0,1-.4-.58,4.65,4.65,0,0,1-.67-2.37,6.75,6.75,0,0,1,.16-1.78c.21-1,.4-1.88.65-2.86.34-1.38.67-2.66,1.09-4,.61-2,1.23-3.82,2-5.72.27-.68.55-1.33.88-2,.17-.35.34-.69.53-1l.1-.15.19-.32a5.21,5.21,0,0,1,.65-.91,10,10,0,0,1,1-1,9.39,9.39,0,0,1,3-1.86l.44-.13a12.6,12.6,0,0,1,1.76-.45,6.12,6.12,0,0,1,1.21-.1Zm1.87,5h0a1.61,1.61,0,0,0-1.33-1.08,2.41,2.41,0,0,0-1,0,2.78,2.78,0,0,0-.56.24,2.53,2.53,0,0,0-.55.37,2.66,2.66,0,0,0-.58.71,5.74,5.74,0,0,0-.59,1.09l-4.38,13.61a5.71,5.71,0,0,0-.32,2.53,1.24,1.24,0,0,0,.67.78,2.1,2.1,0,0,0,1.48.12,2.71,2.71,0,0,0,1.51-1,6.87,6.87,0,0,0,.71-1.27c.23-.52.45-1.05.63-1.59l4.2-13a3.5,3.5,0,0,0,.11-1.46Zm8.6,22.24,8.81-30.07h-6.3L160,123.81Zm11.44,0-1.87-13.19,9.44-12.07h-6.7l-8.8,10.74,2.26,14.52ZM32.83,83.89c-2.64-.06-5.57-.16-5.83-4.24,0-.52,0-1.32,0-2.17s0-1.64,0-2.16c.27-4.26,3.37-4.17,5.82-4.23h0c2.73.06,5.48.07,5.75,4.23,0,.52.05,1.33.05,2.17s0,1.64-.05,2.17c-.27,4.07-3.11,4.17-5.75,4.23Zm20.91-.22h3.51V78.92h4v4.74h3.5V71.33h-3.5v4.54h-4V71.33H53.73Zm13.79,0H71V71.34H67.53V83.67ZM14.71,74.42h3.84v9.22H22.2V74.42h3.66V71.34H14.71Zm33.21.76h3.32v-.79c0-2.12-1.22-3.25-4.18-3.3a11.84,11.84,0,0,0-4,.3,3.13,3.13,0,0,0-2.32,3.25c0,1.64.31,3.16,2.05,3.74a15.24,15.24,0,0,0,3,.38c.79,0,2.2-.05,2.2,1.18s-.9,1.18-1.84,1.19c-.69,0-2.11.07-2.11-1.15l0-.45H40.72v.71a3.14,3.14,0,0,0,3,3.52,15,15,0,0,0,5.82-.32c1.44-.53,2-1.83,2-3.47,0-2.16-.6-2.88-1.75-3.45A9.24,9.24,0,0,0,46.37,76c-1.23,0-2.12,0-2.12-1.12a1.07,1.07,0,0,1,1.07-1.12,11.75,11.75,0,0,1,1.57,0,1.15,1.15,0,0,1,1,1v.35Zm32.64-3.84c3.29-.11,3.81,1.82,3.72,3.52a2.49,2.49,0,0,1-1.92,2.34l0,0a2.88,2.88,0,0,1,2.22,3.13c0,2.15-1,3.32-4.33,3.32H73.81V71.34Zm13,10,.67,2.39h3.67L94,71.34H89l-3.8,12.33H88.8l.68-2.32h4ZM32.83,81c2,.07,2.25-.93,2.27-2.29,0-.5,0-.88,0-1.22s0-.72,0-1.22c0-1.36-.31-2.37-2.27-2.31h0c-1.9-.06-2.33.9-2.34,2.31,0,.5,0,.87,0,1.22s0,.72,0,1.22c0,1.36.39,2.36,2.34,2.29Zm44.5-.13h2.3c.76,0,1.28-.28,1.28-1.21,0-.77-.35-1.07-1-1.07H77.32v2.28Zm0-4.68h2.29c.71,0,1.1-.29,1.1-1s-.2-1-1.26-1H77.33v2.08Zm12.89,2.43,1.21-4.22,1.24,4.22Z"></path></g></g></g></g></svg> 