<?xml version="1.0" encoding="UTF-8"?> <svg xmlns="http://www.w3.org/2000/svg" viewBox="0 0 200 200"><defs><style>.cls-1,.cls-2{fill:#fff;}.cls-1{fill-opacity:0;}.cls-2{fill-rule:evenodd;}</style></defs><g id="Layer_2" data-name="Layer 2"><g id="Layer_1-2" data-name="Layer 1"><g id="Layer_1-2-2" data-name="Layer 1-2"><g id="svg4"><rect class="cls-1" width="200" height="200"></rect></g></g><path class="cls-2" d="M70.48,113.3v3.86a17.93,17.93,0,0,0-5.35-1.08,7.81,7.81,0,0,0-2.35.43c-.43.43-.86.86-.86,1.29,0,.64.65,1.29,1.93,1.72l3.85,1.93c3,1.29,4.49,3.21,4.49,5.57a5.7,5.7,0,0,1-2.35,4.72,11.83,11.83,0,0,1-6.42,1.72,17.6,17.6,0,0,1-3.42-.21,22.73,22.73,0,0,1-3.21-.43v-4.08a22.32,22.32,0,0,0,6.2,1.07c2.14,0,3.42-.64,3.42-1.93,0-.64-.64-1.29-1.49-1.71l-4.07-1.72a8.7,8.7,0,0,1-3.42-2.36,6.49,6.49,0,0,1-1.07-3.43,5.07,5.07,0,0,1,2.35-4.5,9.9,9.9,0,0,1,6-1.51,12.78,12.78,0,0,1,2.78.22A12.24,12.24,0,0,1,70.48,113.3ZM81,113.08v20H75v-20Zm19.47,0v3.65h-9v4.5h7.7v3.22h-7.7v4.72h9.2V133H85.45v-20Zm28.23,0v20h-5.77V120l-5.78,13.29h-3.42l-5.78-13.51V133h-4.06v-20h7.49l4.92,12.23,5.34-12.23Zm19.46,0v3.65h-9v4.5h7.92v3.22h-7.92v4.72h9.2V133h-15v-20Zm21.18,0v20h-6.42l-7.06-12.87V133h-4.06v-20h6.42l7.06,12.66V113.08Zm17.54.22v3.86a20.69,20.69,0,0,0-5.56-1.08,6.66,6.66,0,0,0-2.35.43c-.43.43-.86.86-.86,1.29a1.59,1.59,0,0,0,.43,1.07,5,5,0,0,0,1.5.65l3.85,1.93a10.73,10.73,0,0,1,3.42,2.36,5.93,5.93,0,0,1,1.07,3.43,5.32,5.32,0,0,1-2.35,4.5,11.91,11.91,0,0,1-6.42,1.72,16.81,16.81,0,0,1-3.42-.22,21.35,21.35,0,0,1-3.21-.43v-4.29a17.78,17.78,0,0,0,6.2,1.29,3.41,3.41,0,0,0,2.35-.64,1.1,1.1,0,0,0,.86-1.07,2.07,2.07,0,0,0-1.28-1.93L177,124.45a7.31,7.31,0,0,1-3.42-2.36,6,6,0,0,1-1.07-3.43,5.3,5.3,0,0,1,2.35-4.5,9.88,9.88,0,0,1,6-1.51,10.16,10.16,0,0,1,2.57.22,20.73,20.73,0,0,1,3.42.43Z"></path><path class="cls-2" d="M123.74,101.29c-.43-1.08-.85-1.72-2.14-1.72-1.71,0-2.35,1.5-2.35,3,0,1.72.64,3,2.35,3a2.11,2.11,0,0,0,2.14-1.93H125a3.21,3.21,0,0,1-3.43,3.21c-2.35,0-3.64-1.93-3.64-4.29,0-2.14,1.29-4.07,3.64-4.07a3.15,3.15,0,0,1,3.43,2.79Zm6-1.72c1.71,0,2.35,1.5,2.35,3,0,1.72-.64,3-2.35,3s-2.35-1.29-2.35-3C127.38,101.07,128,99.57,129.73,99.57Zm0-1.07a3.89,3.89,0,0,0-3.85,4.07c0,2.36,1.49,4.29,3.85,4.29s3.85-1.93,3.85-4.29a3.89,3.89,0,0,0-3.85-4.07Zm5.13.21h1.93l2.14,6.22,2.13-6.22H143v7.94h-1.28v-6.22l-2.36,6.22h-1.07l-2.13-6.22v6.22h-1.29V98.71Zm11.34,1.07h1.92c.86,0,1.5.22,1.5,1.29s-.85,1.29-1.5,1.29H146.2Zm-1.5,6.87h1.5v-3h1.92c2.36,0,2.79-1.51,2.79-2.58,0-.86-.43-2.36-2.79-2.36H144.7ZM152,98.71h1.29v4.51c0,1.07,0,2.36,1.92,2.36,1.71,0,1.93-1.29,1.93-2.36V98.71h1.28v5.15c0,1.93-1.28,3-3.21,3s-3.21-1.07-3.21-3V98.71Zm7.28,0h6.42V100H163.1v6.65h-1.29V100h-2.56Zm7.27,0h5.77V100H167.8v1.93h4.07v1.29H167.8v2.14h4.49v1.29h-5.77V98.71Zm8.34,1.07h2.35a1.29,1.29,0,1,1,0,2.58h-2.35Zm-1.28,6.87h1.28v-3.22H177c1.07,0,1.5.64,1.5,1.93,0,.43,0,1.07.21,1.29h1.5a4.58,4.58,0,0,1-.43-2.15,1.92,1.92,0,0,0-1.29-1.71,1.78,1.78,0,0,0,1.29-1.93c0-1.29-.86-2.15-2.57-2.15h-3.63v7.94Zm8.55-2.58c0,1.08.86,1.51,2.14,1.51,1.07,0,1.5-.43,1.5-1.08a1,1,0,0,0-.64-1.07c-.43-.21-1.29-.21-2.36-.64a1.85,1.85,0,0,1-1.71-1.93c0-1.5,1.5-2.36,3-2.36a2.71,2.71,0,0,1,3,2.57h-1.5c0-1.07-.64-1.5-1.71-1.5-.64,0-1.28.22-1.28,1.07,0,.65.21.86.86,1.08a12.74,12.74,0,0,1,2.35.64,1.83,1.83,0,0,1,1.5,1.93c0,1.71-1.5,2.57-3.21,2.57s-3.21-.85-3.21-2.78h1.28Z"></path><path class="cls-2" d="M57.22,86.06c0-1.07-.86-2.15-1.71-2.15h7.27c-.86,0-1.71,1.08-1.71,2.15V104.5a2.11,2.11,0,0,0,1.71,2.15H55.51a2.12,2.12,0,0,0,1.71-2.15ZM17.44,95.5h5.13a1.91,1.91,0,0,1,1.92,1.93V93.35h-7V86.27h6.84A1.88,1.88,0,0,1,26.2,88V83.91H11.66a2.12,2.12,0,0,1,1.93,2.15V104.5a2.12,2.12,0,0,1-1.93,2.15h7.49a2,2,0,0,1-1.71-2.15v-9Zm14.75,5.14a4.3,4.3,0,0,0,4.28,4.29,4.49,4.49,0,0,0,4.28-4.5V86.06A2,2,0,0,0,39,83.91h7.48a2.12,2.12,0,0,0-1.92,2.15v14.15c0,4.51-3.64,7.08-8.13,7.08s-8.13-2.57-8.13-7.08V86.06a2,2,0,0,0-1.71-2.15h7.49a2.12,2.12,0,0,0-1.93,2.15v14.58ZM52.94,86.06a2,2,0,0,1,1.71-2.15H47.17a2.12,2.12,0,0,1,1.92,2.15v23.16a9.28,9.28,0,0,1-3.42,6.44s7.27-1.08,7.27-7.94V86.06Zm46.2,14.58a4.29,4.29,0,0,0,4.28,4.29,4.49,4.49,0,0,0,4.28-4.5V86.06c0-1.07-.86-2.15-1.71-2.15h7.27c-.86,0-1.71,1.08-1.71,2.15v14.15c0,4.51-3.64,7.08-8.13,7.08s-8.13-2.57-8.13-7.08V86.06c0-1.07-.85-2.15-1.71-2.15h7.27c-.85,0-1.71,1.08-1.71,2.15v14.58ZM91.66,87.77c-1.07-2.14-4.07-1.93-4.07-1.93-4.49,0-4.28,3.65-4.28,3.65s-.21,1.71,1.93,3l4.7,2.36c4.28,2.58,3.85,6,3.85,6s.22,6.43-9,6.43a14.14,14.14,0,0,1-4.28-.64l-1.28-4.08c1.28,2.15,5.56,2.36,5.56,2.36,5.13-.21,5.13-3.86,5.13-3.86s.22-1.5-1.71-2.57l-4.49-2.58c-4.71-2.57-4.28-6-4.28-6s0-6.44,8.13-6.44c0,0,3.64.22,4.06.65v3.64ZM64.28,83.91,63,88.2a3,3,0,0,1,2.57-1.93h3.85V104.5c0,1.07-.85,2.15-1.71,2.15h7.49a2.12,2.12,0,0,1-1.93-2.15V86.27h3.43A1.89,1.89,0,0,1,78.4,88.2l1.28-4.28H64.28Zm-8.13-7.72a5.36,5.36,0,0,0,3.21,1.29A4.52,4.52,0,0,0,63.85,73a4.39,4.39,0,0,0-4.49-4.51s-3.42-.43-4.92,4.08V69.11a6.3,6.3,0,1,1,4.92,10.08,6.89,6.89,0,0,1-4.49-1.71L52.73,74.9a2.93,2.93,0,0,0-2.35-.85,3.22,3.22,0,0,0,0,6.43s2.56.43,4.06-2.57v2.57a5.29,5.29,0,0,1-4.06,1.93,5.15,5.15,0,0,1,0-10.29A5.13,5.13,0,0,1,54,73.62l2.14,2.57Z"></path></g></g></svg> 