<svg xmlns="http://www.w3.org/2000/svg" viewBox="0 0 32 32"><defs><style>.cls-1{fill:#ff6c2c;}</style></defs><g id="Category_Icons" data-name="Category Icons"><path class="cls-1" d="M22.47949,11.7666a1.50592,1.50592,0,0,0-.48291-.43555L12.17566,5.77466,9.11163,7.4873,20,13.64844v6.38305l3-1.67675V12.97656a1.49682,1.49682,0,0,0-.27832-.87011Z"/><path d="M27.16626,9.87476a.49452.49452,0,0,0-.06128-.1941.484.484,0,0,0-.17-.17016,2.89952,2.89952,0,0,0-.913-.84448l-8.5542-4.78125a3.00077,3.00077,0,0,0-2.93408-.001L11.93262,5.33765l-.001.00024L9.09851,6.92175,5.97607,8.667a2.89381,2.89381,0,0,0-.91143.84375.48522.48522,0,0,0-.16962.16992.49666.49666,0,0,0-.06128.19385A2.83013,2.83013,0,0,0,4.5,11.16992v9.56543a2.88768,2.88768,0,0,0,1.478,2.50293l8.5542,4.78125a2.93827,2.93827,0,0,0,1.12127.33887.49474.49474,0,0,0,.69275.00024,2.9405,2.9405,0,0,0,1.12006-.33813l8.55713-4.78321A2.88657,2.88657,0,0,0,27.5,20.73535V11.169A2.82559,2.82559,0,0,0,27.16626,9.87476ZM15.02344,4.75586a1.99773,1.99773,0,0,1,1.95459.001l8.55371,4.78125a1.92,1.92,0,0,1,.34753.26123L22.895,11.488l-.00824-.01148a1.996,1.996,0,0,0-.644-.581L13.19641,5.7771Zm5.22265,8.457L10.13184,7.49023l.23559-.13183L12.175,6.348l9.57452,5.4176a1.002,1.002,0,0,1,.32276.291l.24218.33984a.9921.9921,0,0,1,.18555.58008v5.085l-2,1.11719V13.64844A.50049.50049,0,0,0,20.24609,13.21289ZM9.11023,8.06128l9.92035,5.61352L16,15.38965,6.12061,9.79932a1.90727,1.90727,0,0,1,.3457-.26026ZM6.46777,22.36621A1.88633,1.88633,0,0,1,5.5,20.73438V11.1709a1.82587,1.82587,0,0,1,.083-.52637L15.5,16.25574v11.0841a1.96968,1.96968,0,0,1-.478-.19238ZM26.5,20.7334a1.88556,1.88556,0,0,1-.96631,1.63183l-8.55713,4.78321A1.979,1.979,0,0,1,16.5,27.34V16.25574l3-1.69739v5.4729a.49922.49922,0,0,0,.5.5.50571.50571,0,0,0,.24414-.06348l3-1.67675A.50186.50186,0,0,0,23.5,18.35449V12.97656a1.9949,1.9949,0,0,0-.10162-.6239l3.0188-1.70813a1.82217,1.82217,0,0,1,.08282.52539Z"/></g></svg>