<svg xmlns="http://www.w3.org/2000/svg" viewBox="0 0 32 32"><defs><style>.cls-1{fill:#ff6c2c;}</style></defs><g id="Category_Icons" data-name="Category Icons"><path class="cls-1" d="M20,13a7,7,0,1,0,7,7A7.00818,7.00818,0,0,0,20,13Zm.5,11a.5.5,0,0,1-1,0V20a.5.5,0,0,1,1,0Zm.18994-6.71a.64331.64331,0,0,1-.16015.24023A.75073.75073,0,0,1,20,17.75a.71642.71642,0,0,1-.29-.06055.78683.78683,0,0,1-.24023-.15918.77656.77656,0,0,1-.15967-.24023.73036.73036,0,0,1,0-.58008.73324.73324,0,0,1,.3999-.40039.75272.75272,0,0,1,.81983.16016.78693.78693,0,0,1,.16015.24023A.74924.74924,0,0,1,20.75,17,.71769.71769,0,0,1,20.68994,17.29Z"/><path d="M7,7.5v1a.5.5,0,0,0,1,0v-1a.5.5,0,0,0-1,0Z"/><path d="M7,14.5v1a.5.5,0,0,0,1,0v-1a.5.5,0,0,0-1,0Z"/><path d="M9,14.5v1a.5.5,0,0,0,1,0v-1a.5.5,0,0,0-1,0Z"/><path d="M17.5,4H5.5A1.50164,1.50164,0,0,0,4,5.5v5a1.48865,1.48865,0,0,0,.39014,1A1.48865,1.48865,0,0,0,4,12.5v5A1.50164,1.50164,0,0,0,5.5,19h5a.5.5,0,0,0,0-1h-5a.50065.50065,0,0,1-.5-.5v-5a.50065.50065,0,0,1,.5-.5h7a.5.5,0,0,0,0-1h-7a.50065.50065,0,0,1-.5-.5v-5A.50065.50065,0,0,1,5.5,5h12a.50065.50065,0,0,1,.5.5v4a.5.5,0,0,0,1,0v-4A1.50164,1.50164,0,0,0,17.5,4Z"/><path d="M20,13.5A6.5,6.5,0,1,1,13.5,20,6.50736,6.50736,0,0,1,20,13.5m0-1A7.5,7.5,0,1,0,27.5,20,7.5,7.5,0,0,0,20,12.5Z"/></g></svg>