<svg xmlns="http://www.w3.org/2000/svg" viewBox="0 0 32 32"><defs><style>.cls-1{fill:#ff6c2c;}</style></defs><g id="Category_Icons" data-name="Category Icons"><path d="M16,28.5A12.5,12.5,0,1,1,28.5,16,12.51408,12.51408,0,0,1,16,28.5Zm0-24A11.5,11.5,0,1,0,27.5,16,11.5131,11.5131,0,0,0,16,4.5Z"/><path class="cls-1" d="M16,4.5A11.5,11.5,0,1,0,27.5,16,11.5,11.5,0,0,0,16,4.5ZM15.5,8a.5.5,0,0,1,1,0v5a.5.5,0,0,1-1,0ZM16,23A7.00315,7.00315,0,0,1,13.84668,9.334a.49969.49969,0,1,1,.30664.95118,6,6,0,1,0,3.69336,0,.49969.49969,0,1,1,.30664-.95118A7.00315,7.00315,0,0,1,16,23Z"/></g></svg>