<svg xmlns="http://www.w3.org/2000/svg" viewBox="0 0 32 32"><defs><style>.cls-1{fill:#ff6c2c;}</style></defs><g id="Category_Icons" data-name="Category Icons"><path class="cls-1" d="M20.5,10.5h-9a1,1,0,0,0-1,1v6h3a1,1,0,0,1,1,1v3h6a1,1,0,0,0,1-1v-9A1,1,0,0,0,20.5,10.5Z"/><path d="M25.5,5h-7A1.50164,1.50164,0,0,0,17,6.5V10H11.5A1.50164,1.50164,0,0,0,10,11.5V17H6.5A1.50164,1.50164,0,0,0,5,18.5v7A1.50164,1.50164,0,0,0,6.5,27h7A1.50164,1.50164,0,0,0,15,25.5V22h5.5A1.50164,1.50164,0,0,0,22,20.5V15h3.5A1.50164,1.50164,0,0,0,27,13.5v-7A1.50164,1.50164,0,0,0,25.5,5ZM6.707,26,14,18.707V21.293L9.293,26ZM6,25.293V22.707L10.707,18H13.293ZM6.5,18H9.293L6,21.293V18.5A.50065.50065,0,0,1,6.5,18Zm7,8H10.707L14,22.707V25.5A.50065.50065,0,0,1,13.5,26ZM21,20.5a.50065.50065,0,0,1-.5.5H15V18.5A1.50164,1.50164,0,0,0,13.5,17H11V11.5a.50065.50065,0,0,1,.5-.5h9a.50065.50065,0,0,1,.5.5Zm5-7a.50065.50065,0,0,1-.5.5H22V11.5A1.50164,1.50164,0,0,0,20.5,10H18V6.5a.50065.50065,0,0,1,.5-.5h7a.50065.50065,0,0,1,.5.5Z"/></g></svg>