<svg xmlns="http://www.w3.org/2000/svg" viewBox="0 0 32 32"><defs><style>.cls-1{fill:#ff6c2c;}</style></defs><g id="Category_Icons" data-name="Category Icons"><polygon class="cls-1" points="23 6.757 23 15.243 27.243 11 23 6.757"/><polygon class="cls-1" points="9 25.243 9 16.757 4.757 21 9 25.243"/><path d="M24,20.5H9.5V16.75781a.5.5,0,0,0-.85352-.35351L4.40381,20.64648a.49981.49981,0,0,0,0,.707L8.64648,25.5957A.49989.49989,0,0,0,9,25.74219a.505.505,0,0,0,.19141-.03809A.49947.49947,0,0,0,9.5,25.24219V21.5H24a.5.5,0,0,0,0-1ZM8.5,24.03516,5.46436,21,8.5,17.96484Z"/><path d="M27.59619,10.64648,23.35352,6.4043A.5.5,0,0,0,22.5,6.75781V10.5H8a.5.5,0,0,0,0,1H22.5v3.74219a.49947.49947,0,0,0,.30859.46191A.505.505,0,0,0,23,15.74219a.49989.49989,0,0,0,.35352-.14649l4.24267-4.24218a.49981.49981,0,0,0,0-.707ZM23.5,14.03516V7.96484L26.53564,11Z"/></g></svg>