<svg xmlns="http://www.w3.org/2000/svg" viewBox="0 0 32 32"><defs><style>.cls-1{fill:#ff6c2c;}</style></defs><g id="Category_Icons" data-name="Category Icons"><polygon class="cls-1" points="27 8 27 14 21 14 27 8"/><polygon class="cls-1" points="5 24 5 18 11 18 5 24"/><path d="M24.65723,18.53027a.5.5,0,0,0-.63819.30469,8.56185,8.56185,0,0,1-2.00439,3.17676A8.44406,8.44406,0,0,1,16.00586,24.5h-.00244a8.45037,8.45037,0,0,1-6.021-2.502L8.81036,20.89673l2.54316-2.54321A.5.5,0,0,0,11,17.5H5a.49971.49971,0,0,0-.5.5v6a.49946.49946,0,0,0,.30859.46191A.505.505,0,0,0,5,24.5a.49992.49992,0,0,0,.35352-.14648L8.10315,21.604l1.18347,1.11182A9.43861,9.43861,0,0,0,16.00342,25.5h.00244a9.43519,9.43519,0,0,0,6.71582-2.78125,9.55914,9.55914,0,0,0,2.23975-3.5498A.5004.5004,0,0,0,24.65723,18.53027ZM5.5,18.5H9.793L5.5,22.793Z"/><path d="M27.19141,7.53809a.49945.49945,0,0,0-.54493.10839l-2.751,2.751L22.71338,9.28711a9.54473,9.54473,0,0,0-3.54981-2.24023,9.49877,9.49877,0,0,0-12.125,5.7871.49991.49991,0,1,0,.94239.334A8.49826,8.49826,0,0,1,18.83008,7.99023a8.56583,8.56583,0,0,1,3.1875,2.01465l1.17065,1.09986-2.54175,2.54174A.5.5,0,0,0,21,14.5h6a.49971.49971,0,0,0,.5-.5V8A.49946.49946,0,0,0,27.19141,7.53809ZM26.5,13.5H22.207L26.5,9.207Z"/></g></svg>