<svg xmlns="http://www.w3.org/2000/svg" viewBox="0 0 32 32"><defs><style>.cls-1{fill:#ff6c2c;}</style></defs><g id="Category_Icons" data-name="Category Icons"><path class="cls-1" d="M9.30007,15.61875,11.968,18.28669a.5245.5245,0,0,0,.74177,0l2.45206-2.45206c.01457-.01457,5.32032,5.31148,6.50749,6.50548a.47736.47736,0,0,0,.67791-.00168l1.36423-1.36423a.47736.47736,0,0,0,.00168-.67791c-1.194-1.18717-6.52-6.49292-6.50548-6.50749l2.84759-2.84759a.52451.52451,0,0,0-.17582-.85778l-3.80958-1.5263a.52452.52452,0,0,0-.566.116L9.30007,14.877A.52452.52452,0,0,0,9.30007,15.61875Z"/><path d="M17.90918,13.794l2.5-2.499a1.02505,1.02505,0,0,0-.34375-1.67578L16.25586,8.09375a1.02423,1.02423,0,0,0-1.10547.22559l-6.20361,6.2041a1.02615,1.02615,0,0,0,0,1.44922l2.66845,2.66894a1.02766,1.02766,0,0,0,1.44825-.001L15.167,16.53711c1.12256,1.11035,4.729,4.72949,6.148,6.15527a.96983.96983,0,0,0,.68994.28809h.002a.97811.97811,0,0,0,.69384-.28809l1.36475-1.36426a.97914.97914,0,0,0,.28809-.69726.96739.96739,0,0,0-.2876-.68945C22.92871,18.81152,19.06543,14.96289,17.90918,13.794Zm4.11475,8.19335C15.40479,15.335,15.40479,15.335,15.16211,15.335h-.00049a.50049.50049,0,0,0-.35351.14649l-2.48682,2.45214-2.66748-2.668v-.03515l6.23-6.209,3.81787,1.56641L16.854,13.43555a.49785.49785,0,0,0-.14648.35449c.00049.251.00049.251,6.65039,6.83105Z"/><path d="M28.5,12H27.31a9.99706,9.99706,0,0,0-.47-1.17993L27.67,9.99V8.57983l-4.25-4.25H22.01l-.83.83008a10.03228,10.03228,0,0,0-1.17993-.47V3.5l-1-1H13l-1,1V4.68994a10.029,10.029,0,0,0-1.18.47l-.83-.83008H8.58008l-4.25,4.25V9.99l.82989.83008A9.99706,9.99706,0,0,0,4.69,12H3.5l-1,1v6l1,1H4.69a9.99706,9.99706,0,0,0,.47,1.17993L4.33008,22.01v1.40991l4.25,4.25H9.99l.83-.83008a9.98735,9.98735,0,0,0,1.18.47022V28.5l1,1h6.00006l1-1V27.31006A9.99058,9.99058,0,0,0,21.18,26.83984l.83.83008h1.41l4.25-4.25V22.01l-.83-.83008A9.99706,9.99706,0,0,0,27.31,20H28.5l1-1V13Zm0,6.58569L28.08582,19H27.31a.99983.99983,0,0,0-.951.69092,8.96017,8.96017,0,0,1-.42267,1.06079,1,1,0,0,0,.19653,1.13525l.53711.53711v.58155l-3.66424,3.6643h-.58148l-.53711-.53711a.99977.99977,0,0,0-1.1355-.19653,8.94047,8.94047,0,0,1-1.061.42285,1,1,0,0,0-.69061.95093v.77563L18.58582,28.5H13.41418L13,28.08569v-.77563a1,1,0,0,0-.69061-.95093,8.93708,8.93708,0,0,1-1.061-.42285.99987.99987,0,0,0-1.13556.19653l-.53711.53711H8.99426l-3.66418-3.6643v-.58155l.53711-.53711a1.0001,1.0001,0,0,0,.19647-1.13525A8.96017,8.96017,0,0,1,5.641,19.69092.99983.99983,0,0,0,4.69,19H3.91418L3.5,18.58569V13.41431L3.91418,13H4.69a.99983.99983,0,0,0,.951-.69092,8.96017,8.96017,0,0,1,.42267-1.06079A1.0001,1.0001,0,0,0,5.86719,10.113l-.53711-.53711V8.99414L8.99426,5.32983h.58148l.53711.53711a.99993.99993,0,0,0,1.13507.19678,8.9771,8.9771,0,0,1,1.06147-.42285A1,1,0,0,0,13,4.68994V3.91431L13.41418,3.5h5.17164l.41424.41431v.77563a1,1,0,0,0,.69061.95093,8.98529,8.98529,0,0,1,1.06147.42285.99983.99983,0,0,0,1.135-.19678l.53711-.53711h.58148L26.67,8.99414v.58179l-.53711.53711a1,1,0,0,0-.19653,1.13525,8.96017,8.96017,0,0,1,.42267,1.06079A.99983.99983,0,0,0,27.31,13h.77582l.41418.41431Z"/></g></svg>