<svg xmlns="http://www.w3.org/2000/svg" viewBox="0 0 32 32"><defs><style>.cls-1{fill:#ff6c2c;}</style></defs><g id="Category_Icons" data-name="Category Icons"><circle class="cls-1" cx="6.5" cy="22.5" r="2"/><circle class="cls-1" cx="16" cy="25.5" r="2"/><circle class="cls-1" cx="25.5" cy="22.5" r="2"/><path d="M10.76074,17H21.23926a1.31294,1.31294,0,0,0,.999-.45312,1.08781,1.08781,0,0,0,.2461-.88575C22.19141,13.99023,20.82861,12,16,12s-6.19141,1.99023-6.48438,3.66113a1.08781,1.08781,0,0,0,.2461.88575A1.31294,1.31294,0,0,0,10.76074,17ZM16,13c2.28223,0,5.08838.49121,5.47266,2.90332A.30567.30567,0,0,1,21.23926,16H10.76074a.279.279,0,0,1-.25976-.167C10.91162,13.49121,13.71777,13,16,13Z"/><path d="M16,11.09961a3.5,3.5,0,1,0-3.5-3.5A3.50424,3.50424,0,0,0,16,11.09961Zm0-6a2.5,2.5,0,1,1-2.5,2.5A2.50263,2.50263,0,0,1,16,5.09961Z"/><path d="M25.5,20a2.49106,2.49106,0,0,0-1.759.72638L21.27734,19.084A.50053.50053,0,0,0,21,19H11a.50053.50053,0,0,0-.27734.084L8.25885,20.72626a2.52225,2.52225,0,1,0,.554.83246L11.15137,20H15.5v3.05054a2.5,2.5,0,1,0,1,0V20h4.34863l2.33844,1.559A2.49809,2.49809,0,1,0,25.5,20Zm-19,4A1.5,1.5,0,1,1,8,22.5,1.50164,1.50164,0,0,1,6.5,24Zm11,1.5A1.5,1.5,0,1,1,16,24,1.50164,1.50164,0,0,1,17.5,25.5Zm8-1.5A1.5,1.5,0,1,1,27,22.5,1.50164,1.50164,0,0,1,25.5,24Z"/></g></svg>