<svg xmlns="http://www.w3.org/2000/svg" viewBox="0 0 32 32"><defs><style>.cls-1{fill:#ff6c2c;}</style></defs><g id="Category_Icons" data-name="Category Icons"><polygon class="cls-1" points="10.25 13.05 12.75 13.05 11.5 10.05 10.25 13.05"/><path class="cls-1" d="M11.5,5c-4.97052,0-9,3.00861-9,6.72a5.83167,5.83167,0,0,0,2.21179,4.40326l-.03033-.01837L3.625,19l3.52332-1.39685-.01447-.00885A11.40952,11.40952,0,0,0,11.5,18.44c4.97058,0,9-3.00866,9-6.72S16.47058,5,11.5,5Zm2.69238,10.21191A.51358.51358,0,0,1,14,15.25a.49909.49909,0,0,1-.46143-.30762l-.37188-.89258H9.83331l-.37188.89258a.49993.49993,0,1,1-.92286-.38476l2.5-6a.52039.52039,0,0,1,.92286,0l2.5,6A.50031.50031,0,0,1,14.19238,15.21191Z"/><path d="M28.5,14H22.73535a.5.5,0,1,0,0,1H28.5a.50065.50065,0,0,1,.5.5v9a.50065.50065,0,0,1-.5.5h-.897a.49971.49971,0,0,0-.5.5v1.002l-2.249-1.4248A.5076.5076,0,0,0,24.58643,25H15.5a.50065.50065,0,0,1-.5-.5V20.417a.5.5,0,0,0-1,0V24.5A1.50164,1.50164,0,0,0,15.5,26h8.94141l2.894,1.833a.50305.50305,0,0,0,.50879.01562.50025.50025,0,0,0,.25879-.43847V26H28.5A1.50164,1.50164,0,0,0,30,24.5v-9A1.50164,1.50164,0,0,0,28.5,14Z"/><path d="M19.5,18.333a.49971.49971,0,0,0,.5.5h2.96a3.9224,3.9224,0,0,1-.93439,2.21045,3.97128,3.97128,0,0,1-.77752-1.36377.49983.49983,0,1,0-.94629.32226,4.96806,4.96806,0,0,0,.94867,1.66706A2.58144,2.58144,0,0,1,20,22a.5.5,0,0,0,0,1,3.59,3.59,0,0,0,2.02307-.64374A3.47113,3.47113,0,0,0,24,23a.5.5,0,0,0,0-1,2.43309,2.43309,0,0,1-1.18866-.32343A4.96534,4.96534,0,0,0,23.958,18.833H24a.5.5,0,0,0,0-1H22.5V17.5a.5.5,0,0,0-1,0v.333H20A.49971.49971,0,0,0,19.5,18.333Z"/><path d="M21,11.71973C21,7.73828,16.73828,4.5,11.5,4.5S2,7.73828,2,11.71973a6.23227,6.23227,0,0,0,2.09863,4.52343l-.94336,2.585a.50006.50006,0,0,0,.65381.63672l3.34131-1.32422A12.05127,12.05127,0,0,0,11.5,18.94043C16.73828,18.94043,21,15.70117,21,11.71973Zm-9.5,6.2207a10.974,10.974,0,0,1-4.17432-.80762.48585.48585,0,0,0-.45459.043L4.47656,18.125l.60938-1.66992a.39871.39871,0,0,0,.03027-.03809.49905.49905,0,0,0-.07861-.67285A5.35676,5.35676,0,0,1,3,11.71973C3,8.29,6.813,5.5,11.5,5.5S20,8.29,20,11.71973,16.187,17.94043,11.5,17.94043Z"/></g></svg>