<svg xmlns="http://www.w3.org/2000/svg" viewBox="0 0 32 32"><defs><style>.cls-1{fill:#ff6c2c;}</style></defs><g id="Category_Icons" data-name="Category Icons"><path class="cls-1" d="M22.5,15.5a5.73871,5.73871,0,0,0-5.75,5.72729C16.75,25.68164,22.5,29.5,22.5,29.5s5.75-3.81836,5.75-8.27271A5.73867,5.73867,0,0,0,22.5,15.5Zm0,7.63623a1.90907,1.90907,0,1,1,1.91669-1.90894A1.91268,1.91268,0,0,1,22.5,23.13623Z"/><path d="M16,2A13.98186,13.98186,0,0,0,2.69275,20.32837a.48479.48479,0,0,0,.03638.09936A14.01607,14.01607,0,0,0,16,30a14.21694,14.21694,0,0,0,2.53467-.22852.50032.50032,0,0,0-.17969-.98437A13.12006,13.12006,0,0,1,16,29c-2.75494,0-5.10931-3.45166-6.05383-8.30176H13.8335a.5.5,0,0,0,0-1H9.77167a25.05965,25.05965,0,0,1-.07129-6.84277h18.899A12.94154,12.94154,0,0,1,29,16a.5.5,0,0,0,1,0A14.01572,14.01572,0,0,0,16,2ZM12.63086,3.4585c-1.82538,1.67773-3.21143,4.68359-3.80756,8.397H3.68921A13.03666,13.03666,0,0,1,12.63086,3.4585Zm0,25.083a13.03612,13.03612,0,0,1-8.73859-7.84326H8.92621C9.56708,24.15454,10.89807,26.94873,12.63086,28.5415ZM8.76324,19.69824H3.54333a12.71073,12.71073,0,0,1-.1427-6.84277h5.288A26.64946,26.64946,0,0,0,8.5,16,26.34556,26.34556,0,0,0,8.76324,19.69824ZM16,3c2.76819,0,5.25641,3.61768,6.15112,8.85547H9.84467C10.71246,6.71582,13.14111,3,16,3Zm7.165,8.85547c-.616-3.77466-2.00122-6.74292-3.79682-8.39722a13.03611,13.03611,0,0,1,8.94263,8.39722Z"/><path d="M22.5,15a6.246,6.246,0,0,0-6.25,6.22754c0,4.66894,5.72949,8.52734,5.97363,8.68945a.50157.50157,0,0,0,.55274,0c.24414-.16211,5.97363-4.02051,5.97363-8.68945A6.246,6.246,0,0,0,22.5,15Zm0,13.8877c-1.11963-.81641-5.25-4.07129-5.25-7.66016a5.25,5.25,0,0,1,10.5,0C27.75,24.81641,23.61963,28.07129,22.5,28.8877Z"/><path d="M22.5,18.81836a2.40919,2.40919,0,1,0,2.4165,2.40918A2.41573,2.41573,0,0,0,22.5,18.81836Zm0,3.81836a1.4092,1.4092,0,1,1,1.4165-1.40918A1.41413,1.41413,0,0,1,22.5,22.63672Z"/></g></svg>