<svg xmlns="http://www.w3.org/2000/svg" viewBox="0 0 32 32"><defs><style>.cls-1{fill:#ff6c2c;}</style></defs><g id="Category_Icons" data-name="Category Icons"><path class="cls-1" d="M25.96045,6H6.03333A1.5359,1.5359,0,0,0,4.5,7.53857v4.30762a3.83337,3.83337,0,1,0,7.66669,0,3.83336,3.83336,0,1,0,7.66668,0,3.83334,3.83334,0,1,0,7.66663,0V7.54468A1.54216,1.54216,0,0,0,25.96045,6Z"/><path d="M25.96045,5.5H6.0332A2.03866,2.03866,0,0,0,4,7.53906V11.8457a4.32432,4.32432,0,0,0,1.563,3.314.48867.48867,0,0,0-.02979.14795v9.16015A2.0321,2.0321,0,0,0,7.56006,26.5H24.42871a2.04242,2.04242,0,0,0,2.03809-2.043V15.30762a.48867.48867,0,0,0-.02979-.14795A4.32432,4.32432,0,0,0,28,11.8457V7.54492A2.04439,2.04439,0,0,0,25.96045,5.5ZM25.4668,24.457A1.04174,1.04174,0,0,1,24.42871,25.5H7.56006A1.03049,1.03049,0,0,1,6.5332,24.46777V15.7876a4.27869,4.27869,0,0,0,1.8003.40478,4.334,4.334,0,0,0,3.833-2.32129,4.32607,4.32607,0,0,0,7.667,0,4.334,4.334,0,0,0,3.833,2.32129,4.27869,4.27869,0,0,0,1.8003-.40478ZM27,11.8457a3.33328,3.33328,0,1,1-6.6665,0l-.00116-.00586.00116-.00586v-2a.5.5,0,0,0-1,0v2l.00116.00586-.00116.00586a3.33353,3.33353,0,1,1-6.667,0l-.00116-.00586.00116-.00586v-2a.5.5,0,0,0-1,0v2l.00116.00586-.00116.00586a3.33328,3.33328,0,1,1-6.6665,0V7.53906A1.03705,1.03705,0,0,1,6.0332,6.5H25.96045A1.04341,1.04341,0,0,1,27,7.54492Z"/></g></svg>