<svg xmlns="http://www.w3.org/2000/svg" viewBox="0 0 32 32"><defs><style>.cls-1{fill:#ff6c2c;}</style></defs><g id="Category_Icons" data-name="Category Icons"><path class="cls-1" d="M23.37061,18.25781a.50109.50109,0,0,1-.44727-.27636l-3.46-6.91993L15.84473,21.916a.50087.50087,0,0,1-.43848.34082c-.01221.001-.02393.001-.03564.001a.50041.50041,0,0,1-.44727-.27636L11.33057,14.7959,8.79932,19.01465a.49844.49844,0,0,1-.42871.24316h-2.349a10.49505,10.49505,0,0,0,20.22863-1Z"/><path d="M29,17.25781H26.92249a10.99758,10.99758,0,1,0-21.68732,1H3a.5.5,0,0,0,0,1H5.49286a10.99979,10.99979,0,0,0,21.272-1H29a.5.5,0,0,0,0-1ZM6,16a10.00023,10.00023,0,1,1,19.91205,1.25781H23.67969L19.81787,9.53418a.49373.49373,0,0,0-.48291-.27539.50085.50085,0,0,0-.43848.34082L15.27783,20.4541l-3.46-6.91992a.50206.50206,0,0,0-.42822-.27637.49656.49656,0,0,0-.44776.24317L8.0874,18.25781H6.26666A9.9641,9.9641,0,0,1,6,16ZM16,26a10.00963,10.00963,0,0,1-9.44421-6.74219H8.37061a.49844.49844,0,0,0,.42871-.24316l2.53125-4.21875,3.59277,7.18555a.50041.50041,0,0,0,.44727.27636c.01171,0,.02343,0,.03564-.001a.50087.50087,0,0,0,.43848-.34082l3.61865-10.8545,3.46,6.91993a.50109.50109,0,0,0,.44727.27636h2.36273A10.011,10.011,0,0,1,16,26Z"/></g></svg>