<svg xmlns="http://www.w3.org/2000/svg" viewBox="0 0 32 32"><defs><style>.cls-1{fill:#ff6c2c;}</style></defs><g id="Category_Icons" data-name="Category Icons"><path class="cls-1" d="M10.59683,2.48306h3.00608a.64716.64716,0,0,1,.64716.64716V21.26044a.64716.64716,0,0,1-.64716.64716H10.59683a0,0,0,0,1,0,0V2.48306A0,0,0,0,1,10.59683,2.48306Z" transform="translate(12.58475 29.60343) rotate(-135)"/><path d="M27.85352,23.78027l-3.19233-3.19189A10.02279,10.02279,0,0,0,23.15527,8.58887L19.01514,4.44824a1.56508,1.56508,0,0,0-2.1626,0L14.93079,6.37012,13.26807,4.707a.49995.49995,0,1,0-.707.707l1.66271,1.66309-7.14648,7.147-1.66272-1.6626a.49995.49995,0,0,0-.707.707L6.3703,14.9314l-1.923,1.92309a1.53011,1.53011,0,0,0,.0039,2.166L8.59229,23.1543A9.70725,9.70725,0,0,0,15.52344,26c.062,0,.124,0,.186-.002a10.31426,10.31426,0,0,0,4.88373-1.332l3.18756,3.1875a.49995.49995,0,1,0,.707-.707l-3.027-3.02685a10.77379,10.77379,0,0,0,1.44982-1.20947,10.63711,10.63711,0,0,0,1.20594-1.4524l3.0299,3.02954a.49995.49995,0,1,0,.707-.707ZM5,17.93652a.52541.52541,0,0,1,.15479-.375L7.4306,15.28564l.00055-.00048.00037-.00049L17.56006,5.15527a.52753.52753,0,0,1,.74756,0l1.60449,1.6045L6.7597,19.91211,5.15625,18.31152A.52715.52715,0,0,1,5,17.93652Zm17.20361,4.2666a9.41942,9.41942,0,0,1-6.51172,2.7959,8.83494,8.83494,0,0,1-6.39257-2.55175l-1.832-1.82862L20.61914,7.4668l1.8291,1.8291A9.14461,9.14461,0,0,1,22.20361,22.20312Z"/></g></svg>