<svg xmlns="http://www.w3.org/2000/svg" viewBox="0 0 32 32"><defs><style>.cls-1{fill:#ff6c2c;}</style></defs><g id="Category_Icons" data-name="Category Icons"><path class="cls-1" d="M23.61233,27.5H11.38767a.84916.84916,0,0,1-.87777-.94066C11.0042,23.53787,13.94548,22.5,17.5,22.5s6.4958,1.03787,6.9901,4.05934A.84916.84916,0,0,1,23.61233,27.5Z"/><circle class="cls-1" cx="17.5" cy="16.5" r="3.5"/><path d="M17.5,22c-5.5791,0-7.14941,2.43555-7.48389,4.47852a1.27045,1.27045,0,0,0,.29248,1.02734A1.40888,1.40888,0,0,0,11.3877,28H23.6123a1.40888,1.40888,0,0,0,1.07911-.49414,1.27045,1.27045,0,0,0,.29248-1.02734C24.64941,24.43555,23.0791,22,17.5,22Zm6.4292,4.8584A.417.417,0,0,1,23.6123,27H11.3877a.417.417,0,0,1-.3169-.1416.26542.26542,0,0,1-.06738-.21778C11.39844,24.22461,13.58447,23,17.5,23s6.10156,1.22461,6.49658,3.64062A.26542.26542,0,0,1,23.9292,26.8584Z"/><path d="M22.58307,20.21027a6.60365,6.60365,0,0,0-.46246-8.04621.50021.50021,0,1,0-.74122.67188,5.578,5.578,0,0,1,0,7.32812.48166.48166,0,0,0,.47175.81494C24.9314,22.08661,27,24.70038,27,27.49121a.5.5,0,0,0,1,0A8.18155,8.18155,0,0,0,22.58307,20.21027Z"/><path d="M17.5,20.5a4,4,0,1,0-4-4A4.00427,4.00427,0,0,0,17.5,20.5Zm0-7a3,3,0,1,1-3,3A3.00328,3.00328,0,0,1,17.5,13.5Z"/><path d="M7,7.5v1a.5.5,0,0,0,1,0v-1a.5.5,0,0,0-1,0Z"/><path d="M7,14.5v1a.5.5,0,0,0,1,0v-1a.5.5,0,0,0-1,0Z"/><path d="M9,14.5v1a.5.5,0,0,0,1,0v-1a.5.5,0,0,0-1,0Z"/><path d="M17.5,4H5.5A1.50164,1.50164,0,0,0,4,5.5v5a1.48854,1.48854,0,0,0,.39014,1A1.48854,1.48854,0,0,0,4,12.5v5A1.50164,1.50164,0,0,0,5.5,19h5a.5.5,0,0,0,0-1h-5a.50065.50065,0,0,1-.5-.5v-5a.50065.50065,0,0,1,.5-.5h7a.5.5,0,0,0,0-1h-7a.50065.50065,0,0,1-.5-.5v-5A.50065.50065,0,0,1,5.5,5h12a.50065.50065,0,0,1,.5.5v4a.5.5,0,0,0,1,0v-4A1.50164,1.50164,0,0,0,17.5,4Z"/></g></svg>