<svg xmlns="http://www.w3.org/2000/svg" viewBox="0 0 32 32"><defs><style>.cls-1{fill:#ff6c2c;}</style></defs><g id="Category_Icons" data-name="Category Icons"><path class="cls-1" d="M14.38089,12.17027a.73669.73669,0,0,1,0,1.03131l-1.17855,1.17864a.73655.73655,0,0,1-1.03123,0l-2.777-2.77717a4.41969,4.41969,0,0,0,5.84855,5.849l5.08985,5.09025a1.56261,1.56261,0,1,0,2.20978-2.20994L17.45248,15.2421a4.41968,4.41968,0,0,0-5.84854-5.849l2.76959,2.76981Z"/><path d="M18.0415,15.124A4.91973,4.91973,0,0,0,11.398,8.93848a.49962.49962,0,0,0-.14746.80859l2.77588,2.77539a.23442.23442,0,0,1,.001.3252l-1.17578,1.17578a.236.236,0,0,1-.32715.00293L9.74756,11.25a.50894.50894,0,0,0-.44336-.13867.50114.50114,0,0,0-.36572.28613,4.92026,4.92026,0,0,0,6.186,6.64356L19.979,22.89551a2.06263,2.06263,0,1,0,2.917-2.917ZM22.189,22.18848a1.06447,1.06447,0,0,1-1.50292,0l-5.08985-5.08985a.49988.49988,0,0,0-.35351-.14648.49323.49323,0,0,0-.20606.04492A3.92013,3.92013,0,0,1,9.606,12.52246l2.21484,2.21387a1.24221,1.24221,0,0,0,1.73486-.00293l1.18213-1.18164a1.244,1.244,0,0,0,.00049-1.73145l-.01123-.01074-2.20361-2.2041a3.91979,3.91979,0,0,1,4.47363,5.43066.50006.50006,0,0,0,.102.55957L22.189,20.68555A1.06446,1.06446,0,0,1,22.189,22.18848Z"/><path d="M28.5376,18.38281a.7966.7966,0,0,1-.43018-.78808,11.23366,11.23366,0,0,0,0-3.18946.7966.7966,0,0,1,.43018-.78808,1.84844,1.84844,0,0,0,.90039-1.14356,1.79756,1.79756,0,0,0-.19873-1.40332L27.04248,7.41406a1.94708,1.94708,0,0,0-2.60742-.66992.89746.89746,0,0,1-.9668-.04394,12.36876,12.36876,0,0,0-2.85937-1.59571.80584.80584,0,0,1-.50244-.749A1.88482,1.88482,0,0,0,18.19727,2.5H13.80273a1.88564,1.88564,0,0,0-1.90918,1.85645.80626.80626,0,0,1-.50341.749A12.35591,12.35591,0,0,0,8.53125,6.7002a.9047.9047,0,0,1-.97412.03906A1.95385,1.95385,0,0,0,4.95459,7.417L2.76074,11.07031A1.79756,1.79756,0,0,0,2.562,12.47363a1.84844,1.84844,0,0,0,.90039,1.14356.7966.7966,0,0,1,.43018.78808,11.23366,11.23366,0,0,0,0,3.18946.7966.7966,0,0,1-.43018.78808A1.84844,1.84844,0,0,0,2.562,19.52637a1.79756,1.79756,0,0,0,.19873,1.40332l2.19678,3.65625a1.94744,1.94744,0,0,0,2.60742.66992.90118.90118,0,0,1,.9668.04394,12.36876,12.36876,0,0,0,2.85937,1.59571.80584.80584,0,0,1,.50244.749A1.88482,1.88482,0,0,0,13.80273,29.5h4.39454a1.88564,1.88564,0,0,0,1.90918-1.85645.80626.80626,0,0,1,.50341-.749,12.35591,12.35591,0,0,0,2.85889-1.59473.91.91,0,0,1,.97607-.03808A1.95172,1.95172,0,0,0,27.044,24.585l2.19531-3.65527a1.79756,1.79756,0,0,0,.19873-1.40332A1.84844,1.84844,0,0,0,28.5376,18.38281Zm-.15576,2.03125-2.19532,3.65625a.94111.94111,0,0,1-1.2666.31055,1.89788,1.89788,0,0,0-2.05029.11816,11.302,11.302,0,0,1-2.626,1.46485,1.8146,1.8146,0,0,0-1.1372,1.68066.88449.88449,0,0,1-.90918.85547H13.80273a.88464.88464,0,0,1-.90918-.85645,1.81253,1.81253,0,0,0-1.13623-1.67871A11.31434,11.31434,0,0,1,9.13086,24.499a1.83689,1.83689,0,0,0-1.10352-.3623,1.98323,1.98323,0,0,0-.95947.251.93673.93673,0,0,1-1.25293-.31641L3.61816,20.41406a.80472.80472,0,0,1-.09033-.6289.85457.85457,0,0,1,.41992-.52735,1.78011,1.78011,0,0,0,.93506-1.80566,10.19017,10.19017,0,0,1,0-2.9043,1.78011,1.78011,0,0,0-.93506-1.80566.85457.85457,0,0,1-.41992-.52735.80472.80472,0,0,1,.09033-.6289L5.812,7.93262a.95467.95467,0,0,1,1.26807-.31348A1.89378,1.89378,0,0,0,9.13037,7.501a11.302,11.302,0,0,1,2.626-1.46485,1.8146,1.8146,0,0,0,1.1372-1.68066A.88449.88449,0,0,1,13.80273,3.5h4.39454a.88464.88464,0,0,1,.90918.85645,1.81253,1.81253,0,0,0,1.13623,1.67871A11.31434,11.31434,0,0,1,22.86914,7.501a1.89836,1.89836,0,0,0,2.063.11132.93476.93476,0,0,1,1.25293.31641l2.19678,3.65723a.80472.80472,0,0,1,.09033.6289.85457.85457,0,0,1-.41992.52735,1.78011,1.78011,0,0,0-.93506,1.80566,10.19017,10.19017,0,0,1,0,2.9043,1.78011,1.78011,0,0,0,.93506,1.80566.85457.85457,0,0,1,.41992.52735A.80472.80472,0,0,1,28.38184,20.41406Z"/></g></svg>