<svg xmlns="http://www.w3.org/2000/svg" viewBox="0 0 32 32"><defs><style>.cls-1{fill:#ff6c2c;}</style></defs><g id="Category_Icons" data-name="Category Icons"><polyline class="cls-1" points="8.5 11 7.5 16.5 10.5 14 13.5 16.5 12.5 11"/><circle class="cls-1" cx="10.5" cy="8" r="3.5"/><path d="M13.17969,16.88379a.49991.49991,0,0,0,.812-.47363l-.96936-5.3313a4.00008,4.00008,0,1,0-5.04468,0l-.96936,5.3313a.49991.49991,0,0,0,.812.47363L10.5,14.65039ZM7.5,8a3,3,0,1,1,3,3A3.00328,3.00328,0,0,1,7.5,8Zm.73828,7.2334L8.88892,11.655a3.93452,3.93452,0,0,0,3.22216,0l.65064,3.57837-1.94141-1.61719a.50115.50115,0,0,0-.64062,0Z"/><path d="M21.5,22h-8a.5.5,0,0,0,0,1h8a.5.5,0,0,0,0-1Z"/><path d="M24.5,7h-8a.5.5,0,0,0,0,1H24V27H11V18.5a.5.5,0,0,0-1,0v9a.49971.49971,0,0,0,.5.5h14a.49971.49971,0,0,0,.5-.5V7.5A.49971.49971,0,0,0,24.5,7Z"/><path d="M15.5,18h6a.5.5,0,0,0,0-1h-6a.5.5,0,0,0,0,1Z"/><path d="M15.5,13h2a.5.5,0,0,0,0-1h-2a.5.5,0,0,0,0,1Z"/></g></svg>