<svg xmlns="http://www.w3.org/2000/svg" viewBox="0 0 32 32"><defs><style>.cls-1{fill:#ff6c2c;}</style></defs><g id="Category_Icons" data-name="Category Icons"><polygon class="cls-1" points="8.778 27.377 10.756 23.523 7.531 20.244 4.013 22.724 8.778 27.377"/><polygon class="cls-1" points="27.967 22.701 24.075 20.691 20.791 23.913 23.309 27.463 27.967 22.701"/><polygon class="cls-1" points="22.657 3.995 20.679 7.849 23.903 11.128 27.422 8.648 22.657 3.995"/><polygon class="cls-1" points="4.383 8.89 8.049 10.707 11.311 7.468 9.017 4.109 4.383 8.89"/><path d="M16,2A14,14,0,1,0,30,16,14.01572,14.01572,0,0,0,16,2Zm0,23a9,9,0,1,1,9-9A9.01016,9.01016,0,0,1,16,25Zm10-9a9.92524,9.92524,0,0,0-1.50507-5.24982L27.09,9.25165a12.89164,12.89164,0,0,1,.43219,12.746L24.92,20.49567A9.92444,9.92444,0,0,0,26,16Zm.53741-7.58325L23.925,9.92535a10.07064,10.07064,0,0,0-2.40436-2.25561l1.4986-2.595A13.08765,13.08765,0,0,1,26.53741,8.41675ZM22.163,4.55762,20.6604,7.15942a9.94617,9.94617,0,0,0-9.3208,0L9.837,4.55762a12.97115,12.97115,0,0,1,12.32592,0ZM8.98077,5.07471l1.4986,2.595A10.07064,10.07064,0,0,0,8.075,9.92535L5.46259,8.41675A13.08765,13.08765,0,0,1,8.98077,5.07471ZM4.91,9.25165l2.595,1.49853A9.90337,9.90337,0,0,0,7.08,20.49567l-2.60212,1.502A12.89164,12.89164,0,0,1,4.91,9.25165Zm.06916,13.61041,2.59533-1.498a10.0643,10.0643,0,0,0,2.49781,2.671L8.56354,26.64728A13.08847,13.08847,0,0,1,4.97919,22.86206Zm4.42877,4.323,1.49878-2.59491a9.90495,9.90495,0,0,0,10.18652,0L22.592,27.18506a12.87894,12.87894,0,0,1-13.18408,0Zm14.0285-.53778L21.92767,24.035a10.0643,10.0643,0,0,0,2.49781-2.671l2.59533,1.498A13.08847,13.08847,0,0,1,23.43646,26.64728Z"/></g></svg>