<svg xmlns="http://www.w3.org/2000/svg" viewBox="0 0 32 32"><defs><style>.cls-1{fill:#ff6c2c;}</style></defs><g id="Category_Icons" data-name="Category Icons"><path class="cls-1" d="M28.5,6.5H3.5a1,1,0,0,0-1,1v2h27v-2A1,1,0,0,0,28.5,6.5Z"/><path d="M29.5,24a.49971.49971,0,0,0-.5.5.50065.50065,0,0,1-.5.5H3.5a.50065.50065,0,0,1-.5-.5.5.5,0,0,0-1,0A1.50164,1.50164,0,0,0,3.5,26h25A1.50164,1.50164,0,0,0,30,24.5.49971.49971,0,0,0,29.5,24Z"/><path d="M12.28625,15.12988a3.49846,3.49846,0,0,0-.932.44507,3.08223,3.08223,0,0,0-.72547.69019,2.78811,2.78811,0,0,0-.452.88476l-.04468.15015a2.623,2.623,0,0,0-.03906,1.365,2.81586,2.81586,0,0,0,.60827,1.18506,3.28091,3.28091,0,0,0,1.12177.835A3.45511,3.45511,0,0,0,13.302,21h.78125l.44647-1.48a.32.32,0,0,0-.07251-.3252.42066.42066,0,0,0-.32928-.14477h-.71436a1.2925,1.2925,0,0,1-.53576-.11011,1.10549,1.10549,0,0,1-.4018-.29492,1.05308,1.05308,0,0,1-.21765-.425.956.956,0,0,1,.01673-.51,1.10144,1.10144,0,0,1,.42974-.56982,1.22362,1.22362,0,0,1,.70874-.21021h1.172a.9741.9741,0,0,0,.56922-.16992.84874.84874,0,0,0,.33483-.45L15.88031,14.97H13.35779A3.58668,3.58668,0,0,0,12.28625,15.12988Z"/><path d="M21.29913,16.85986a1.23327,1.23327,0,0,1-.71985.22022h-.64746a.975.975,0,0,0-.56915.16992.84922.84922,0,0,0-.33484.43994L18.626,19.04h2.0202a3.57223,3.57223,0,0,0,1.07153-.16016,3.38846,3.38846,0,0,0,.932-.45,3.0678,3.0678,0,0,0,.72-.69507,2.8571,2.8571,0,0,0,.44647-.88476L23.86078,16.7a2.514,2.514,0,0,0,.04462-1.365,2.87349,2.87349,0,0,0-.6139-1.18506,3.2867,3.2867,0,0,0-1.1217-.835A3.45606,3.45606,0,0,0,20.69092,13H18.35809a.97479.97479,0,0,0-.56921.16992.84837.84837,0,0,0-.33484.4502L15.25519,21h1.55145a.95772.95772,0,0,0,.55811-.16992.85207.85207,0,0,0,.33483-.43994L19.32916,14.96h1.25012a1.25163,1.25163,0,0,1,.53571.115,1.16708,1.16708,0,0,1,.40186.30005,1.05922,1.05922,0,0,1,.21759.42505.88289.88289,0,0,1-.01673.49A1.02116,1.02116,0,0,1,21.29913,16.85986Z"/><path d="M28.5,6H3.5A1.50164,1.50164,0,0,0,2,7.5V10H30V7.5A1.50164,1.50164,0,0,0,28.5,6ZM29,9H3V7.5A.50065.50065,0,0,1,3.5,7h25a.50065.50065,0,0,1,.5.5Z"/></g></svg>