<svg xmlns="http://www.w3.org/2000/svg" viewBox="0 0 32 32"><defs><style>.cls-1{fill:#ff6c2c;}</style></defs><g id="Category_Icons" data-name="Category Icons"><polygon class="cls-1" points="14.5 9.5 12.5 6.5 2.5 6.5 2.5 9.5 2.5 11.5 29.5 11.5 29.5 9.5 14.5 9.5"/><path d="M29.00171,9H15.5343a.9983.9983,0,0,1-.83063-.44458L13.29639,6.44458A.99846.99846,0,0,0,12.46576,6H2.99829A.99826.99826,0,0,0,2,6.99829V25.00171A.99826.99826,0,0,0,2.99829,26H29.00171A.99826.99826,0,0,0,30,25.00171V9.99829A.99826.99826,0,0,0,29.00171,9ZM12.46478,7l1.4068,2.11011A1.9944,1.9944,0,0,0,15.5343,10L29,9.99829,29.00012,11H3V9L2.99829,7ZM3,25.00171V12H29.00024l.00147,13Z"/><path d="M19.52,15.63965a.5.5,0,0,0,0-1H18.24023a.49972.49972,0,0,0-.5.5v1.28027a.5.5,0,0,0,1,0v-.07141A3.4863,3.4863,0,1,1,16,15a.5.5,0,0,0,0-1,4.51339,4.51339,0,1,0,3.46692,1.63965Z"/></g></svg>