<svg xmlns="http://www.w3.org/2000/svg" viewBox="0 0 32 32"><defs><style>.cls-1{fill:#ff6c2c;}</style></defs><g id="Category_Icons" data-name="Category Icons"><path class="cls-1" d="M2.5,9.5V7A.50065.50065,0,0,1,3,6.5H29a.50065.50065,0,0,1,.5.5V9.5Z"/><path d="M29,6H3A1,1,0,0,0,2,7V25a1,1,0,0,0,1,1H29a1,1,0,0,0,1-1V7A1,1,0,0,0,29,6ZM3,7H29V9H3ZM29,25H3V10H29Z"/><path d="M15.3418,20.97461a.50079.50079,0,0,0,.63232-.31641l2-6a.49982.49982,0,1,0-.94824-.3164l-2,6A.50069.50069,0,0,0,15.3418,20.97461Z"/><path d="M20.14648,20.85352a.49984.49984,0,0,0,.707,0l3-3a.49983.49983,0,0,0,0-.707l-3-3a.5.5,0,0,0-.707.707L22.793,17.5l-2.64649,2.64648A.49983.49983,0,0,0,20.14648,20.85352Z"/><path d="M9.14648,17.85352l3,3a.5.5,0,0,0,.707-.707L10.207,17.5l2.64649-2.64648a.5.5,0,0,0-.707-.707l-3,3A.49983.49983,0,0,0,9.14648,17.85352Z"/></g></svg>