<svg xmlns="http://www.w3.org/2000/svg" viewBox="0 0 32 32"><defs><style>.cls-1{fill:#ff6c2c;}</style></defs><g id="Category_Icons" data-name="Category Icons"><circle class="cls-1" cx="24" cy="8" r="3.5"/><circle class="cls-1" cx="10" cy="17" r="3.5"/><circle class="cls-1" cx="20" cy="24" r="3.5"/><path d="M24,4a4.00427,4.00427,0,0,0-4,4,3.9546,3.9546,0,0,0,.403,1.718l-7.3523,4.72558a4.00867,4.00867,0,1,0,.54626.83838l7.3523-4.72558A3.99254,3.99254,0,0,0,22.555,11.7196L20.4729,20.04785A3.92523,3.92523,0,0,0,20,20a4.033,4.033,0,1,0,1.445.2804l2.08209-8.32825A3.92523,3.92523,0,0,0,24,12a4,4,0,0,0,0-8ZM10,20a3,3,0,1,1,3-3A3.00328,3.00328,0,0,1,10,20Zm13,4a3,3,0,1,1-3-3A3.00328,3.00328,0,0,1,23,24Zm1-13a3,3,0,1,1,3-3A3.00328,3.00328,0,0,1,24,11Z"/></g></svg>