<svg xmlns="http://www.w3.org/2000/svg" viewBox="0 0 32 32"><defs><style>.cls-1{fill:#ff6c2c;}</style></defs><g id="Category_Icons" data-name="Category Icons"><circle class="cls-1" cx="25.5" cy="6.5" r="2"/><circle class="cls-1" cx="25.5" cy="16" r="2"/><circle class="cls-1" cx="25.5" cy="25.5" r="2"/><path d="M23.0506,16.5a2.5,2.5,0,1,0,0-1H16V7.50391A.50419.50419,0,0,1,16.50391,7H23a.46549.46549,0,0,0,.04956-.01,2.5,2.5,0,1,0,0-.98A.46549.46549,0,0,0,23,6H16.50391A1.5058,1.5058,0,0,0,15,7.50391V15.5H5.83063L8.8291,12.876a.49967.49967,0,1,0-.6582-.752l-4,3.5a.499.499,0,0,0,0,.752l4,3.5a.49967.49967,0,1,0,.6582-.752L5.83063,16.5H15v7.99609A1.5058,1.5058,0,0,0,16.50391,26H23a.46549.46549,0,0,0,.04956-.01,2.5,2.5,0,1,0,0-.98A.46549.46549,0,0,0,23,25H16.50391A.50419.50419,0,0,1,16,24.49609V16.5Zm2.4494-2A1.5,1.5,0,1,1,24,16,1.50164,1.50164,0,0,1,25.5,14.5Zm0-9.5A1.5,1.5,0,1,1,24,6.5,1.50164,1.50164,0,0,1,25.5,5Zm0,19A1.5,1.5,0,1,1,24,25.5,1.50164,1.50164,0,0,1,25.5,24Z"/></g></svg>