<svg xmlns="http://www.w3.org/2000/svg" viewBox="0 0 32 32"><defs><style>.cls-1{fill:#ff6c2c;}</style></defs><g id="Category_Icons" data-name="Category Icons"><ellipse class="cls-1" cx="16" cy="18.28564" rx="5" ry="2.28564"/><path class="cls-1" d="M16,20.69043c-2.76141,0-5-1.02344-5-2.28564v5.30957C11,24.97656,13.23859,26,16,26s5-1.02344,5-2.28564V18.40479C21,19.667,18.76141,20.69043,16,20.69043Z"/><path d="M25.94336,13.5a3.75529,3.75529,0,0,0-.60986.0498A7.99771,7.99771,0,1,0,9.94336,10.5c0,.208.00879.419.02637.63086A5.34251,5.34251,0,0,0,7.44336,10.5a5.5,5.5,0,0,0,0,11H8a.5.5,0,0,0,0-1H7.44336a4.5,4.5,0,0,1,0-9,4.432,4.432,0,0,1,2.876,1.06836.49972.49972,0,0,0,.80859-.49512,6.99893,6.99893,0,1,1,12.78174,2.07324.5001.5001,0,0,0,.65722.70508A2.95925,2.95925,0,0,1,25.94336,14.5a3,3,0,0,1,0,6H24a.5.5,0,0,0,0,1h1.94336a4,4,0,0,0,0-8Z"/><path d="M16,15.5c-2.9408,0-5.17651,1.05908-5.44641,2.5a.48973.48973,0,0,0-.05359.21582v5.498C10.5,25.30176,12.86426,26.5,16,26.5s5.5-1.19824,5.5-2.78613V18.28613C21.5,16.69824,19.13574,15.5,16,15.5Zm4.5,8.21387C20.5,24.55664,18.57568,25.5,16,25.5s-4.5-.94336-4.5-1.78613V22.7041A7.93359,7.93359,0,0,0,16,23.85742a7.93359,7.93359,0,0,0,4.5-1.15332Zm0-2.666c0,.84277-1.92432,1.78516-4.5,1.78516s-4.5-.94239-4.5-1.78516v-1A7.99,7.99,0,0,0,16,21.19043a7.99,7.99,0,0,0,4.5-1.14258ZM16,20.07129c-2.57568,0-4.5-.94238-4.5-1.78516S13.42432,16.5,16,16.5s4.5.94336,4.5,1.78613S18.57568,20.07129,16,20.07129Z"/></g></svg>