<svg xmlns="http://www.w3.org/2000/svg" viewBox="0 0 32 32"><defs><style>.cls-1{fill:#ff6c2c;}</style></defs><g id="Category_Icons" data-name="Category Icons"><circle class="cls-1" cx="16" cy="14" r="3.5"/><path d="M16,10a3.9897,3.9897,0,0,0-.49,7.95044A.46549.46549,0,0,0,15.5,18v3a.5.5,0,0,0,1,0V18a.46549.46549,0,0,0-.01-.04956A3.9897,3.9897,0,0,0,16,10Zm0,7a3,3,0,1,1,3-3A3.00328,3.00328,0,0,1,16,17Z"/><path d="M25.05029,6.8584,16.49951,3.5918a1.40978,1.40978,0,0,0-.99951.001L6.9502,6.8584A1.50843,1.50843,0,0,0,6,8.27246v7.75781c0,6.50391,7.123,11.04688,9.30615,12.28418a1.39007,1.39007,0,0,0,1.3877,0C18.877,27.07715,26,22.53418,26,16.03027V8.27246A1.50872,1.50872,0,0,0,25.05029,6.8584ZM25,16.03027c0,5.96387-6.73486,10.24414-8.7998,11.415a.39683.39683,0,0,1-.4004,0h-.00048C13.73486,26.27441,7,21.99414,7,16.03027V8.27246A.5064.5064,0,0,1,7.30615,7.792L15.856,4.52734A.387.387,0,0,1,16,4.5a.40373.40373,0,0,1,.14355.02637L24.69434,7.792A.50674.50674,0,0,1,25,8.27246Z"/></g></svg>