<svg xmlns="http://www.w3.org/2000/svg" viewBox="0 0 32 32"><defs><style>.cls-1{fill:#ff6c2c;}</style></defs><g id="Category_Icons" data-name="Category Icons"><path class="cls-1" d="M14.25,23h-.8335a.49972.49972,0,0,0-.5.5v5a.49972.49972,0,0,0,.5.5H14.25a3,3,0,0,0,0-6Zm0,5h-.3335V24H14.25a2,2,0,0,1,0,4Z"/><path class="cls-1" d="M22.1665,23a.49972.49972,0,0,0-.5.5v3.34863l-2.417-3.626a.5.5,0,0,0-.916.27734v5a.5.5,0,0,0,1,0V25.15137l2.417,3.626a.5.5,0,0,0,.916-.27734v-5A.49971.49971,0,0,0,22.1665,23Z"/><path class="cls-1" d="M26.3335,25.5H25.5a.75.75,0,0,1,0-1.5h1.25a.5.5,0,0,0,0-1H25.5a1.75,1.75,0,0,0,0,3.5h.8335a.75.75,0,0,1,0,1.5H24.25a.5.5,0,0,0,0,1h2.0835a1.75,1.75,0,0,0,0-3.5Z"/><path d="M16,2a14.00216,14.00216,0,0,0-5.29688,26.96289.50016.50016,0,1,0,.37891-.92578,12.953,12.953,0,0,1-7.03589-6.92773H9.40027a19.93624,19.93624,0,0,0,1.172,3.94824.49936.49936,0,0,0,.46.30468.49257.49257,0,0,0,.19531-.04.49886.49886,0,0,0,.26465-.65528,18.78059,18.78059,0,0,1-1.07154-3.55761H28.6001a.46887.46887,0,0,0,.05224-.0105.49036.49036,0,0,0,.50977-.31861A14.0082,14.0082,0,0,0,16,2ZM28.32611,20.10938H22.76324A27.19626,27.19626,0,0,0,23.08545,16a27.7043,27.7043,0,0,0-.301-4.10938h5.53919a12.84441,12.84441,0,0,1,.00244,8.21876Zm-.37543-9.21876H22.608c-.64038-3.31579-1.89014-5.9801-3.49548-7.49829A13.043,13.043,0,0,1,27.95068,10.89062ZM16,3c2.455,0,4.62415,3.29932,5.57434,7.89062H10.42566C11.37585,6.29932,13.545,3,16,3Zm-3.11249.39233c-1.60534,1.51819-2.8551,4.1825-3.49548,7.49829H4.04932A13.043,13.043,0,0,1,12.88751,3.39233ZM3.66724,20.10938a12.90467,12.90467,0,0,1,.00909-8.21876H9.21552A27.7043,27.7043,0,0,0,8.91455,16a27.26732,27.26732,0,0,0,.31336,4.10938ZM9.91455,16a25.75448,25.75448,0,0,1,.3302-4.10938h11.5105A25.75448,25.75448,0,0,1,22.08545,16a26.174,26.174,0,0,1-.32922,4.10938H10.23938A26.22147,26.22147,0,0,1,9.91455,16Z"/></g></svg>