<svg xmlns="http://www.w3.org/2000/svg" viewBox="0 0 32 32"><defs><style>.cls-1{fill:#ff6c2c;}</style></defs><g id="Category_Icons" data-name="Category Icons"><path class="cls-1" d="M27,15.5H15a.50065.50065,0,0,0-.5.5v9a.50065.50065,0,0,0,.5.5H27a.50065.50065,0,0,0,.5-.5V16A.50065.50065,0,0,0,27,15.5Zm-10,3a.49971.49971,0,0,1,.5-.5h1a.49971.49971,0,0,1,.5.5v1a.49971.49971,0,0,1-.5.5h-1a.49971.49971,0,0,1-.5-.5ZM25,23H17.5a.5.5,0,0,1,0-1H25a.5.5,0,0,1,0,1Zm0-3H21a.5.5,0,0,1,0-1h4a.5.5,0,0,1,0,1Z"/><path d="M11.35889,22H5.64111a1.71845,1.71845,0,0,1-1.30664-.58984,1.3637,1.3637,0,0,1-.31445-1.125c.53857-3.07227,3.2251-4.87793,7.76953-5.22364a.50048.50048,0,0,1,.07617.99805c-4.09521.31055-6.40332,1.79-6.86035,4.39746a.37838.37838,0,0,0,.09473.30957.70561.70561,0,0,0,.541.2334h5.71778a.5.5,0,1,1,0,1Z"/><path d="M13.5,13A4.5,4.5,0,1,1,18,8.5,4.50491,4.50491,0,0,1,13.5,13Zm0-8A3.5,3.5,0,1,0,17,8.5,3.50424,3.50424,0,0,0,13.5,5Z"/><path d="M27,16v9H15V16H27m0-1H15a1,1,0,0,0-1,1v9a1,1,0,0,0,1,1H27a1,1,0,0,0,1-1V16a1,1,0,0,0-1-1Z"/></g></svg>