<svg xmlns="http://www.w3.org/2000/svg" viewBox="0 0 32 32"><defs><style>.cls-1{fill:#ff6c2c;}</style></defs><g id="Category_Icons" data-name="Category Icons"><path class="cls-1" d="M26.5,12.5H5.5a1,1,0,0,0-1,1v5a1,1,0,0,0,1,1h21a1,1,0,0,0,1-1v-5A1,1,0,0,0,26.5,12.5ZM8,17.5a.5.5,0,0,1-1,0v-3a.5.5,0,0,1,1,0Zm2,0a.5.5,0,0,1-1,0v-3a.5.5,0,0,1,1,0Z"/><path d="M28,6.5A1.50164,1.50164,0,0,0,26.5,5H5.5A1.50164,1.50164,0,0,0,4,6.5v5a1.48854,1.48854,0,0,0,.39014,1A1.48854,1.48854,0,0,0,4,13.5v5a1.48854,1.48854,0,0,0,.39014,1A1.48854,1.48854,0,0,0,4,20.5v5A1.50164,1.50164,0,0,0,5.5,27h21A1.50164,1.50164,0,0,0,28,25.5v-5a1.48854,1.48854,0,0,0-.39014-1A1.48854,1.48854,0,0,0,28,18.5v-5a1.48854,1.48854,0,0,0-.39014-1A1.48854,1.48854,0,0,0,28,11.5ZM5,6.5A.50065.50065,0,0,1,5.5,6h21a.50065.50065,0,0,1,.5.5v5a.50065.50065,0,0,1-.5.5H5.5a.50065.50065,0,0,1-.5-.5Zm22,7v5a.50065.50065,0,0,1-.5.5H5.5a.50065.50065,0,0,1-.5-.5v-5a.50065.50065,0,0,1,.5-.5h21A.50065.50065,0,0,1,27,13.5Zm0,12a.50065.50065,0,0,1-.5.5H5.5a.50065.50065,0,0,1-.5-.5v-5a.50065.50065,0,0,1,.5-.5h21a.50065.50065,0,0,1,.5.5Z"/><path d="M7.5,11a.49971.49971,0,0,0,.5-.5v-3a.5.5,0,0,0-1,0v3A.49971.49971,0,0,0,7.5,11Z"/><path d="M7.5,21a.49971.49971,0,0,0-.5.5v3a.5.5,0,0,0,1,0v-3A.49971.49971,0,0,0,7.5,21Z"/></g></svg>