<?xml version="1.0" encoding="UTF-8"?> <svg xmlns="http://www.w3.org/2000/svg" viewBox="0 0 200 200"><defs><style>.cls-1,.cls-2{fill:#fff;}.cls-1{opacity:0;}.cls-2{fill-rule:evenodd;}</style></defs><g id="Layer_2" data-name="Layer 2"><g id="Layer_1-2" data-name="Layer 1"><g id="Layer_2-2" data-name="Layer 2"><g id="svg4"><rect class="cls-1" width="200" height="200"></rect></g></g><path class="cls-2" d="M136.84,81.38h-9.69l-13.58,37.26h9.69l13.58-37.26ZM100,160.89l-1.8,0,12.44-34.2h17.12a8.39,8.39,0,0,0,7.34-5.13l13.5-37.09c2.21-6.07-1.26-11-7.73-11H117.1L97.17,128.19h0l-11.3,31a60.9,60.9,0,0,1-2.3-117.87L71.9,73.41h0L52.51,126.66H65.42L81.9,81.41h9.7L75.11,126.66H88l15.37-42.23c2.2-6.07-1.27-11-7.73-11H84.81L97.26,39.18c.91,0,1.82-.07,2.73-.07a60.89,60.89,0,1,1,0,121.78Z"></path></g></g></svg> 