<?xml version="1.0" encoding="UTF-8"?> <svg xmlns="http://www.w3.org/2000/svg" version="1.1" viewBox="0 0 200 200" xml:space="preserve"> <style type="text/css"> .st0{fill:#FFFFFF;} </style> <path class="st0" d="m18.3 70.7h7.8c0.8 0 0.9 0.4 0.9 1v13.3 1c0.2-0.1 0.3-0.1 0.4-0.1 2.7-1.6 5.6-2 8.7-2 4.8-0.1 9.5-0.1 14.3 0 4.5 0.1 8.7 1.3 12.2 4.4 3.1 2.7 4.9 6.2 5.3 10.3 0.2 2.2 0.2 4.5 0.2 6.7v19.1c0 1.2 0 1.2-1.2 1.2h-6.4c-1.2 0-1.2 0-1.2-1.2 0-6.9 0.1-13.9 0.1-20.8 0-1.4 0-2.8-0.3-4.2-0.7-3.9-3.7-6.6-7.7-6.7-5.1-0.2-10.2-0.1-15.3-0.1-3.3 0-6 1.4-7.7 4.2-0.9 1.5-1.3 3.1-1.3 4.8v22.8c0 1.3 0 1.3-1.2 1.3h-7.4c-0.2-18.5-0.2-36.8-0.2-55z"></path> <path class="st0" d="m183.7 125.4h-12.7c-6.6 0-13.2-0.1-19.8 0-7.5 0.2-15.4-4.4-17-13.9-0.9-5.4-0.9-10.8 0.6-16 2-6.9 8.1-11.5 15.3-11.6 3.5-0.1 6.9-0.1 10.4-0.1 7.8 0 15.5 0.1 23.3 0.2v8.6h-31.3c-0.9 0-1.9-0.1-2.7 0.2-3.9 0.9-6.1 3.6-7 7.3-0.7 2.9-0.4 5.9-0.2 8.9 0.3 3.8 2.6 6.7 6.4 7.6 1.4 0.3 2.8 0.4 4.3 0.4 5.3 0 10.7-0.1 16-0.1h14.5c-0.1 2.8-0.1 5.7-0.1 8.5z"></path> <path class="st0" d="m101.5 84.4h23.5c1.2 0 1.2 0 1.2 1.2v6.2c0 1.2 0 1.2-1.3 1.2h-17.9c-1.2 0-1.2 0-1.2 1.2v29.8c0 1.3 0 1.3-1.2 1.3h-6.2c-1.2 0-1.2 0-1.2-1.2v-29.7-0.8c0-0.4-0.2-0.7-0.6-0.7h-0.7-17.8c-1.2 0-1.2 0-1.2-1.2v-6.1c0-1.3 0-1.3 1.3-1.3 7.6 0.1 15.4 0.1 23.3 0.1z"></path> </svg> 