<?xml version="1.0" encoding="UTF-8"?> <svg xmlns="http://www.w3.org/2000/svg" version="1.1" viewBox="0 0 200 200" xml:space="preserve"> <style type="text/css"> .st0{fill:#FFFFFF;} </style> <path class="st0" d="m103.7 109.5c-0.1-2.9-0.2-5.5-0.3-8.1-0.1-2.7-0.2-5.3-0.3-8-0.1-1.8-0.1-3.5-0.1-5.3 0-2.2-0.1-4.4-0.1-6.6 0-2.9-0.1-5.8-0.1-8.7 0-2.1 0-4.2 0.1-6.3 0.2-3.9 0.7-7.8 1.7-11.7 1.1-4.7 2.5-9.3 4-13.9 0.4-1.1 0.9-2.2 1.3-3.4 0.1-0.4 0.3-0.5 0.7-0.5 2.6 0.1 5.1 0.6 7.5 1.6 2.4 0.9 4.5 2.3 6.4 4 3 2.7 5 5.9 5.8 9.8 0.5 2.5 0.5 4.9 0.2 7.4-0.4 3.5-1.3 6.9-2.4 10.2-1.2 3.5-2.7 6.9-4.5 10.1-1.5 2.6-2.9 5.3-4.3 7.9-1.8 3.1-3.6 6.2-5.4 9.3-1.9 3.2-3.7 6.3-5.6 9.5l-3 4.8c-0.2 0.3-0.5 0.7-0.9 0.5-0.2-0.1-0.3-0.6-0.4-0.9-0.2-0.6-0.3-1.3-0.3-1.7z"></path> <path class="st0" d="m97.8 65.1v5.3c0 3 0.1 5.9 0.1 8.9 0 2.6-0.1 5.1-0.1 7.7 0 1.8-0.1 3.6-0.1 5.4l-0.3 8.1-0.3 6.9c-0.1 1.3-0.1 2.6-0.3 4 0 0.3-0.2 0.7-0.4 0.7-0.3 0-0.7-0.2-0.9-0.4-0.6-0.8-1-1.6-1.5-2.4-1.8-2.9-3.6-5.9-5.3-8.8-1.6-2.8-3.2-5.5-4.9-8.3-1.7-3-3.5-6-5.2-9.1-2.1-3.8-4.2-7.7-5.7-11.9-1-2.9-1.9-5.7-2.4-8.7-0.2-1.4-0.3-2.8-0.5-4.2-0.3-2.5 0-5 0.7-7.4 0.7-2.5 2-4.7 3.7-6.6 3.3-3.7 7.4-5.9 12.3-6.8 1.1-0.2 2.1-0.3 3.2-0.4 0.4-0.1 0.7 0.1 0.8 0.5 0.8 2.2 1.6 4.3 2.3 6.4 1.6 4.9 2.9 9.8 3.9 14.8 0.5 2 0.6 4 0.9 6.3z"></path> <path class="st0" d="m109.6 115.9c0.3-0.7 0.4-1.4 0.7-2 1.2-2.4 2.3-4.8 3.5-7.2 1.1-2.1 2.3-4.3 3.4-6.4 1.3-2.3 2.6-4.7 4-7 1.4-2.4 2.7-4.8 4.1-7.2 1.3-2.1 2.6-4.2 3.9-6.3 1.7-2.6 3.3-5.3 5.1-7.8 2.7-3.9 5.5-7.8 8.3-11.6 1-1.4 2.2-2.6 3.3-3.9 0.4-0.5 0.9-0.7 1.4-0.1 0.7 0.7 1.5 1.3 2.1 2.1 1.2 1.5 2.4 3 3.5 4.5 1.9 2.9 3.5 5.9 4.1 9.4 0.7 3.6 0.5 7.2-1 10.6-1 2.4-2.5 4.5-4.3 6.4-2.4 2.5-5.1 4.5-7.9 6.5-5.2 3.7-10.6 7.2-16.2 10.4-3.8 2.2-7.5 4.4-11.3 6.5-2 1.1-4.2 2-6.3 3 0 0.1-0.1 0.1-0.4 0.1z"></path> <path class="st0" d="m91 115.9c-0.4-0.1-0.8-0.2-1.2-0.4-3-1.6-6.1-3.1-9.1-4.8-3.1-1.7-6.1-3.5-9.1-5.3-2.8-1.7-5.5-3.3-8.2-5.1-3.4-2.3-6.8-4.6-10-7-2.9-2.2-5.5-4.6-7.4-7.7-1.4-2.3-2.3-4.8-2.5-7.6-0.5-4.8 0.8-9.1 3.2-13.2 1.7-2.9 3.6-5.5 6-7.8 1.5-1.4 1.5-1.3 2.6 0 1.6 1.8 3.1 3.7 4.5 5.6 3 4.2 6 8.4 8.8 12.6s5.4 8.6 8 12.9c2.1 3.4 4 6.9 6 10.4 1.5 2.7 2.9 5.4 4.3 8.1 1.1 2 2.1 4 3.1 6.1 0.5 1 0.9 2.1 1.3 3.1-0.2 0-0.3 0.1-0.3 0.1z"></path> <path class="st0" d="m165.9 89.8c0.2 1 0.5 1.9 0.7 2.7 0.3 2 0.6 4 0.4 6-0.5 4.3-1.3 8.5-3.9 12.2s-6.1 6.3-10.2 8.1c-2.3 1-4.7 1.7-7.2 2.1-0.6 0.1-1.2 0.2-1.8 0.2-1.9 0.1-3.8 0.1-5.6 0.2-3.1 0.1-6.2 0.1-9.4 0.1-3 0-6-0.1-9-0.1-1.9 0-3.8-0.2-5.8-0.3-0.4 0-0.7-0.1-1.2-0.2 16.9-11.6 34.9-21.1 53-31z"></path> <path class="st0" d="m87.8 121c-1.9 0.1-3.9 0.2-5.8 0.2-2.7 0.1-5.4 0.1-8.2 0.1-2.5 0-5.1 0.1-7.6 0.1-2.3 0-4.6-0.1-6.8-0.1-3.6-0.1-7.2-0.7-10.5-2.1-2.6-1.1-5.1-2.5-7.3-4.3-4-3.3-6.2-7.6-7.1-12.6-0.5-2.4-0.6-4.9-0.4-7.3 0.1-1.5 0.5-3 0.8-4.5 0-0.2 0.1-0.3 0.2-0.5 1.6 0.9 3.2 1.7 4.8 2.5 1.8 1 3.5 2 5.3 3 3.1 1.7 6.2 3.5 9.3 5.2 1.5 0.8 3 1.5 4.4 2.4 3.3 1.9 6.5 3.7 9.7 5.7 4.1 2.5 8.2 5 12.3 7.6 2.2 1.4 4.3 2.8 6.5 4.2 0.2 0.1 0.4 0.3 0.5 0.4-0.1-0.1-0.1 0-0.1 0z"></path> <path class="st0" d="m87 124.7c-0.3 0.3-0.6 0.6-1 0.8-2 1.6-4.1 3.2-6.1 4.8-2.5 2-5.2 3.6-8.1 5.1-2.7 1.3-5.5 2.4-8.5 2.9-3.4 0.5-6.3-0.5-9-2.5-3.5-2.6-6-5.9-8-9.6-0.1-0.1-0.1-0.2-0.2-0.4v-0.1h0.2c2.8-0.1 5.6-0.1 8.4-0.2 3.4-0.1 6.7-0.2 10.1-0.3 1.3 0 2.7-0.1 4-0.1 3.4-0.1 6.9-0.2 10.3-0.3 1.5 0 3.1-0.1 4.6-0.1 1 0 2.1-0.1 3.1-0.2 0.1 0.1 0.1 0.2 0.2 0.2z"></path> <path class="st0" d="m154.7 125.9c-1 1.6-2 3.2-3.1 4.7-0.8 1-1.6 2-2.5 2.9-1.8 1.7-3.8 3.3-6.1 4.2-1.5 0.6-3 0.7-4.7 0.6-3.3-0.3-6.3-1.5-9.2-2.9-3.4-1.7-6.6-3.8-9.6-6.2-1.7-1.4-3.4-2.7-5.2-4.1-0.2-0.1-0.3-0.2-0.5-0.3 0-0.1 0.1-0.1 0.1-0.2h2.3c0.9 0 1.7 0.1 2.6 0.1 2.2 0.1 4.5 0.1 6.7 0.2 1.6 0 3.2 0.1 4.8 0.1s3.2 0.1 4.8 0.1l9.6 0.3c1.5 0 3.1 0.1 4.6 0.1h5.2c0.1 0.1 0.1 0.2 0.2 0.4z"></path> <path class="st0" d="m123.5 156.8c0.2-0.5 0.3-0.8 0.3-1.1 1-3.6 2-7.2 3-10.9 0-0.2 0.3-0.4 0.5-0.4h4c-1.8 5.9-3.5 11.7-5.3 17.6h-4.2c-0.2 0-0.4-0.3-0.5-0.5-1-3.1-2.1-6.2-3.1-9.4-0.3-1-0.7-2.1-1.2-3.1-0.4 1.1-0.7 2.2-1.1 3.3-1 3.1-2 6.2-3 9.2-0.1 0.4-0.3 0.5-0.7 0.5h-3.7c-0.2 0-0.5-0.2-0.6-0.4-1.7-5.6-3.3-11.3-5-16.9v-0.2h4.1c0.1 0 0.3 0.3 0.3 0.5 1 3.6 1.9 7.1 2.9 10.7 0.1 0.2 0.1 0.5 0.3 0.9 0.2-0.4 0.3-0.6 0.3-0.8 1.2-3.5 2.3-7 3.5-10.6 0.2-0.6 0.5-0.8 1.1-0.8 1.2 0.1 2.5 0 3.7 0 0.5 0 0.6 0.2 0.8 0.6 1.1 3.7 2.3 7.3 3.4 11 0 0.2 0.1 0.4 0.2 0.8z"></path> <path class="st0" d="m62.9 144.5h4.2v0.8 9.8c0 0.5 0 1.1 0.1 1.6 0.2 1.2 1.2 2.4 2.6 2.6 1.1 0.2 2.4 0.2 3.5 0 1.7-0.3 2.4-1.3 2.4-3.3v-10.6-0.8h5.4v0.7 9.3c0 1.1-0.1 2.2-0.3 3.2-0.1 0.5-0.4 1.1-0.7 1.3-1.2 0.9-2.4 1.9-3.7 2.5-2.4 1.1-4.9 1.1-7.5 0.6-1.8-0.3-3.4-0.8-4.7-2.1-1.1-1.1-1.4-2.5-1.4-4-0.1-3.7-0.1-7.5-0.1-11.3 0.1-0.1 0.1-0.2 0.2-0.3z"></path> <path class="st0" d="m57.8 162h-4.3v-7.6h-8.7v7.6h-4.3v-17.5h4.2v6.8h8.7v-6.8h4.3c0.1 5.8 0.1 11.6 0.1 17.5z"></path> <path class="st0" d="m103.7 162h-4.4c-0.2 0-0.4-0.3-0.5-0.5-0.5-1-1-2.1-1.5-3.1-0.1-0.2-0.4-0.4-0.6-0.4h-7.9c-0.4 0-0.5 0.1-0.7 0.5-0.4 1-0.9 2-1.3 3-0.2 0.4-0.3 0.5-0.8 0.5h-4c0.1-0.3 0.2-0.5 0.3-0.7 2.6-5.4 5.2-10.9 7.9-16.3 0.1-0.2 0.4-0.5 0.7-0.5h3.7c0.2 0 0.5 0.2 0.6 0.4 2.8 5.6 5.6 11.2 8.3 16.9 0.1-0.1 0.1 0 0.2 0.2zm-7.9-6.9c-1-2.2-2-4.4-3.1-6.7-1.1 2.3-2 4.5-3 6.7h6.1z"></path> <path class="st0" d="m138.8 151.4h12.1v3h-12c-0.4 2 1.6 4.5 3.6 4.5h7.7 0.8v2.9c-0.1 0-0.1 0.1-0.2 0.1-2.8 0-5.7 0.1-8.5 0-3.6-0.1-6.6-2.7-7.6-6.4s0.6-7.7 3.8-9.6c1.3-0.8 2.8-1.1 4.3-1.1h7.9 0.3v2.9h-0.6-7.9c-1.1 0-2 0.4-2.6 1.3-0.4 0.7-0.7 1.5-1.1 2.4z"></path> <path class="st0" d="m160.2 162h-4.2v-17.5h4.2v17.5z"></path> </svg> 