<?xml version="1.0" encoding="UTF-8"?> <svg xmlns="http://www.w3.org/2000/svg" version="1.1" viewBox="0 0 200 200" xml:space="preserve"> <style type="text/css"> .st0{fill:#FFFFFF;} </style> <path class="st0" d="m69 101.7c-6 2.5-12.1 5-18.2 7.6 1.4 1.4 3.1 2 4.8 2.1 2.7 0.2 5.3-0.4 7.5-2.1 0.7-0.5 1.2-0.5 1.8 0.1 1.1 1 2.3 1.8 3.8 3-0.5 0.3-0.9 0.5-1.2 0.7-4.8 4.2-13.1 5.2-18.7 2.2-5-2.6-7.6-7.8-6.8-13.8 0.7-5.4 4.9-9.9 10.4-10.9 4.5-0.8 8.9-0.3 12.5 2.9 2.4 2.1 3.6 5 4.1 8.2zm-7.7-2.1c-1.5-3.2-4.8-4.5-8.1-3.3-3.2 1.2-5.2 5.1-4.2 8.4 4-1.7 8.1-3.4 12.3-5.1z"></path> <path class="st0" d="m114.5 90.2c6.8 0.1 12.1 4.1 13.6 10.4 1.9 7.8-3.8 15.6-11.8 16.4-5.5 0.5-10.1-1.1-13.3-5.7-5.6-7.8-1-18.9 8.5-20.7 1-0.2 2-0.3 3-0.4zm-6.9 13.4c0 4.2 3.1 7.3 7.1 7.3s6.8-3.1 6.8-7.4c0-4.1-3.1-7.3-7-7.3-4 0.1-6.9 3.2-6.9 7.4z"></path> <path class="st0" d="m169.5 90.2c6.8 0.1 12.2 4.3 13.6 10.6 1.7 7.6-3.7 15.3-11.6 16.1-6 0.7-11-1.2-14.2-6.5-4.7-7.8 0-18 9-19.8 1.1-0.2 2.1-0.3 3.2-0.4zm-7 13.3c-0.1 4.1 2.9 7.4 6.8 7.5 4 0 7-2.9 7.1-7 0.1-4.3-2.9-7.6-6.9-7.7s-6.9 2.9-7 7.2z"></path> <path class="st0" d="m78.7 116.6h-7v-25.8h7v3.2c0.1 0.1 0.3 0.2 0.4 0.3 0.2-0.3 0.4-0.7 0.7-1 3.1-2.9 6.8-3.6 10.7-2.5 3.7 1 6 3.5 6.9 7.3 0.2 0.8 0.3 1.6 0.3 2.3v15.1c0 1-0.3 1.2-1.2 1.2-1.6-0.1-3.2-0.1-4.8 0-0.8 0-1.1-0.2-1.1-1.1 0-4.5-0.1-8.9 0.1-13.4 0.1-3.4-2.8-5.8-6.1-5.8-3.4 0-5.9 2.4-5.9 5.9v13.1 1.2z"></path> <path class="st0" d="m127.6 90.7h7.4c0.3 0 0.8 0.6 1 1 1.9 5.1 3.7 10.2 5.6 15.3 0.1 0.3 0.3 0.6 0.5 1.2 0.2-0.5 0.4-0.8 0.5-1.1 1.9-5.1 3.8-10.3 5.6-15.4 0.3-0.8 0.6-1 1.5-1 2.3 0.1 4.6 0 7 0-0.4 1.1-0.8 2-1.2 2.9-3 7.3-6 14.6-9 22-0.3 0.8-0.7 1.1-1.6 1-1.9-0.1-3.9 0-5.8-0.1-0.4 0-1-0.3-1.1-0.7-3.4-8.2-6.8-16.4-10.2-24.6-0.2 0-0.2-0.2-0.2-0.5z"></path> <path class="st0" d="m17.8 82.9h6.6c0.2 0 0.4 0.3 0.4 0.5 0.1 0.3 0 0.6 0 0.9v24.5 1.4h16.1v6.5h-23.2c0.1-11.4 0.1-22.5 0.1-33.8z"></path> </svg> 