<?xml version="1.0" encoding="UTF-8"?> <svg xmlns="http://www.w3.org/2000/svg" version="1.1" viewBox="0 0 200 200" xml:space="preserve"> <style type="text/css"> .st0{fill:#FFFFFF;} </style> <path class="st0" d="m93 99.1c0 18.2-14.8 32.9-32.9 32.9s-32.9-14.8-32.9-32.9 14.8-32.8 32.9-32.8c17.9-0.2 32.9 14.3 32.9 32.8zm-31.6-25.1v-2.2c0-0.2-0.1-0.3-0.3-0.3-1.9-0.1-3.7 0-5.7 0.3-5.2 0.9-10 3.2-13.8 6.8-7.1 6.7-10 15-8.6 24.6 0.9 6.5 3.9 11.9 8.7 16.1 6.9 6 14.9 8.3 23.8 6.5 8.5-1.7 14.8-6.6 19-14.2 2.3-4.2 3.2-8.7 3.2-13.4 0-0.5 0-0.5-0.5-0.5h-6.6-12c-0.6 0-0.6 0-0.6 0.5s0 0.9 0 1.5 0 0.6 0.6 0.6h15.7 0.6s0.3 0.1 0.3 0.3c-0.2 1.4-0.3 2.7-0.6 4.1-3.1 12.8-15.3 21-28.3 19-6.4-1-11.5-4.1-15.4-9-5-6.1-6.6-13.2-5-20.9 1.6-7.6 6-13.2 12.8-16.9 3.9-2 7.9-3 12.4-2.8-0.2-0.1 0-0.1 0.3-0.1zm6.5 39.4v-2.2c0-0.2-0.1-0.3-0.3-0.3h-4.9-0.9s-0.3-0.1-0.3-0.3v-0.3-25.1-0.5h-2.2c-0.3 0-0.5 0.1-0.5 0.5v28c0 0.3 0.1 0.5 0.5 0.5h8.3c0-0.3 0.1-0.3 0.3-0.3zm-18.3-28.8c-2.2 0-4 1.7-4 3.9s1.7 4 3.9 4 4-1.7 4-3.9-1.8-4-3.9-4z"></path> <path class="st0" d="m177 83.5c-2 1.9-4.1 3.7-6.2 5.8-0.1-0.1-0.1-0.2-0.2-0.3-2-2.5-4.7-3.9-7.9-4.1-2.2-0.2-4.3-0.1-6.4 0.5-3.3 0.9-5.3 3.1-6.4 6.4-0.6 1.7-0.8 3.5-0.9 5.3-0.1 2.4 0 4.7 0.3 6.9 0.3 1.7 0.9 3.3 1.8 4.7 1.4 1.8 3.2 2.8 5.3 3.4 3.6 0.8 7.3 0.5 10.9-0.5 0.3-0.1 0.5-0.3 0.5-0.7v-6.6c0-0.3-0.1-0.5-0.5-0.5h-7.1c-0.5 0-0.5 0-0.5-0.5v-7.1c0-0.3 0.1-0.5 0.5-0.5h16.3c0.3 0 0.5 0.1 0.5 0.5v20c0 0.3-0.1 0.5-0.3 0.6-2 1.2-4.2 2-6.6 2.7-2.6 0.7-5.3 1-7.9 1.1-2.8 0.1-5.7 0-8.5-0.7-2.7-0.6-5.3-1.7-7.5-3.4-2.6-2.2-4.3-4.9-5.4-8.1-0.8-2.3-1.1-4.8-1.2-7.1-0.1-2.2-0.1-4.3 0.1-6.5 0.3-3.1 1-6 2.4-8.9 2.2-4.2 5.6-6.8 10-8.3 2.3-0.8 4.7-1.1 7-1.1 2.8-0.1 5.7 0.1 8.5 0.8 3.2 0.8 6 2.3 8.3 4.7 0.3 0.5 0.6 1 1.1 1.5z"></path> <path class="st0" d="m107.8 98.5v-20.8-0.3c0-0.1 0.1-0.2 0.2-0.2h0.2 9c0.5 0 0.5 0 0.5 0.5v33.4 0.3c0 0.2 0.1 0.2 0.2 0.2h0.3 19.4c0.5 0 0.5 0 0.5 0.5v7.4c0 0.5 0 0.5-0.5 0.5h-29.5c-0.5 0-0.5 0-0.5-0.5 0.2-6.9 0.2-13.9 0.2-21z"></path> </svg> 