<?xml version="1.0" encoding="UTF-8"?> <svg xmlns="http://www.w3.org/2000/svg" viewBox="0 0 200 200"><defs><style>.cls-1,.cls-2,.cls-3,.cls-4{fill:#fff;}.cls-1{opacity:0;}.cls-2{fill-opacity:0;}.cls-4{fill-rule:evenodd;}</style></defs><g id="Layer_2" data-name="Layer 2"><g id="Layer_1-2" data-name="Layer 1"><g id="svg4"><rect class="cls-1" width="200" height="200"></rect></g><g id="Layer_1-2-2" data-name="Layer 1-2"><g id="svg4-2" data-name="svg4"><rect class="cls-2" width="200" height="200"></rect></g></g><polyline class="cls-3" points="13.77 110.91 13.77 95.55 22.75 110.91 13.77 110.91"></polyline><path class="cls-4" d="M77,89.45H87.79c5.48,0,13.84,3.74,13.84,10.17v.9a10.86,10.86,0,0,1-1.16,4c-2.58,4.32-7.77,5.54-7.77,5.54a11.81,11.81,0,0,1-3.43.84H77V89.45m8.12,5.62v10.18h1.52c3.12,0,6.51-1.81,6.51-4.73v-.81c0-3.18-4-4.64-6.87-4.64Z"></path><polyline class="cls-3" points="104.13 89.44 112.08 89.44 112.08 110.91 104.13 110.9 104.13 89.44"></polyline><polyline class="cls-4" points="147.81 89.44 155.4 89.44 167.64 101.25 167.73 101.25 167.73 89.44 175.68 89.44 175.68 110.9 168.18 110.9 160.5 103.84 160.58 103.84 155.85 99.19 155.76 99.19 155.76 110.9 147.81 110.9 147.81 89.44"></polyline><polyline class="cls-3" points="73.49 95 65.18 95 65.18 97.42 73.04 97.42 73.04 102.96 65.18 102.96 65.18 105.37 73.49 105.37 73.49 110.91 57.14 110.91 57.14 89.46 73.49 89.46 73.49 95"></polyline><path class="cls-3" d="M17.23,89.45H27.86l6,10.1C34.42,99,38,94.37,38,94.37c3.64-4.23,3.46-4.92,4.1-4.92H54.21v21.46H44.29v-8.59c-.18.06-7.2,8.59-7.2,8.59H30.45L17.23,89.45"></path><path class="cls-4" d="M114.41,100.18c0-6.24,6.93-11.31,15.48-11.31s15.48,5.07,15.48,11.31-6.93,11.32-15.48,11.32-15.48-5.07-15.48-11.32m8.71,0c0,2.86,3.13,5.17,7,5.17s7-2.31,7-5.17S134,95,130.1,95,123.12,97.33,123.12,100.18Z"></path><path class="cls-4" d="M183.57,90.86c0,.38-.24.57-.8.57h-.24v-1.2h.24c.56,0,.8.22.8.63m.79,2.86-1.22-1.88a1,1,0,0,0,1-1c0-.61-.41-1.09-1.32-1.09H182v3.94h.51V91.87h.07l1.15,1.85Zm1.47-1.92a2.9,2.9,0,1,1-2.9-2.89A2.89,2.89,0,0,1,185.83,91.8Zm.4,0a3.3,3.3,0,1,0-3.3,3.3A3.3,3.3,0,0,0,186.23,91.8Z"></path></g></g></svg> 