<?xml version="1.0" encoding="UTF-8"?> <svg xmlns="http://www.w3.org/2000/svg" version="1.1" viewBox="0 0 200 200" xml:space="preserve"> <style type="text/css"> .st0{fill:#FFFFFF;} </style> <path class="st0" d="m39.4 97.1h-8.7c-0.2 0-0.3-0.1-0.3-0.3v-17.5c0-0.2 0.1-0.3 0.3-0.3h17.5c0.2 0 0.3 0 0.3 0.3v17.5c0 0.2-0.1 0.3-0.3 0.3h-8.8z"></path> <path class="st0" d="m10.2 97.1v-18.2h0.3 17.5c0.3 0 0.3 0.1 0.3 0.3v17.5c0 0.2-0.1 0.3-0.3 0.3h-17.5c-0.1 0.1-0.2 0.1-0.3 0.1z"></path> <path class="st0" d="m39.4 118.1h-8.7c-0.2 0-0.3-0.1-0.3-0.3v-17.5c0-0.2 0.1-0.3 0.3-0.3h17.5c0.2 0 0.3 0 0.3 0.3v17.5c0 0.2-0.1 0.3-0.3 0.3h-8.8z"></path> <path class="st0" d="m10.2 118.1v-18.2h0.3 17.5c0.3 0 0.3 0.1 0.3 0.3v17.5c0 0.2-0.1 0.3-0.3 0.3h-17.5c-0.1 0.1-0.2 0.1-0.3 0.1z"></path> <path class="st0" d="m63.6 90.9v0.5c0 1.1 0.1 2.1 0.1 3.2v14.7c0 0.3 0 0.3-0.3 0.3h-3c-0.2 0-0.3 0-0.3-0.3v-22.4c0-0.2 0-0.3 0.3-0.3h5c0.2 0 0.3 0.1 0.3 0.2 0.7 1.7 1.4 3.5 2.1 5.1 0.8 2.1 1.7 4.3 2.5 6.4 0.6 1.7 1.3 3.4 1.9 5 0.1 0.2 0.1 0.4 0.2 0.5h0.1c0.1-0.2 0.2-0.3 0.2-0.5 0.7-2.4 1.8-4.6 2.7-6.9 0.7-1.9 1.6-3.8 2.3-5.7 0.5-1.4 1.2-2.7 1.7-4.1 0.1-0.2 0.1-0.2 0.3-0.2h4.7c0.2 0 0.3 0.1 0.3 0.3v22.4c0 0.2-0.1 0.3-0.3 0.3h-3.3c-0.2 0-0.3 0-0.3-0.3v-14.2c0-0.9 0.1-1.8 0.1-2.7 0-0.4 0.1-0.8 0.1-1.3 0-0.1 0-0.1-0.1-0.2h-0.1c0 0.1-0.1 0.2-0.1 0.4-0.2 1.1-0.6 2.1-1.1 3.2l-2.4 6c-1.1 2.6-2.1 5.1-3.2 7.8-0.2 0.4-0.3 0.8-0.5 1.3 0 0.1-0.1 0.2-0.2 0.2h-2.2c-0.1 0-0.2-0.1-0.2-0.2-0.7-1.8-1.5-3.6-2.2-5.4-0.9-2.3-2-4.7-2.9-7-0.6-1.5-1.2-2.9-1.8-4.4-0.2-0.4-0.3-0.9-0.4-1.5 0.1-0.1 0.1-0.2 0-0.2z"></path> <path class="st0" d="m180.4 88.4c-0.5-0.1-0.9-0.2-1.5-0.3-1.2-0.2-2.2 0.4-2.5 1.5-0.1 0.4-0.2 0.8-0.2 1.3v2.1c0 0.2 0.1 0.3 0.3 0.3h5.4c0.2 0 0.3-0.1 0.3-0.3v-3.2c0-0.2 0-0.3 0.2-0.3 1.2-0.3 2.3-0.7 3.4-1.1h0.2v0.3 4.2c0 0.2 0.1 0.3 0.3 0.3h3.4c0.2 0 0.3 0.1 0.3 0.3v2.5c0 0.2-0.1 0.3-0.3 0.3h-3.3c-0.2 0-0.3 0.1-0.3 0.3v7.8c0 0.6 0.1 1.2 0.4 1.7s0.8 0.7 1.5 0.8c0.7 0 1.4-0.1 2-0.5v0.3 2.5c0 0.3-0.1 0.4-0.3 0.4-0.5 0.1-1.1 0.3-1.6 0.3-0.8 0.1-1.6 0.1-2.4-0.1-1.7-0.3-2.7-1.4-3.2-3-0.1-0.5-0.2-1.1-0.2-1.6 0-2.8 0-5.8-0.1-8.6 0-0.3 0-0.3-0.3-0.3h-5.3c-0.2 0-0.3 0.1-0.3 0.3v12.6c0 0.3 0 0.3-0.3 0.3h-3.2c-0.3 0-0.3 0-0.3-0.3v-12.5c0-0.4 0-0.4-0.4-0.4h-2.1c-0.2 0-0.2-0.1-0.2-0.2v-2.6c0-0.2 0.1-0.2 0.3-0.2h2.2c0.2 0 0.3-0.1 0.3-0.3v-2.3c0-1.6 0.6-3 1.8-4.1 0.8-0.7 1.8-1.2 2.9-1.4 0.5-0.1 1.1-0.1 1.7-0.1 0.5 0 1.1 0.1 1.6 0.2 0.1 0 0.2 0.1 0.2 0.2-0.4 0.9-0.4 1.9-0.4 2.9z"></path> <path class="st0" d="m161 92.8c1.2 0 2.3 0.2 3.5 0.6 1.4 0.5 2.4 1.3 3.3 2.4 0.7 1.1 1.2 2.2 1.4 3.5 0.1 0.8 0.2 1.7 0.1 2.5-0.1 2-0.6 3.8-1.9 5.4-1.2 1.4-2.5 2.2-4.3 2.6-0.9 0.2-2 0.3-3 0.2-1.3-0.1-2.6-0.3-3.8-0.9-1.6-0.8-2.7-2.1-3.4-3.9-0.3-0.9-0.5-1.8-0.6-2.8-0.1-1.7 0.1-3.3 0.7-4.8 0.6-1.6 1.7-2.8 3.2-3.7 0.9-0.5 2.1-0.8 3.2-1.1h1.6zm-4.7 8.6c-0.1 0.8 0 1.7 0.3 2.5 0.4 1.4 1.4 2.3 2.7 2.7 0.8 0.2 1.7 0.2 2.5 0.1 1.4-0.2 2.3-0.9 2.8-2.2 0.4-0.8 0.5-1.7 0.5-2.6 0.1-0.9 0-1.9-0.2-2.8s-0.7-1.8-1.5-2.3c-1.2-0.9-2.5-1.1-3.9-0.7-1.5 0.3-2.4 1.4-2.9 2.7-0.3 0.9-0.4 1.7-0.3 2.6z"></path> <path class="st0" d="m129.5 92.8c0.9 0 2 0.1 2.9 0.4 1.9 0.5 3.4 1.7 4.2 3.5 0.5 0.9 0.8 2 0.9 3.2 0.1 0.6 0.1 1.3 0.1 1.8-0.1 1.8-0.5 3.6-1.6 5-0.8 1.3-2.1 2.2-3.6 2.7-0.8 0.3-1.7 0.4-2.6 0.5-1.9 0.1-3.7-0.1-5.4-1.1-1.2-0.6-2.1-1.5-2.7-2.6-0.6-1.2-0.9-2.4-1.1-3.8-0.1-1.6 0-3 0.5-4.5 0.3-0.9 0.8-1.9 1.6-2.6 1.2-1.3 2.6-2 4.3-2.3 1-0.1 1.8-0.2 2.5-0.2zm-0.2 3.2c-0.4 0-0.7 0-1.2 0.1-1.5 0.3-2.4 1.4-2.9 2.7-0.2 0.7-0.3 1.4-0.4 2.2 0 1.2 0 2.2 0.4 3.4 0.4 1.1 1.2 1.9 2.3 2.3 0.8 0.3 1.8 0.3 2.7 0.2 1.5-0.2 2.5-1.1 3-2.4 0.3-0.7 0.4-1.6 0.5-2.4 0.1-0.9 0-1.8-0.2-2.6-0.2-1.1-0.7-2-1.6-2.6-0.7-0.7-1.6-1-2.6-0.9z"></path> <path class="st0" d="m139.7 105.4c1.1 0.7 2.1 1.2 3.3 1.5 0.9 0.2 1.9 0.2 2.8-0.1 1.3-0.5 1.2-2 0.5-2.6-0.5-0.5-1.3-0.8-1.9-1.2-0.9-0.4-1.9-0.8-2.8-1.4-1.2-0.6-1.7-1.8-1.9-3-0.1-0.9 0-1.9 0.4-2.8 0.5-1.2 1.5-1.9 2.6-2.3 1.3-0.5 2.5-0.6 3.9-0.5 0.9 0.1 1.9 0.2 2.7 0.5 0.2 0.1 0.3 0.2 0.3 0.4v3.2c-0.2-0.1-0.4-0.2-0.6-0.4-1.1-0.5-2.3-0.8-3.5-0.7-0.6 0-1.3 0.2-1.7 0.8-0.5 0.6-0.4 1.9 0.5 2.4 0.6 0.4 1.4 0.7 2.1 1.1 1.1 0.5 2.2 0.9 3 1.8 0.6 0.7 1.1 1.5 1.2 2.5 0.1 0.9 0 1.9-0.5 2.7-0.5 1.1-1.4 1.8-2.4 2.2-0.8 0.4-1.8 0.5-2.6 0.6-1.7 0.1-3.4-0.2-5-0.7-0.1 0-0.2-0.2-0.2-0.2-0.2-1.4-0.2-2.6-0.2-3.8z"></path> <path class="st0" d="m108 97.2c-0.6-0.4-1.4-0.8-2.1-1.1-1.4-0.4-2.7-0.4-4 0.2-1.4 0.6-2.3 1.8-2.6 3.4s-0.3 3.2 0.4 4.7c0.7 1.4 1.9 2.2 3.5 2.4 1.8 0.2 3.3-0.3 4.7-1.3h0.1v0.2 3c0 0.2 0 0.2-0.2 0.3-0.9 0.5-1.9 0.7-2.9 0.8-0.6 0.1-1.4 0.1-2 0.1-1.8-0.1-3.5-0.6-4.9-1.8s-2.1-2.6-2.5-4.3c-0.2-1.1-0.2-2.2-0.2-3.3 0.1-1.2 0.4-2.3 0.9-3.4 0.9-1.8 2.3-3 4.2-3.8 0.8-0.3 1.7-0.5 2.6-0.6 1.5-0.1 2.9 0 4.3 0.5 0.7 0.2 0.7 0.2 0.7 1.1v2.9z"></path> <path class="st0" d="m114.9 96c0.2-0.4 0.4-0.9 0.7-1.4 0.6-0.9 1.6-1.6 2.7-1.7 0.6-0.1 1.3-0.1 2 0.1 0.1 0 0.2 0.1 0.2 0.2v3.6c-0.4-0.1-0.8-0.3-1.3-0.4-1.1-0.2-2.1-0.1-2.9 0.6-0.7 0.6-1.2 1.5-1.4 2.4-0.1 0.6-0.2 1.3-0.2 1.8v8c0 0.3 0 0.3-0.3 0.3h-3.2c-0.2 0-0.3-0.1-0.3-0.3v-15.9c0-0.2 0-0.3 0.2-0.3h3.3c0.2 0 0.2 0.1 0.2 0.3v2.3c0.2 0.3 0.2 0.4 0.3 0.4v0z"></path> <path class="st0" d="m92.4 101.4v7.8c0 0.3 0 0.3-0.3 0.3h-3.2c-0.2 0-0.3 0-0.3-0.3v-15.8c0-0.2 0-0.3 0.3-0.3h3.3c0.2 0 0.3 0.1 0.3 0.3-0.1 2.7-0.1 5.4-0.1 8z"></path> <path class="st0" d="m92.9 88.4c0 1.3-1.1 2.2-2.3 2.2s-2.3-0.9-2.3-2.2 1.1-2.2 2.3-2.2c1.3 0 2.4 1 2.3 2.2z"></path> </svg> 