<?xml version="1.0" encoding="UTF-8"?> <svg xmlns="http://www.w3.org/2000/svg" viewBox="0 0 200 200"><defs><style>.cls-1,.cls-2{fill:#fff;}.cls-1{opacity:0;}.cls-2{fill-rule:evenodd;}</style></defs><g id="Layer_2" data-name="Layer 2"><g id="Layer_1-2" data-name="Layer 1"><g id="Layer_2-2" data-name="Layer 2"><g id="svg4"><rect class="cls-1" width="200" height="200"></rect></g></g><path class="cls-2" d="M158.81,119.7,169.58,90a92.81,92.81,0,0,0-16.09,1.62L143.31,119.7ZM157,82l-2.07,5.7A93.27,93.27,0,0,1,171,86.09l2.07-5.7A92.81,92.81,0,0,0,157,82m-56.12,30.65A83.38,83.38,0,0,0,115.78,114h0c5.23,0,9-1.16,9.43-4.72.2-1.69-1.4-2.9-4.32-4.51-3.35-1.85-6.17-2.78-9.08-4.72a7.14,7.14,0,0,1-3.18-8.26c1.14-3.79,3.81-6,7.86-8.06,4.76-2.42,8.52-3.34,17.69-3.34A88.59,88.59,0,0,1,151.08,82l-2,5.43a82.5,82.5,0,0,0-14.93-1.35c-5.23,0-9,1.17-9.43,4.72-.2,1.69,1.39,2.91,4.32,4.52,3.35,1.85,6.17,2.77,9.08,4.72a7.13,7.13,0,0,1,3.18,8.25c-1.14,3.79-3.81,6-7.86,8.06-4.76,2.43-8.53,3.34-17.69,3.34h0a88.56,88.56,0,0,1-16.88-1.62Zm-23.36,7,9-24.76c3-8.26-8-5.24-10.44-3.34-1.93,1.49-5.45,4.88-6.74,8.44L62.16,119.7H46.66l9-24.76c3-8.26-8-5.24-10.45-3.34-1.93,1.49-5.45,4.88-6.74,8.45L31.33,119.7H15.82L30.08,80.39c4.93,0,7.6,1.14,9.85,3.35a6.2,6.2,0,0,1,1.61,3A51.12,51.12,0,0,1,48.75,83a32.49,32.49,0,0,1,12.16-2.56c4.94,0,7.61,1.14,9.85,3.35a6.2,6.2,0,0,1,1.61,3A51.12,51.12,0,0,1,79.58,83a32.59,32.59,0,0,1,12.17-2.56c4.93,0,7.6,1.14,9.85,3.35S103.79,90,103,92.18L93,119.7Zm103.5-33a3.18,3.18,0,1,1,3.18-3.18A3.18,3.18,0,0,1,181,86.65Zm0-5.89a2.71,2.71,0,1,0,2.68,2.71A2.69,2.69,0,0,0,181,80.76Zm.78,4.45-.8-1.42h-.53v1.42H180V81.73h1.18a1.06,1.06,0,0,1,1.1,1,1,1,0,0,1-.75,1l.84,1.48Zm-.68-3h-.65v1.21h.65a.61.61,0,0,0,.66-.6A.61.61,0,0,0,181.1,82.16Z"></path></g></g></svg> 