<?xml version="1.0" encoding="UTF-8"?> <svg xmlns="http://www.w3.org/2000/svg" version="1.1" viewBox="0 0 200 200" xml:space="preserve"> <style type="text/css"> .st0{fill:#FFFFFF;} </style> <path class="st0" d="m22.4 93.2v11.5 7.5c0 0.9-0.2 1.2-1.1 1.2-2-0.1-4.1 0-6.1 0-1.3 0-1.3 0-1.3-1.3v-22-3.1c0-0.7 0.2-1 1-1h12.5c0.3 0 0.8 0.2 1 0.5 2.8 3.3 5.5 6.6 8.2 9.8 2.4 2.9 4.8 5.7 7.2 8.5 0.2 0.2 0.4 0.5 0.6 0.7 0.1 0 0.2-0.1 0.3-0.1v-1-17.4c0-0.9 0.2-1.2 1.1-1.2 2.1 0.1 4.2 0 6.3 0 0.7 0 1 0.2 1 1v25.3c0 0.8-0.3 1-1 1h-12.3c-0.4 0-0.9-0.2-1.2-0.5-2.8-2.4-4.7-5.6-7-8.5-2.9-3.4-6-7-9.2-10.9z"></path> <path class="st0" d="m74.3 113.8h-8.5c-2.6 0-5.1-0.7-7.3-2.2-1.5-1-2.1-2.6-2.2-4.2-0.1-4.8-0.2-9.7 0-14.5 0.2-3.3 2.1-6.4 6.4-6.9 1.6-0.2 3.2-0.4 4.9-0.4 5-0.1 10 0 15 0 2.2 0 4.3 0.3 6.4 1.1 2.8 1.1 3.9 2.7 3.9 5.5 0.1 4.9 0 9.8 0 14.8 0 2.9-1.7 5.2-4.5 5.9-1.9 0.4-3.8 0.7-5.8 0.8-2.9 0.2-5.6 0.1-8.3 0.1zm0.3-7.2h7c0.6 0 1.2-0.1 1.8-0.2 1.3-0.2 1.6-0.6 1.6-1.9v-8.9c0-2.5-0.3-2.8-2.8-3.1h-0.8c-4.9 0-9.8 0.1-14.7 0.1h-0.8c-1.1 0.1-2 1.1-2 2.2v9.6c0 0.9 0.4 1.5 1.3 1.8 0.6 0.2 1.2 0.3 1.9 0.3 2.5 0.1 5 0.1 7.5 0.1z"></path> <path class="st0" d="m186.2 113.4h-9.5c-0.4 0-0.9-0.5-1.1-0.8-0.6-1-1-2-1.4-3-0.2-0.6-0.5-0.8-1.1-0.8h-15.3c-0.6 0-0.9 0.2-1.2 0.8-0.6 1.2-1.3 2.3-2.1 3.4-0.1 0.2-0.5 0.5-0.7 0.5h-8.9c0.3-0.6 0.5-1 0.7-1.5 3.8-6.6 7.7-13.2 11.5-19.8 0.9-1.6 1.7-3.3 2.5-4.9 0.4-0.7 0.9-1 1.7-1h9.1c0.7 0 1.2 0.3 1.6 1 1.9 3.7 3.9 7.5 5.9 11.2 2.5 4.6 5.1 9.2 7.7 13.8 0 0.2 0.2 0.5 0.6 1.1zm-26.1-10.7h10.4c-1.9-3.2-3.7-6.3-5.5-9.4-1.6 3.1-3.2 6.2-4.9 9.4z"></path> <path class="st0" d="m104.9 98.6c4.7-4.1 9.2-8.1 13.7-12 0.3-0.3 0.7-0.5 1.1-0.5h10.1c0.1 0 0.3 0.1 0.6 0.4-5.2 4.2-10.4 8.5-15.6 12.7 5.8 4.6 11.7 9.2 17.5 13.9 0 0.1-0.1 0.2-0.1 0.3-0.3 0-0.6 0.1-0.9 0.1h-10.1c-0.5 0-1.1-0.2-1.4-0.5-4.7-4.1-9.3-8.3-14-12.4-0.2-0.2-0.4-0.4-0.8-0.7 0 0.5-0.1 0.8-0.1 1.1v11.5c0 0.8-0.2 1.1-1 1h-7c-0.8 0-1.1-0.3-1.1-1.1v-25.1c0-0.8 0.3-1.1 1.1-1h7c0.9 0 1.1 0.3 1.1 1.1v10.3c-0.1 0.1-0.1 0.5-0.1 0.9z"></path> <path class="st0" d="m143.3 99.7v12.6c0 0.8-0.2 1.2-1.1 1.2-2.2-0.1-4.3 0-6.5 0-0.6 0-0.8-0.2-0.8-0.8v-25.6c0-0.7 0.3-0.9 0.9-0.9h6.5c0.8 0 1 0.3 1 1.1v12.4z"></path> </svg> 