<?xml version="1.0" encoding="UTF-8"?> <svg xmlns="http://www.w3.org/2000/svg" version="1.1" viewBox="0 0 200 200" xml:space="preserve"> <style type="text/css"> .st0{fill:#FFFFFF;} </style> <path class="st0" d="m190.6 81.7v37.9h-0.7-133.9-0.7v-37.9h0.7 133.9 0.7zm-91.1 22.6l-0.3-0.3c-1.5-2-3.1-3.9-4.6-5.9-1.6-2-3.1-4-4.7-6-0.4-0.5-0.8-0.7-1.4-0.7h-1.2c-0.5 0-0.6 0.1-0.6 0.6v17.7 0.5h3.1v-13c0.2 0.2 0.3 0.4 0.4 0.5 3.1 3.9 6.1 7.8 9.2 11.7 0.2 0.3 0.6 0.7 0.9 0.7 0.7 0.1 1.5 0 2.2 0v-18.7h-0.5-2c-0.4 0-0.6 0.1-0.6 0.6 0.1 4 0.1 8.2 0.1 12.3zm-15.4-3.5c0-0.3 0-0.7-0.1-1.1-0.4-3.1-1.7-5.6-4.5-7.2-1.9-1.1-4-1.4-6.2-1.2-2.8 0.3-5.1 1.6-6.7 3.9-1.4 2.1-1.8 4.4-1.5 6.8 0.4 3.2 1.8 5.6 4.6 7.2 1.7 1 3.6 1.3 5.6 1.1 1.9-0.1 3.7-0.7 5.2-1.9 2.5-1.9 3.5-4.5 3.6-7.6zm22.3-9.4v18.8h11.8v-2.8h-8.2v-5.3h6.5v-2.7h-6.5v-5.2h8.3v-2.8h-11.9zm44.4 0v0.4 11.3c0 0.9 0.2 1.9 0.5 2.7 1.1 3 3.4 4.5 6.5 4.7 2.7 0.2 5.1-0.7 6.7-3 1-1.4 1.3-3 1.3-4.7v-10.8-0.5h-2.6v0.6 10.8c0 0.9-0.1 1.8-0.5 2.7-0.9 2-2.9 3-5.2 2.7-2.1-0.3-3.5-1.6-3.9-3.7-0.1-0.6-0.2-1.2-0.2-1.9v-10.7-0.6h-2.6zm-26.5 11.8h1c1.1 0 2.3 0 3.4-0.1 1.2-0.1 2.3-0.5 3.3-1.2 2-1.4 2.6-3.4 2.3-5.7s-1.6-3.8-3.8-4.4c-0.8-0.2-1.7-0.4-2.6-0.4-2-0.1-3.9 0-5.9 0h-0.3v18.8h2.5c0.1-2.3 0.1-4.6 0.1-7zm50.9-12c-0.9 0-1.9 0.1-2.8 0.6-1.9 1-2.9 2.6-2.9 4.7 0 2.2 1.1 3.6 3.1 4.4 0.7 0.3 1.4 0.5 2 0.7l2.4 0.9c0.7 0.3 1.2 0.9 1.4 1.6 0.4 1.8-0.6 3.6-2.5 4-1.6 0.4-3.1 0.1-4.5-0.9-0.3-0.2-0.6-0.5-1-0.7-0.4-0.3-0.8-0.2-1.1 0.2-0.2 0.2-0.3 0.5-0.5 0.8-0.3 0.3-0.2 0.5 0.1 0.8 1.9 1.7 4.2 2.4 6.7 2 4.1-0.6 5.6-3.9 5.1-6.9-0.3-1.6-1.4-2.6-2.8-3.2-1-0.4-2-0.7-3.1-1.1-0.7-0.3-1.3-0.6-2-0.9-0.5-0.3-0.9-0.7-1-1.3-0.3-1.3 0.3-2.6 1.5-3.2 0.9-0.4 1.8-0.5 2.7-0.3 0.9 0.1 1.7 0.6 2.5 1.1 0.6 0.4 0.9 0.3 1.3-0.3 0.1-0.2 0.2-0.5 0.4-0.7 0.2-0.3 0.1-0.4-0.1-0.6-1.3-1.2-3-1.8-4.9-1.7zm-37.7 0.2v18.8h10.7v-2.2h-8.1v-16.7c-0.9 0.1-1.7 0.1-2.6 0.1z"></path> <path class="st0" d="m44.1 75.3v5.4 1h6.3v3.1h-0.5-5.1c-0.7 0-0.7 0-0.7 0.6v5.2c0 0.4-0.1 0.5-0.5 0.5h-2.6v-6.4h-6.3v-3.2h6.2c0-0.1 0.1-0.1 0.1-0.1v-6.3c1 0.2 2.1 0.2 3.1 0.2z"></path> <path class="st0" d="m41 96h3.1v23.5h-38.1v-37.8h23.8v2.9c0 0.1-0.1 0.2-0.2 0.2h-0.5-19.3c-0.6 0-0.6 0-0.6 0.6v30.6c0 0.6 0 0.6 0.7 0.6h30.5 0.6v-20.6z"></path> <path class="st0" d="m23.5 94.4h-4.7v-3.2h0.2 7.7v15.9h4.8v3.1h-12.6v-3.1h0.5 3.8c0.3 0 0.4 0 0.4-0.4v-12.1c-0.1 0-0.1-0.1-0.1-0.2z"></path> <path class="st0" d="m80.5 101.1c-0.1 0.7-0.2 1.7-0.5 2.6-1 2.9-3.5 3.9-6 3.7-3.6-0.3-5.1-2.9-5.3-5.5-0.1-1.5 0-2.9 0.6-4.3 0.9-2.1 2.5-3.2 4.7-3.3 0.8 0 1.7 0 2.5 0.2 2.3 0.6 3.4 2.3 3.8 4.6 0.1 0.5 0.1 1.1 0.2 2z"></path> <path class="st0" d="m124.3 101.1v-7.7c1.6 0.1 3.2-0.2 4.8 0.2 1.5 0.4 2.5 1.6 2.6 3.2 0.1 2.4-1.1 4-3.6 4.2-1.2 0.2-2.5 0.1-3.8 0.1z"></path> </svg> 