<?xml version="1.0" encoding="UTF-8"?> <svg xmlns="http://www.w3.org/2000/svg" viewBox="0 0 200 200"><defs><style>.cls-1,.cls-2{fill:#fff;}.cls-2{opacity:0;}</style></defs><g id="Layer_2" data-name="Layer 2"><g id="Layer_1-2" data-name="Layer 1"><g id="Layer_2-2" data-name="Layer 2"><g id="svg4"><path id="path1460" class="cls-1" d="M57.49,100.69V84.51a3,3,0,0,1,3-3h3v1.27c0,.7,0,1.27,0,1.27l.83-.5c5.3-3.32,13-4.32,19.88-2.59,6.22,1.56,10.72,5.26,12.32,10.13a13.33,13.33,0,0,1-.14,8.75,14.87,14.87,0,0,1-7.69,8.05,25,25,0,0,1-11.35,2.49,26.34,26.34,0,0,1-9.68-1.73,22.67,22.67,0,0,1-3.51-1.78l-.68-.46v10.47a3,3,0,0,1-3,3h0a3,3,0,0,1-3-3Zm22.75,4.59A15.06,15.06,0,0,0,88.17,102a9.08,9.08,0,0,0,2.9-5,12,12,0,0,0,0-3.49,9.21,9.21,0,0,0-3.75-5.72,15.81,15.81,0,0,0-3.44-1.72,21.63,21.63,0,0,0-9.68-.8c-5.61.83-9.41,3.61-10.43,7.65a9.46,9.46,0,0,0,.23,5.4c1.35,3.82,5.32,6.37,10.94,7a33.42,33.42,0,0,0,5.3-.06Zm19.82-4.59V84.51a3,3,0,0,1,3-3h3v1.27c0,.7,0,1.27,0,1.27s.35-.21.73-.46a23.81,23.81,0,0,1,3.79-1.87A28.1,28.1,0,0,1,126.65,81c8.51,2.13,13.52,8,13,15.23-.36,5.53-4,10.08-10.09,12.47a26.12,26.12,0,0,1-6.54,1.58,39.35,39.35,0,0,1-6.33,0,23.46,23.46,0,0,1-10.13-3.42l-.57-.38v10.46a3,3,0,0,1-3,3h0a3,3,0,0,1-3-3ZM123,105.25c4.65-.7,7.94-2.57,9.66-5.52a9.21,9.21,0,0,0,1-6.11c-.77-4.41-4.63-7.46-10.57-8.33a20.7,20.7,0,0,0-11.33,1.47,9.5,9.5,0,0,0-5.54,6.72,13.34,13.34,0,0,0,0,3.57,8.87,8.87,0,0,0,3,5.06,15.32,15.32,0,0,0,8.4,3.24,32.23,32.23,0,0,0,5.38-.09Zm-90.18,5.09a26.47,26.47,0,0,1-8.18-1.89c-5.24-2.24-8.55-6-9.44-10.77A17.91,17.91,0,0,1,15,93.74C15.69,88,19.9,83.5,26.55,81.37a28.42,28.42,0,0,1,11.81-1c7.17.92,12.59,4.25,15,9.18a13.3,13.3,0,0,1-.64,12.65,16,16,0,0,1-4.56,4.6A23.33,23.33,0,0,1,38,110.22c-.8.1-4.48.18-5.23.12Zm4.24-5a16.32,16.32,0,0,0,7.72-2.62,9.46,9.46,0,0,0,3.46-4.57,7.33,7.33,0,0,0,.41-2.89,7.48,7.48,0,0,0-.4-2.88c-1.1-3.35-4.3-5.85-8.77-6.83a21.59,21.59,0,0,0-11.88.78,10.88,10.88,0,0,0-5.5,4.47,9.31,9.31,0,0,0-.71,7.28,10,10,0,0,0,6,6A19.66,19.66,0,0,0,33,105.4a35.8,35.8,0,0,0,4-.05Zm123.35,5-1-.09a24.72,24.72,0,0,1-9.32-2.8,14.58,14.58,0,0,1-6.93-8,13.46,13.46,0,0,1-.35-7A14,14,0,0,1,149,83.74c4.35-2.88,10.74-4.17,16.91-3.39,5.13.65,9.35,2.52,12.29,5.46a13,13,0,0,1,3.89,7.92,16.24,16.24,0,0,1,0,3.27c-.8,6.11-5.65,10.78-13.06,12.6a24,24,0,0,1-6.31.74Zm3.93-5c3.95-.36,7.17-1.67,9.24-3.73a8.61,8.61,0,0,0,2.53-4.8,12.93,12.93,0,0,0,0-3.17c-.72-4.29-4.5-7.4-10.1-8.3a19.36,19.36,0,0,0-3.64-.29c-6.28,0-11.16,2.36-13,6.33a9.31,9.31,0,0,0,.65,8.84c1.86,2.79,5.39,4.58,10.06,5.09a30.86,30.86,0,0,0,4.3,0Z"></path></g></g><rect class="cls-2" width="200" height="200"></rect></g></g></svg> 