<svg xmlns="http://www.w3.org/2000/svg" viewBox="0 0 48 48"><defs><style>.cls-1{fill:#ff6c2c;}</style></defs><g id="Base_Icons" data-name="Base Icons"><path d="M15,27V21a1.50164,1.50164,0,0,0-1.5-1.5h-6A1.50164,1.50164,0,0,0,6,21v6a1.50164,1.50164,0,0,0,1.5,1.5h6A1.50164,1.50164,0,0,0,15,27ZM7,27V21a.501.501,0,0,1,.5-.5h6a.501.501,0,0,1,.5.5v6a.501.501,0,0,1-.5.5h-6A.501.501,0,0,1,7,27Z"/><path d="M24,6a4.5,4.5,0,1,0,4.5,4.5A4.50491,4.50491,0,0,0,24,6Zm0,8a3.5,3.5,0,1,1,3.5-3.5A3.50424,3.50424,0,0,1,24,14Z"/><path d="M32.5,11h3.998a.50305.50305,0,0,1,.502.502v3.68286L35.874,13.918a.50013.50013,0,0,0-.748.66406l2,2.25.01172.00879a.49905.49905,0,0,0,.09625.07178.48478.48478,0,0,0,.0636.043A150.89183,150.89183,0,0,0,37.48535,17H37.5a.50366.50366,0,0,0,.35413-.147l1.99939-1.99951a.5.5,0,1,0-.707-.707L38,15.293V11.502A1.50373,1.50373,0,0,0,36.49805,10H32.5a.5.5,0,0,0,0,1Z"/><path d="M25.293,33H22.707A1.20782,1.20782,0,0,0,21.5,34.207V40.793A1.20782,1.20782,0,0,0,22.707,42H25.293A1.20782,1.20782,0,0,0,26.5,40.793V34.207A1.20782,1.20782,0,0,0,25.293,33Zm.207,7.793a.20713.20713,0,0,1-.207.207H22.707a.20713.20713,0,0,1-.207-.207V34.207A.20713.20713,0,0,1,22.707,34H25.293a.20713.20713,0,0,1,.207.207Z"/><path d="M37.5,19.75a1.69868,1.69868,0,0,0-1.501.8916l-2.77246,4.98145h-.001a1.77306,1.77306,0,0,0,.02148,1.77343,1.70757,1.70757,0,0,0,1.48047.85352h5.54492a1.70757,1.70757,0,0,0,1.48047-.85352,1.77069,1.77069,0,0,0,.02051-1.77343L39.001,20.6416A1.69868,1.69868,0,0,0,37.5,19.75Zm3.39062,7.13867a.70546.70546,0,0,1-.61816.36133H34.72754a.70546.70546,0,0,1-.61816-.36133.77718.77718,0,0,1-.00879-.77929l2.77148-4.98145a.72727.72727,0,0,1,1.25586,0l2.77148,4.98145A.77718.77718,0,0,1,40.89062,26.88867Z"/><path d="M15.5,37H11.502a.50305.50305,0,0,1-.502-.502V32.81519L12.126,34.082a.50013.50013,0,0,0,.748-.66406l-2-2.25-.01172-.00879a.49905.49905,0,0,0-.09625-.07178.48478.48478,0,0,0-.0636-.043A150.89183,150.89183,0,0,0,10.51465,31l-.00775.00146L10.5,31a.47377.47377,0,0,0-.11.02222.50715.50715,0,0,0-.07678.01538.497.497,0,0,0-.1673.10937L8.14648,33.14648a.5.5,0,0,0,.707.707L10,32.707v3.791A1.50373,1.50373,0,0,0,11.502,38H15.5a.5.5,0,0,0,0-1Z"/><path d="M16.97913,10.39648a.50581.50581,0,0,0-.01722-.08544.49726.49726,0,0,0-.109-.165L14.85352,8.14648a.5.5,0,0,0-.707.707L15.293,10H11.502A1.50373,1.50373,0,0,0,10,11.502V15.5a.5.5,0,0,0,1,0V11.502A.50305.50305,0,0,1,11.502,11h3.6828L13.918,12.126a.50013.50013,0,0,0,.66406.748l2.25-2,.00873-.01172a.50167.50167,0,0,0,.0719-.09619.49508.49508,0,0,0,.04285-.06372.50111.50111,0,0,0,.02465-.104A.49051.49051,0,0,0,17,10.51465l-.0014-.00781L17,10.5A.479.479,0,0,0,16.97913,10.39648Z"/></g><g id="Sub_Icons" data-name="Sub Icons"><path class="cls-1" d="M41.96387,34.582a1.04234,1.04234,0,0,0-.11524-.81641L40.919,32.21875a1.08407,1.08407,0,0,0-1.40625-.4248c-.03028.01074-.15235.02539-.17969.041a7.45965,7.45965,0,0,0-1.30762-.76172A1.08567,1.08567,0,0,0,36.92969,30H35.07031a1.14287,1.14287,0,0,0-1.127,1.123,9.82442,9.82442,0,0,0-1.375.708,1.11351,1.11351,0,0,0-1.48828.38868l-.92871,1.54589a1.0447,1.0447,0,0,0-.11524.81739,1.184,1.184,0,0,0,.55567.70117A5.09248,5.09248,0,0,0,30.541,36c0,.24316.01757.48145.01562.75586a1.06586,1.06586,0,0,0-.52051.66113,1.0447,1.0447,0,0,0,.11524.81739l.92968,1.54687a1.08551,1.08551,0,0,0,1.40625.4248c.03028-.01074.15235-.02539.17969-.041a7.45965,7.45965,0,0,0,1.30762.76172A1.08567,1.08567,0,0,0,35.07031,42h1.85938a1.14287,1.14287,0,0,0,1.127-1.123A5.50691,5.50691,0,0,0,39.333,40.165l.10058.00586a1.11367,1.11367,0,0,0,1.48633-.39063l.92871-1.54589a1.0447,1.0447,0,0,0,.11524-.81739,1.06586,1.06586,0,0,0-.52051-.66113l-.24219.4375.207-.47754A5.09248,5.09248,0,0,0,41.459,36c0-.24316-.01757-.48145-.01464-.75586A1.06623,1.06623,0,0,0,41.96387,34.582ZM40.0625,39.26562a.11217.11217,0,0,1-.14844.02833,1.08729,1.08729,0,0,0-1.18066.07031,4.50847,4.50847,0,0,1-1.04492.583,1.0489,1.0489,0,0,0-.66309.97949A.08744.08744,0,0,1,36.92969,41H35.07031a.08846.08846,0,0,1-.0957-.07422,1.047,1.047,0,0,0-.66406-.97851,4.522,4.522,0,0,1-1.044-.583,1.06959,1.06959,0,0,0-.64062-.21094,1.11619,1.11619,0,0,0-.54493.14258.11008.11008,0,0,1-.14257-.0293L31.043,37.62988a1.04154,1.04154,0,0,0,.53906-1.05664,4.02012,4.02012,0,0,1,0-1.14551,1.21383,1.21383,0,0,0-.57324-1.14648l.92871-1.54687a.1173.1173,0,0,1,.14844-.02833,1.09328,1.09328,0,0,0,1.18066-.07031,4.50847,4.50847,0,0,1,1.04492-.583,1.0489,1.0489,0,0,0,.66309-.97949A.08744.08744,0,0,1,35.07031,31h1.85938a.08846.08846,0,0,1,.0957.07422,1.047,1.047,0,0,0,.66406.97851,4.522,4.522,0,0,1,1.044.583,1.09134,1.09134,0,0,0,1.18555.06836.10755.10755,0,0,1,.14257.0293l.89551,1.63672a1.04154,1.04154,0,0,0-.53906,1.05664,4.02012,4.02012,0,0,1,0,1.14551,1.04216,1.04216,0,0,0,.53906,1.05761l.03418.08887Z"/><path class="cls-1" d="M37.25,33.834a2.49982,2.49982,0,1,0,.915,3.416h.001A2.50612,2.50612,0,0,0,37.25,33.834Zm.0498,2.916a1.49962,1.49962,0,1,1-.5498-2.0498A1.50388,1.50388,0,0,1,37.2998,36.75Z"/></g></svg>