<?xml version="1.0" encoding="utf-8"?>
<!-- Generator: Adobe Illustrator 15.0.0, SVG Export Plug-In . SVG Version: 6.00 Build 0)  -->
<!DOCTYPE svg PUBLIC "-//W3C//DTD SVG 1.1//EN" "http://www.w3.org/Graphics/SVG/1.1/DTD/svg11.dtd">
<svg version="1.1" id="Layer_1" xmlns="http://www.w3.org/2000/svg" xmlns:xlink="http://www.w3.org/1999/xlink" x="0px" y="0px"
	 width="10.58px" height="10.584px" viewBox="0 0 10.58 10.584" enable-background="new 0 0 10.58 10.584" xml:space="preserve">
<path fill="#231F20" d="M5.283,10.414c-2.84,0-5.145-2.304-5.145-5.145c0-2.84,2.305-5.145,5.145-5.145s5.145,2.305,5.145,5.145
	C10.428,8.11,8.123,10.414,5.283,10.414z M5.417,1.84c-1.092,0-1.908,0.469-2.484,1.427C2.872,3.36,2.898,3.481,2.985,3.548
	l0.885,0.67c0.033,0.027,0.08,0.04,0.127,0.04c0.061,0,0.128-0.026,0.168-0.08c0.314-0.401,0.448-0.522,0.576-0.616
	C4.854,3.481,5.076,3.4,5.317,3.4c0.429,0,0.823,0.275,0.823,0.57c0,0.348-0.181,0.522-0.589,0.71
	c-0.476,0.214-1.126,0.77-1.126,1.42v0.241c0,0.12,0.094,0.214,0.215,0.214h1.286c0.12,0,0.214-0.094,0.214-0.214
	c0-0.154,0.194-0.482,0.509-0.663c0.51-0.288,1.206-0.677,1.206-1.695C7.855,2.758,6.569,1.84,5.417,1.84z M6.141,7.199
	c0-0.121-0.094-0.215-0.214-0.215H4.641c-0.121,0-0.215,0.094-0.215,0.215v1.286c0,0.12,0.094,0.214,0.215,0.214h1.286
	c0.12,0,0.214-0.094,0.214-0.214V7.199z"/>
</svg>
