<?xml version="1.0" encoding="UTF-8"?> <svg xmlns="http://www.w3.org/2000/svg" version="1.1" viewBox="0 0 200 200" xml:space="preserve"> <style type="text/css"> .st0{fill:#FFFFFF;} </style> <path class="st0" d="m60.6 84.9h0.3 9.3c0.3 0 0.3 0.1 0.4 0.3 0.3 1.7 0.5 3.5 0.8 5.2s0.6 3.4 0.8 5.1c0.3 1.7 0.6 3.4 0.8 5.2 0.2 1 0.3 2.1 0.5 3.1h0.1l3-18.9h0.3 9.3c0.2 0 0.3 0.1 0.3 0.3 0.1 2.8 0.1 5.7 0.2 8.5 0.1 3.3 0.1 6.6 0.2 9.8 0 1.8 0.1 3.6 0.1 5.4v0.2h-0.3-5.5c-0.3 0-0.3-0.1-0.3-0.3v-6.8c0-4.9-0.1-9.9-0.1-14.8 0-0.1 0-0.2-0.1-0.3-0.1 0.4-0.2 0.8-0.2 1.2-0.5 2.7-1 5.3-1.5 8-0.5 2.6-0.9 5.1-1.4 7.7-0.3 1.7-0.6 3.4-1 5.2 0 0.1-0.1 0.2-0.2 0.2h-5.8-0.1c-1.4-7.4-2.8-14.9-4.1-22.3h-0.1v0.3c0 6-0.1 12.1-0.1 18.1v3.7c0 0.2 0 0.3-0.3 0.3h-5.6-0.2c0.1-8.3 0.3-16.3 0.5-24.4z"></path> <path class="st0" d="m160.3 108.9h-0.3-8c-0.2 0-0.3-0.1-0.4-0.3-1.8-6-3.6-11.9-5.4-17.9-0.2-0.6-0.4-1.2-0.5-1.7 0-0.1 0-0.1-0.1-0.2l0.3 20.1h-0.3-5.3c-0.2 0-0.3 0-0.3-0.3v-23.5-0.3h0.3 8.5c0.2 0 0.3 0.1 0.3 0.3 1.4 4.7 2.8 9.5 4.2 14.2 0.5 1.6 0.9 3.2 1.4 4.7 0 0.1 0 0.1 0.1 0.2h0.1c-0.1-6.5-0.2-12.9-0.3-19.4h6c-0.3 8.1-0.3 16.1-0.3 24.1z"></path> <path class="st0" d="m127 84.9h6.1v0.4 16.8c0 1 0 1.9-0.2 2.9-0.5 2.3-1.9 3.7-4.1 4.4-1.1 0.4-2.2 0.5-3.3 0.6-1.6 0.1-3.1 0-4.7-0.4-1.2-0.3-2.3-0.9-3.2-1.8-0.8-0.9-1.3-2-1.5-3.2-0.1-0.7-0.1-1.3-0.1-2v-17.2-0.1c0-0.2 0.1-0.3 0.3-0.3h5.5 0.3v0.3 17.9c0 0.3 0 0.6 0.1 0.9 0.3 1.3 1.4 1.8 2.6 1.6 1.4-0.2 2.1-1 2.1-2.4v-17.9c0.1-0.3 0.1-0.4 0.1-0.5z"></path> <path class="st0" d="m183.9 92.6h-0.3-5.5c-0.2 0-0.3 0-0.3-0.3 0-0.6 0-1.3-0.1-1.9-0.1-1-0.8-1.7-1.8-1.9-0.5-0.1-1-0.1-1.5 0.1-0.9 0.3-1.6 1-1.6 2 0 0.4-0.1 0.8-0.1 1.3v10.5c0 0.4 0 0.8 0.1 1.1 0.2 1 1 1.7 2.1 1.8 0.5 0 1 0 1.5-0.2 0.8-0.3 1.4-0.9 1.4-1.8 0.1-1.4 0-2.8 0-4.3h-2.4v-3.5h8.5v0.3 6.5c0 1.2-0.1 2.4-0.7 3.6-0.7 1.5-2 2.4-3.5 3-1.1 0.4-2.2 0.6-3.3 0.7-1.7 0.1-3.4 0-5.1-0.5-1.5-0.5-2.7-1.2-3.6-2.6-0.6-0.9-0.9-1.8-0.9-2.8-0.1-1.3-0.1-2.7-0.1-4v-7.8c0-1.2 0.1-2.3 0.5-3.4 0.7-1.9 2.1-3.1 4-3.7 1.6-0.6 3.4-0.7 5.1-0.6 1.2 0.1 2.3 0.2 3.4 0.6 2.4 0.9 3.8 2.5 4.1 5.1 0.1 0.9 0.1 1.8 0.1 2.7z"></path> <path class="st0" d="m30.8 91.9h-6v-0.3c0-0.6 0-1.2-0.1-1.7-0.2-1.2-1.2-1.7-2.3-1.7-0.2 0-0.5 0-0.7 0.1-0.9 0.2-1.4 1-1.5 1.9-0.1 1 0.3 1.8 1.1 2.3 0.8 0.6 1.7 1.1 2.5 1.6 1.4 0.8 2.8 1.6 4.2 2.5 0.5 0.3 1 0.7 1.4 1.1 1.1 1 1.8 2.2 1.9 3.7 0.1 1.4 0.1 2.8-0.3 4.2-0.6 1.9-1.9 3.1-3.7 3.8-1.1 0.4-2.2 0.6-3.4 0.7-1.6 0.1-3.1 0.1-4.6-0.3-1.4-0.3-2.7-0.9-3.8-1.9-0.9-0.9-1.5-2.1-1.6-3.4-0.1-1.1-0.1-2.1-0.2-3.2h6.5v0.3 2.2c0.1 1.1 0.6 1.7 1.7 2 0.6 0.2 1.2 0.1 1.8-0.1 0.8-0.3 1.2-0.9 1.3-1.6 0.3-1.3-0.2-2.3-1.2-3.1s-2.1-1.4-3.3-2c-1.4-0.8-2.8-1.5-4.1-2.5-0.7-0.6-1.4-1.2-1.9-2-0.8-1.3-0.9-2.6-0.8-4.1 0.1-0.9 0.2-1.7 0.6-2.5 0.7-1.5 1.8-2.4 3.3-3 1.2-0.5 2.4-0.7 3.7-0.7 1.5-0.1 3 0 4.5 0.4 0.8 0.2 1.5 0.5 2.2 0.9 1.2 0.7 1.9 1.8 2.3 3.1 0.6 1 0.5 2.1 0.5 3.3z"></path> <path class="st0" d="m45.3 86.8c-0.1 0.4-0.1 0.8-0.2 1.2-0.2 1.6-0.5 3.2-0.7 4.8-0.3 1.7-0.5 3.5-0.8 5.2-0.2 1.5-0.4 2.9-0.7 4.4-0.2 1.5-0.4 3-0.7 4.4l-0.3 2.1c0 0.1-0.1 0.2-0.2 0.2h-6.2-0.2c1.5-8.1 3-16.2 4.5-24.2h10.8c1.5 8.1 3 16.1 4.5 24.3h-0.3-5.9c-0.2 0-0.3-0.1-0.3-0.3-0.2-1.7-0.5-3.3-0.7-5-0.2-1.5-0.4-3-0.7-4.5-0.2-1.7-0.5-3.3-0.7-4.9l-0.6-4.2c-0.2-1.2-0.4-2.3-0.6-3.5 0.1 0.1 0 0 0 0z"></path> <path class="st0" d="m93.1 101.2h6.4v0.3 2c0 1.2 0.8 2.1 2.1 2.2h1c1-0.2 1.6-0.8 1.8-1.8 0.2-1.1-0.2-2-1-2.8-0.9-0.8-1.9-1.4-3-1.9-1.5-0.8-2.9-1.6-4.3-2.6-0.7-0.5-1.3-1.1-1.9-1.8-0.7-1-1-2.1-1-3.3 0-1.3 0.1-2.6 0.7-3.8 0.8-1.5 2-2.3 3.5-2.8s3-0.6 4.6-0.6c1.3 0 2.6 0.1 3.9 0.6 1.4 0.5 2.6 1.3 3.3 2.7 0.4 0.8 0.6 1.8 0.6 2.7v1.6c0 0.1 0 0.2-0.2 0.2h-5.7-0.1v-0.9c0-0.4 0-0.8-0.1-1.2-0.3-1.2-1.4-1.6-2.5-1.5s-1.7 0.6-1.9 1.6c-0.2 0.9 0 1.7 0.6 2.3s1.4 1.1 2.2 1.5c1.4 0.8 2.8 1.5 4.2 2.4 0.7 0.5 1.4 1 2.1 1.6 1.1 1 1.7 2.3 1.8 3.8 0.1 1.2 0.1 2.4-0.2 3.6-0.4 1.8-1.4 3-3 3.8-1.1 0.6-2.3 0.9-3.6 1-1.2 0.1-2.4 0.1-3.7 0-1.6-0.2-3.2-0.6-4.5-1.6-1.3-0.9-2-2.2-2.2-3.8 0-1.3 0.1-2.3 0.1-3.5-0.1 0-0.1 0 0 0z"></path> </svg> 