<svg xmlns="http://www.w3.org/2000/svg" viewBox="0 0 48 48"><defs><style>.cls-1{fill:#ff6c2c;}</style></defs><g id="Base_Icons" data-name="Base Icons"><path d="M28.5,41H19V38.5a.5.5,0,0,0-1,0V41H15V38.5a.5.5,0,0,0-1,0V41H11V38.5a.5.5,0,0,0-1,0V41H7.5a.501.501,0,0,1-.5-.5V33H27a.5.5,0,0,0,0-1H7.10559L9.7793,18.09473a.50026.50026,0,0,0-.98242-.18946l-2.78809,14.5a.48546.48546,0,0,0,.00152.14331c-.00158.01783-.01031.033-.01031.051V40.5A1.50164,1.50164,0,0,0,7.5,42h21a.5.5,0,0,0,0-1Z"/><path d="M19,8H35.05762a1.4897,1.4897,0,0,1,1.40722.96289l4.54395,23.63184A.5.5,0,0,0,41.499,33a.53691.53691,0,0,0,.09571-.00879.50138.50138,0,0,0,.39648-.58594L37.43066,8.71A2.49864,2.49864,0,0,0,35.05762,7H19a.5.5,0,0,0,0,1Z"/><path d="M6.874,11.832l1.45215-1.63379,1.707,4.47949A.49935.49935,0,0,0,10.5,15l.0293-.001a.50051.50051,0,0,0,.45605-.37793l1.625-6.5,1.42578,3.56446A.49836.49836,0,0,0,14.5,12h2a.5.5,0,0,0,0-1H14.83887l-1.875-4.68555a.48124.48124,0,0,0-.498-.31347.50027.50027,0,0,0-.45117.37793L10.40039,12.835,8.9668,9.07227a.49946.49946,0,0,0-.377-.31446A.51946.51946,0,0,0,8.126,8.918L6.27539,11H5.5a.5.5,0,0,0,0,1h1A.502.502,0,0,0,6.874,11.832Z"/></g><g id="Sub_Icons" data-name="Sub Icons"><path class="cls-1" d="M42,35.5H36.5V30a.49971.49971,0,0,0-.5-.5A6.5,6.5,0,1,0,42.5,36,.49971.49971,0,0,0,42,35.5Zm-6,6a5.50016,5.50016,0,0,1-.5-10.97754V36a.49971.49971,0,0,0,.5.5h5.47754A5.50689,5.50689,0,0,1,36,41.5Z"/></g></svg>