<?xml version="1.0" encoding="UTF-8"?> <svg xmlns="http://www.w3.org/2000/svg" viewBox="0 0 200 200"><defs><style>.cls-1,.cls-2{fill:#fff;}.cls-1{fill-opacity:0;}</style></defs><g id="Layer_2" data-name="Layer 2"><g id="Layer_1-2" data-name="Layer 1"><g id="Layer_1-2-2" data-name="Layer 1-2"><g id="svg4"><rect class="cls-1" width="200" height="200"></rect></g></g><g id="g3"><g id="g5"><path id="path7" class="cls-2" d="M181.87,113.18h7.74l-8-26.36h-11l-8,26.36h7.74l1.41-4.88h8.66l1.42,4.88m-8.41-10.74,2.64-9.11h0l2.64,9.11Z"></path><path id="path9" class="cls-2" d="M49,113.65c7.95,0,11.79-1.4,12.34-8.57.13-1.71.15-3.46.15-5.08s0-3.37-.15-5.08C60.82,87.75,57,86.35,49,86.35s-11.79,1.4-12.33,8.57c-.13,1.71-.16,3.46-.16,5.08s0,3.37.16,5.08c.54,7.17,4.38,8.57,12.33,8.57M44,100c0-1.45,0-2.3.07-2.94.2-4.07,1.81-4.54,4.93-4.54S53.76,93,54,97.06c0,.63.07,1.49.07,2.94s0,2.31-.07,2.94c-.2,4.07-1.8,4.54-4.93,4.54s-4.73-.47-4.93-4.54C44.07,102.31,44,101.45,44,100Z"></path><polyline id="polyline11" class="cls-2" points="10.39 86.83 10.39 93.4 18.27 93.4 18.27 113.19 26.15 113.19 26.15 93.4 34.03 93.4 34.03 86.83 10.39 86.83"></polyline><polyline id="polyline13" class="cls-2" points="131.33 113.18 131.33 86.82 123.85 86.82 123.85 113.18 131.33 113.18"></polyline><polyline id="polyline15" class="cls-2" points="101.23 96.44 101.23 86.82 93.8 86.82 93.8 113.18 101.23 113.18 101.23 103.02 109.88 103.02 109.88 113.18 117.31 113.18 117.31 86.82 109.88 86.82 109.88 96.44 101.23 96.44"></polyline><g id="g17"><path id="path19" class="cls-2" d="M155.93,99.4c3.31-.84,4.29-2.82,4.29-5.68,0-5.8-3.65-6.9-8.83-6.9H138v26.36h14.1c6.48,0,8.67-2.8,8.67-7.1,0-3-.69-5.64-4.8-6.68m-10.53,2.95h5.15c2.09,0,2.52.92,2.52,2.4a2.21,2.21,0,0,1-2.52,2.4H145.4Zm0-9.5h5.15A1.93,1.93,0,0,1,152.73,95a2,2,0,0,1-2.18,2.13H145.4Z"></path><path id="path21" class="cls-2" d="M65.86,104.53H73c0,1.28.17,2.13.79,2.61s1.33.7,3.43.7,4.22,0,4.22-2.48c0-2-1.23-2.41-3.51-2.53-5.65-.3-7.69-.46-9.8-2-1.43-1.06-2.17-3.14-2.17-5.94,0-4.78,1.66-6.45,4.06-7.62s12.2-1.2,14.82,0c3.29,1.52,3.39,4.8,3.39,7.85H81.11c0-1.56-.37-2-.65-2.28-.74-.65-1.78-.79-3.29-.79-1.83,0-3.94.08-3.94,2.3,0,1.69.73,2.4,2.65,2.53,2.64.16,7.85.33,9.7,1.43,2.6,1.53,3.28,3.62,3.28,7,0,4.91-1.76,6.35-4.21,7.43-2.82,1.25-12.24,1.25-15.3-.1-3.43-1.49-3.49-4.47-3.49-8.1"></path></g></g></g></g></g></svg> 