<?xml version="1.0" encoding="UTF-8"?> <svg xmlns="http://www.w3.org/2000/svg" viewBox="0 0 200 200"><defs><style>.cls-1,.cls-2{fill:#fff;}.cls-1{opacity:0;}</style></defs><g id="Layer_2" data-name="Layer 2"><g id="Layer_1-2" data-name="Layer 1"><g id="Layer_2-2" data-name="Layer 2"><g id="svg4"><rect class="cls-1" width="200" height="200"></rect></g></g><path class="cls-2" d="M79.92,82.3C78.2,88.19,75.6,97.94,73,106.42c-1.45,4.72-3,9.82-4.07,12.19a7.88,7.88,0,0,1-14.25,0c-1.29-3-3.94-11.71-5-14.81a3.13,3.13,0,0,0-4.08-1.72,3,3,0,0,0-1.73,1.72c-1.14,3.09-3,11.7-4.22,14.81a7,7,0,0,1-6.57,4.51,7.2,7.2,0,0,1-6.58-4.51c-.62-1.38-9.24-22.73-9.61-23.79a5.54,5.54,0,0,1-.47-2.12A4.69,4.69,0,0,1,21,87.93h0a4.65,4.65,0,0,1,4.46,3.45c1.07,3.82,4.16,16.77,4.52,18.13a3.14,3.14,0,0,0,6.07,0c0,.22,5.17-20.11,6.17-23.18a4.7,4.7,0,0,1,9,0c.58,1.72,5.46,18,7,23.18a3.17,3.17,0,0,0,3,2.34,3.11,3.11,0,0,0,3-2.34C66,102.25,70.82,80,70.82,80a4.71,4.71,0,0,1,9.33.83,5.67,5.67,0,0,1-.24,1.52m11.2.75c-4,0-4,3.45-4,6.33v27.47c0,2.81,0,6.29,4,6.29s4-3.45,4-6.29V89.38c0-2.67,0-6.33-4-6.33m73,.09c-11.51,0-19.49,8.24-19.49,20,0,12.27,7.46,19.89,19.49,19.89s19.51-7.43,19.51-19.89c0-12.06-7.84-20-19.51-20m0,6.53c5.69,0,11.58,5,11.58,13.53,0,9.84-6.23,13.34-11.58,13.34s-11.51-3.5-11.51-13.34c0-8.48,5.83-13.55,11.51-13.55Zm-30.64,31.59c.29.35.61.68.93,1a4,4,0,0,0,5.57-.47l.19-.25a4.12,4.12,0,0,0-.19-5.28l-11.39-12.18a3.26,3.26,0,0,1-.78-2.09,3.73,3.73,0,0,1,1-2.31l7.84-9c1.6-1.73,3.77-4.21,1.12-6.59s-4.76,0-6.44,1.81c0,0-3.45,3.83-4,4.5l-1.86,2a22.79,22.79,0,0,1-5.27,4.72,3.21,3.21,0,0,1-3.45-.3,3.12,3.12,0,0,1-1.14-2.46v-5c0-2.69,0-6.36-4-6.36s-4,3.45-4,6.36v27.42c0,2.69,0,6.36,4,6.36s4-3.45,4-6.36v-6.5a5.57,5.57,0,0,1,.66-3.6,3.24,3.24,0,0,1,2.69-1.2,3.42,3.42,0,0,1,2.5,1.5c.67.79,2.87,3.32,4.89,5.77Z"></path></g></g></svg> 