<?xml version="1.0" encoding="UTF-8"?> <svg xmlns="http://www.w3.org/2000/svg" version="1.1" viewBox="0 0 200 200" xml:space="preserve"> <style type="text/css"> .st0{fill:#FFFFFF;} </style> <path class="st0" d="m128.3 102.5v-13.9c0-1.6 0.5-2.1 2.1-2.1 8.5 0.1 17.1 0 25.6 0 5.9 0 10.1 3.9 10.2 9.8 0.1 6.8 0 13.6 0 20.4 0 1.3-0.6 1.9-1.9 1.8-1.5 0-3.1-0.1-4.6 0s-2.1-0.5-2.1-2.1c0.1-5.5 0-11 0-16.5 0-4.8-1.9-6.6-6.6-6.6-4.1 0-8.2 0.1-12.2 0-1.5 0-2.3 0.5-2.3 2 0 6.9 0.1 13.8 0.2 20.7 0 2-0.2 2.4-2.2 2.4h-4.6c-1.3 0-1.7-0.5-1.7-1.8 0.1-4.6 0.1-9.4 0.1-14.1z"></path> <path class="st0" d="m81.3 113.9c-0.5 0.5-0.9 0.9-1.4 1.3-4 3.3-8.6 4.2-13.5 2.6-4-1.3-5.9-4.6-5.8-9.4 0.1-3.9 2.5-7.2 6.5-8.2 3.2-0.8 6.5-1.1 9.8-1.6 0.4-0.1 0.8-0.1 1.1-0.1 1.4-0.2 2.7-0.5 3-2.1 0.3-1.7 0.4-3.4-0.9-4.8-2.2-2.2-8.2-2.5-10.5-0.4-0.9 0.8-1.6 1.9-2 3.1-0.4 1.3-1 1.7-2.3 1.7-3.4 0-3.6-0.2-2.7-3.5 0.6-2.4 2.1-4.3 4.2-5.4 5.2-2.5 10.6-2.6 15.9 0 2.8 1.4 4.1 3.9 4.1 7.1v16.7c0 2.4 0.1 2.4 2.3 2.8 0.4 0.1 1.1 0.6 1.1 1 0.1 1.1 0.5 2.3-0.9 3-2.2 1.1-6.9 0.4-7.6-2.9 0-0.2-0.2-0.5-0.4-0.9zm-0.3-11.6c-2 0.4-4 0.8-6 1.1-1.8 0.3-3.6 0.5-5.3 1-2.3 0.7-3.5 2.4-3.4 4.6 0.1 2.5 1.4 4.1 3.7 4.7 6.9 1.8 12.8-4.4 11-11.4z"></path> <path class="st0" d="m93.6 103c0-5.8 1.2-9.8 4.1-13.2 6-7 19.2-5.9 23.2 3.6 2.8 6.7 2.6 13.2-1.4 19.3-2.8 4.3-7 5.7-12 5.7-9.2-0.1-14.1-8.4-13.9-15.4zm14.6-12.8c-3.3 0-5.8 1.4-7.2 4.3-2.4 4.7-2.3 9.6-0.2 14.3 1.5 3.3 4.4 5 7.8 4.8s6.2-2.4 7.4-5.7c1.6-4.2 1.4-8.4-0.2-12.6-1.3-3.3-4-5.1-7.6-5.1z"></path> <path class="st0" d="m30.4 106.1c-1.8 2.7-3.4 5.1-4.9 7.6-2.6 4.2-3.6 4.7-8.5 3.9-0.1 0-0.3-0.2-0.6-0.4 1.2-1.8 2.3-3.5 3.5-5.3 2-3 4-6 6.1-8.9 0.9-1.2 0.8-2.1 0-3.2-2.6-3.7-5.1-7.4-7.7-11.1-0.4-0.6-0.8-1.4-1.4-2.4 2.4 0 4.4-0.1 6.4 0.1 0.4 0 0.9 0.7 1.2 1.2 1.7 2.6 3.4 5.2 5.1 7.8 0.3 0.4 0.6 0.9 1.1 1.6 1.6-2.4 3.4-4.5 4.5-6.9 1.5-3.1 3.6-4.4 7-3.8 0.6 0.1 1.1 0.1 2 0.2-0.4 0.8-0.7 1.3-1 1.7-2.8 4-5.6 8-8.4 12-0.7 1-0.7 1.6 0 2.6 3 4.2 5.8 8.5 8.8 12.8 0.4 0.6 0.7 1.2 1.3 2-2.4 0-4.4 0.1-6.3-0.1-0.5 0-1.1-0.7-1.4-1.2-1.9-2.8-3.7-5.6-5.6-8.4-0.3-0.6-0.7-1-1.2-1.8z"></path> <path class="st0" d="m179.6 102.7v13.9c0 1.5-0.5 2.1-2 2s-3 0-4.6 0c-1.1 0-1.7-0.4-1.7-1.6v-28.9c0-1.1 0.5-1.6 1.6-1.6 1.6 0 3.3 0.1 4.9 0 1.4-0.1 1.8 0.6 1.8 1.9v14.3z"></path> <path class="st0" d="m49.2 101.9v-13.7c0-1.5 0.5-2 2-2 4 0.1 3.6-0.3 3.6 3.6v25.5c0 2.2-0.1 2.3-2.3 2.3-3.3 0-3.3 0-3.3-3.3v-12.4z"></path> <path class="st0" d="m151.5 108.6v8.2c0 1.2-0.5 1.8-1.7 1.8h-5.2c-1.1 0-1.6-0.5-1.5-1.6v-16.6c0-1.3 0.6-1.7 1.8-1.7 1.6 0.1 3.1 0.1 4.7 0 1.4-0.1 2 0.4 2 1.8-0.2 2.7-0.1 5.4-0.1 8.1z"></path> <path class="st0" d="m54.8 77.8c0 3-1.8 4.2-4.7 3.1-0.3-0.1-0.8-0.6-0.8-0.9-0.1-1.5-0.1-2.9 0-4.4 0-0.4 0.6-1 1-1 1.1-0.1 2.2-0.2 3.2 0 0.5 0.1 1 0.8 1.1 1.3 0.3 0.5 0.2 1.2 0.2 1.9z"></path> </svg> 